<?xml version="1.0" encoding="utf-8" standalone="no"?>
<!DOCTYPE svg PUBLIC "-//W3C//DTD SVG 1.1//EN"
  "http://www.w3.org/Graphics/SVG/1.1/DTD/svg11.dtd">
<!-- Created with matplotlib (https://matplotlib.org/) -->
<svg height="216pt" version="1.1" viewBox="0 0 432 216" width="432pt" xmlns="http://www.w3.org/2000/svg" xmlns:xlink="http://www.w3.org/1999/xlink">
 <defs>
  <style type="text/css">
*{stroke-linecap:butt;stroke-linejoin:round;}
  </style>
 </defs>
 <g id="figure_1">
  <g id="patch_1">
   <path d="M 0 216 
L 432 216 
L 432 0 
L 0 0 
z
" style="fill:#ffffff;"/>
  </g>
  <g id="axes_1">
   <g id="patch_2">
    <path d="M 41.935346 174.04 
L 210.05284 174.04 
L 210.05284 27.6 
L 41.935346 27.6 
z
" style="fill:#ffffff;"/>
   </g>
   <g id="patch_3">
    <path clip-path="url(#p0f08819847)" d="M 49.57705 30239.976557 
L 52.633735 30239.976557 
L 52.633735 167.383636 
L 49.57705 167.383636 
z
" style="fill:#1f77b4;opacity:0.4;"/>
   </g>
   <g id="patch_4">
    <path clip-path="url(#p0f08819847)" d="M 52.633727 30239.976557 
L 55.690404 30239.976557 
L 55.690404 167.383604 
L 52.633727 167.383604 
z
" style="fill:#1f77b4;opacity:0.4;"/>
   </g>
   <g id="patch_5">
    <path clip-path="url(#p0f08819847)" d="M 55.690404 30239.976557 
L 58.747089 30239.976557 
L 58.747089 160.677826 
L 55.690404 160.677826 
z
" style="fill:#1f77b4;opacity:0.4;"/>
   </g>
   <g id="patch_6">
    <path clip-path="url(#p0f08819847)" d="M 58.747097 30239.976557 
L 61.803781 30239.976557 
L 61.803781 156.260822 
L 58.747097 156.260822 
z
" style="fill:#1f77b4;opacity:0.4;"/>
   </g>
   <g id="patch_7">
    <path clip-path="url(#p0f08819847)" d="M 61.803774 30239.976557 
L 64.860451 30239.976557 
L 64.860451 143.862468 
L 61.803774 143.862468 
z
" style="fill:#1f77b4;opacity:0.4;"/>
   </g>
   <g id="patch_8">
    <path clip-path="url(#p0f08819847)" d="M 64.860451 30239.976557 
L 67.917135 30239.976557 
L 67.917135 131.545463 
L 64.860451 131.545463 
z
" style="fill:#1f77b4;opacity:0.4;"/>
   </g>
   <g id="patch_9">
    <path clip-path="url(#p0f08819847)" d="M 67.917135 30239.976557 
L 70.973812 30239.976557 
L 70.973812 124.613297 
L 67.917135 124.613297 
z
" style="fill:#1f77b4;opacity:0.4;"/>
   </g>
   <g id="patch_10">
    <path clip-path="url(#p0f08819847)" d="M 70.97382 30239.976557 
L 74.030497 30239.976557 
L 74.030497 115.514079 
L 70.97382 115.514079 
z
" style="fill:#1f77b4;opacity:0.4;"/>
   </g>
   <g id="patch_11">
    <path clip-path="url(#p0f08819847)" d="M 74.030497 30239.976557 
L 77.087181 30239.976557 
L 77.087181 108.808285 
L 74.030497 108.808285 
z
" style="fill:#1f77b4;opacity:0.4;"/>
   </g>
   <g id="patch_12">
    <path clip-path="url(#p0f08819847)" d="M 77.087181 30239.976557 
L 80.143858 30239.976557 
L 80.143858 98.972743 
L 77.087181 98.972743 
z
" style="fill:#1f77b4;opacity:0.4;"/>
   </g>
   <g id="patch_13">
    <path clip-path="url(#p0f08819847)" d="M 80.143866 30239.976557 
L 83.200543 30239.976557 
L 83.200543 92.176546 
L 80.143866 92.176546 
z
" style="fill:#1f77b4;opacity:0.4;"/>
   </g>
   <g id="patch_14">
    <path clip-path="url(#p0f08819847)" d="M 83.200543 30239.976557 
L 86.25722 30239.976557 
L 86.25722 84.816033 
L 83.200543 84.816033 
z
" style="fill:#1f77b4;opacity:0.4;"/>
   </g>
   <g id="patch_15">
    <path clip-path="url(#p0f08819847)" d="M 86.257224 30239.976557 
L 89.313908 30239.976557 
L 89.313908 78.24242 
L 86.257224 78.24242 
z
" style="fill:#1f77b4;opacity:0.4;"/>
   </g>
   <g id="patch_16">
    <path clip-path="url(#p0f08819847)" d="M 89.313912 30239.976557 
L 92.370589 30239.976557 
L 92.370589 71.633388 
L 89.313912 71.633388 
z
" style="fill:#1f77b4;opacity:0.4;"/>
   </g>
   <g id="patch_17">
    <path clip-path="url(#p0f08819847)" d="M 92.370589 30239.976557 
L 95.427266 30239.976557 
L 95.427266 66.008849 
L 92.370589 66.008849 
z
" style="fill:#1f77b4;opacity:0.4;"/>
   </g>
   <g id="patch_18">
    <path clip-path="url(#p0f08819847)" d="M 95.42727 30239.976557 
L 98.483954 30239.976557 
L 98.483954 60.555694 
L 95.42727 60.555694 
z
" style="fill:#1f77b4;opacity:0.4;"/>
   </g>
   <g id="patch_19">
    <path clip-path="url(#p0f08819847)" d="M 98.483951 30239.976557 
L 101.540635 30239.976557 
L 101.540635 55.858142 
L 98.483951 55.858142 
z
" style="fill:#1f77b4;opacity:0.4;"/>
   </g>
   <g id="patch_20">
    <path clip-path="url(#p0f08819847)" d="M 101.540637 30239.976557 
L 104.597314 30239.976557 
L 104.597314 51.489123 
L 101.540637 51.489123 
z
" style="fill:#1f77b4;opacity:0.4;"/>
   </g>
   <g id="patch_21">
    <path clip-path="url(#p0f08819847)" d="M 104.597316 30239.976557 
L 107.654001 30239.976557 
L 107.654001 47.558066 
L 104.597316 47.558066 
z
" style="fill:#1f77b4;opacity:0.4;"/>
   </g>
   <g id="patch_22">
    <path clip-path="url(#p0f08819847)" d="M 107.654001 30239.976557 
L 110.710678 30239.976557 
L 110.710678 44.361411 
L 107.654001 44.361411 
z
" style="fill:#1f77b4;opacity:0.4;"/>
   </g>
   <g id="patch_23">
    <path clip-path="url(#p0f08819847)" d="M 110.710678 30239.976557 
L 113.767362 30239.976557 
L 113.767362 41.554496 
L 110.710678 41.554496 
z
" style="fill:#1f77b4;opacity:0.4;"/>
   </g>
   <g id="patch_24">
    <path clip-path="url(#p0f08819847)" d="M 113.76736 30239.976557 
L 116.824045 30239.976557 
L 116.824045 39.059466 
L 113.76736 39.059466 
z
" style="fill:#1f77b4;opacity:0.4;"/>
   </g>
   <g id="patch_25">
    <path clip-path="url(#p0f08819847)" d="M 116.824043 30239.976557 
L 119.880728 30239.976557 
L 119.880728 37.04799 
L 116.824043 37.04799 
z
" style="fill:#1f77b4;opacity:0.4;"/>
   </g>
   <g id="patch_26">
    <path clip-path="url(#p0f08819847)" d="M 119.880724 30239.976557 
L 122.937408 30239.976557 
L 122.937408 35.732976 
L 119.880724 35.732976 
z
" style="fill:#1f77b4;opacity:0.4;"/>
   </g>
   <g id="patch_27">
    <path clip-path="url(#p0f08819847)" d="M 122.937406 30239.976557 
L 125.994091 30239.976557 
L 125.994091 34.770891 
L 122.937406 34.770891 
z
" style="fill:#1f77b4;opacity:0.4;"/>
   </g>
   <g id="patch_28">
    <path clip-path="url(#p0f08819847)" d="M 125.994088 30239.976557 
L 129.050772 30239.976557 
L 129.050772 34.256364 
L 125.994088 34.256364 
z
" style="fill:#1f77b4;opacity:0.4;"/>
   </g>
   <g id="patch_29">
    <path clip-path="url(#p0f08819847)" d="M 129.05077 30239.976557 
L 132.107454 30239.976557 
L 132.107454 34.295409 
L 129.05077 34.295409 
z
" style="fill:#1f77b4;opacity:0.4;"/>
   </g>
   <g id="patch_30">
    <path clip-path="url(#p0f08819847)" d="M 132.107452 30239.976557 
L 135.164136 30239.976557 
L 135.164136 34.773225 
L 132.107452 34.773225 
z
" style="fill:#1f77b4;opacity:0.4;"/>
   </g>
   <g id="patch_31">
    <path clip-path="url(#p0f08819847)" d="M 135.164133 30239.976557 
L 138.220818 30239.976557 
L 138.220818 35.75616 
L 135.164133 35.75616 
z
" style="fill:#1f77b4;opacity:0.4;"/>
   </g>
   <g id="patch_32">
    <path clip-path="url(#p0f08819847)" d="M 138.220815 30239.976557 
L 141.2775 30239.976557 
L 141.2775 37.116669 
L 138.220815 37.116669 
z
" style="fill:#1f77b4;opacity:0.4;"/>
   </g>
   <g id="patch_33">
    <path clip-path="url(#p0f08819847)" d="M 141.277497 30239.976557 
L 144.334182 30239.976557 
L 144.334182 39.055736 
L 141.277497 39.055736 
z
" style="fill:#1f77b4;opacity:0.4;"/>
   </g>
   <g id="patch_34">
    <path clip-path="url(#p0f08819847)" d="M 144.33418 30239.976557 
L 147.390864 30239.976557 
L 147.390864 41.477419 
L 144.33418 41.477419 
z
" style="fill:#1f77b4;opacity:0.4;"/>
   </g>
   <g id="patch_35">
    <path clip-path="url(#p0f08819847)" d="M 147.390864 30239.976557 
L 150.447541 30239.976557 
L 150.447541 44.426384 
L 147.390864 44.426384 
z
" style="fill:#1f77b4;opacity:0.4;"/>
   </g>
   <g id="patch_36">
    <path clip-path="url(#p0f08819847)" d="M 150.447543 30239.976557 
L 153.504228 30239.976557 
L 153.504228 47.877928 
L 150.447543 47.877928 
z
" style="fill:#1f77b4;opacity:0.4;"/>
   </g>
   <g id="patch_37">
    <path clip-path="url(#p0f08819847)" d="M 153.504224 30239.976557 
L 156.560909 30239.976557 
L 156.560909 51.629636 
L 153.504224 51.629636 
z
" style="fill:#1f77b4;opacity:0.4;"/>
   </g>
   <g id="patch_38">
    <path clip-path="url(#p0f08819847)" d="M 156.56091 30239.976557 
L 159.617587 30239.976557 
L 159.617587 56.06998 
L 156.56091 56.06998 
z
" style="fill:#1f77b4;opacity:0.4;"/>
   </g>
   <g id="patch_39">
    <path clip-path="url(#p0f08819847)" d="M 159.617589 30239.976557 
L 162.674266 30239.976557 
L 162.674266 60.893816 
L 159.617589 60.893816 
z
" style="fill:#1f77b4;opacity:0.4;"/>
   </g>
   <g id="patch_40">
    <path clip-path="url(#p0f08819847)" d="M 162.67427 30239.976557 
L 165.730955 30239.976557 
L 165.730955 65.960514 
L 162.67427 65.960514 
z
" style="fill:#1f77b4;opacity:0.4;"/>
   </g>
   <g id="patch_41">
    <path clip-path="url(#p0f08819847)" d="M 165.730959 30239.976557 
L 168.787636 30239.976557 
L 168.787636 72.065716 
L 165.730959 72.065716 
z
" style="fill:#1f77b4;opacity:0.4;"/>
   </g>
   <g id="patch_42">
    <path clip-path="url(#p0f08819847)" d="M 168.787636 30239.976557 
L 171.844312 30239.976557 
L 171.844312 77.921615 
L 168.787636 77.921615 
z
" style="fill:#1f77b4;opacity:0.4;"/>
   </g>
   <g id="patch_43">
    <path clip-path="url(#p0f08819847)" d="M 171.84432 30239.976557 
L 174.900997 30239.976557 
L 174.900997 84.946574 
L 171.84432 84.946574 
z
" style="fill:#1f77b4;opacity:0.4;"/>
   </g>
   <g id="patch_44">
    <path clip-path="url(#p0f08819847)" d="M 174.900997 30239.976557 
L 177.957682 30239.976557 
L 177.957682 92.02104 
L 174.900997 92.02104 
z
" style="fill:#1f77b4;opacity:0.4;"/>
   </g>
   <g id="patch_45">
    <path clip-path="url(#p0f08819847)" d="M 177.957682 30239.976557 
L 181.014359 30239.976557 
L 181.014359 99.861402 
L 177.957682 99.861402 
z
" style="fill:#1f77b4;opacity:0.4;"/>
   </g>
   <g id="patch_46">
    <path clip-path="url(#p0f08819847)" d="M 181.014366 30239.976557 
L 184.071043 30239.976557 
L 184.071043 108.07196 
L 181.014366 108.07196 
z
" style="fill:#1f77b4;opacity:0.4;"/>
   </g>
   <g id="patch_47">
    <path clip-path="url(#p0f08819847)" d="M 184.071043 30239.976557 
L 187.127728 30239.976557 
L 187.127728 118.111032 
L 184.071043 118.111032 
z
" style="fill:#1f77b4;opacity:0.4;"/>
   </g>
   <g id="patch_48">
    <path clip-path="url(#p0f08819847)" d="M 187.127728 30239.976557 
L 190.184405 30239.976557 
L 190.184405 124.446067 
L 187.127728 124.446067 
z
" style="fill:#1f77b4;opacity:0.4;"/>
   </g>
   <g id="patch_49">
    <path clip-path="url(#p0f08819847)" d="M 190.184412 30239.976557 
L 193.241089 30239.976557 
L 193.241089 133.712514 
L 190.184412 133.712514 
z
" style="fill:#1f77b4;opacity:0.4;"/>
   </g>
   <g id="patch_50">
    <path clip-path="url(#p0f08819847)" d="M 193.241097 30239.976557 
L 196.297782 30239.976557 
L 196.297782 141.228217 
L 193.241097 141.228217 
z
" style="fill:#1f77b4;opacity:0.4;"/>
   </g>
   <g id="patch_51">
    <path clip-path="url(#p0f08819847)" d="M 196.297774 30239.976557 
L 199.354451 30239.976557 
L 199.354451 156.260789 
L 196.297774 156.260789 
z
" style="fill:#1f77b4;opacity:0.4;"/>
   </g>
   <g id="patch_52">
    <path clip-path="url(#p0f08819847)" d="M 199.354451 30239.976557 
L 202.411136 30239.976557 
L 202.411136 154.507902 
L 199.354451 154.507902 
z
" style="fill:#1f77b4;opacity:0.4;"/>
   </g>
   <g id="matplotlib.axis_1">
    <g id="xtick_1">
     <g id="line2d_1">
      <defs>
       <path d="M 0 0 
L 0 3.5 
" id="mdaaf47cbbf" style="stroke:#000000;stroke-width:0.8;"/>
      </defs>
      <g>
       <use style="stroke:#000000;stroke-width:0.8;" x="49.303241" xlink:href="#mdaaf47cbbf" y="174.04"/>
      </g>
     </g>
     <g id="text_1">
      <!-- −10 -->
      <defs>
       <path d="M 10.59375 35.5 
L 73.1875 35.5 
L 73.1875 27.203125 
L 10.59375 27.203125 
z
" id="DejaVuSans-8722"/>
       <path d="M 12.40625 8.296875 
L 28.515625 8.296875 
L 28.515625 63.921875 
L 10.984375 60.40625 
L 10.984375 69.390625 
L 28.421875 72.90625 
L 38.28125 72.90625 
L 38.28125 8.296875 
L 54.390625 8.296875 
L 54.390625 0 
L 12.40625 0 
z
" id="DejaVuSans-49"/>
       <path d="M 31.78125 66.40625 
Q 24.171875 66.40625 20.328125 58.90625 
Q 16.5 51.421875 16.5 36.375 
Q 16.5 21.390625 20.328125 13.890625 
Q 24.171875 6.390625 31.78125 6.390625 
Q 39.453125 6.390625 43.28125 13.890625 
Q 47.125 21.390625 47.125 36.375 
Q 47.125 51.421875 43.28125 58.90625 
Q 39.453125 66.40625 31.78125 66.40625 
z
M 31.78125 74.21875 
Q 44.046875 74.21875 50.515625 64.515625 
Q 56.984375 54.828125 56.984375 36.375 
Q 56.984375 17.96875 50.515625 8.265625 
Q 44.046875 -1.421875 31.78125 -1.421875 
Q 19.53125 -1.421875 13.0625 8.265625 
Q 6.59375 17.96875 6.59375 36.375 
Q 6.59375 54.828125 13.0625 64.515625 
Q 19.53125 74.21875 31.78125 74.21875 
z
" id="DejaVuSans-48"/>
      </defs>
      <g transform="translate(38.750897 188.638438)scale(0.1 -0.1)">
       <use xlink:href="#DejaVuSans-8722"/>
       <use x="83.789062" xlink:href="#DejaVuSans-49"/>
       <use x="147.412109" xlink:href="#DejaVuSans-48"/>
      </g>
     </g>
    </g>
    <g id="xtick_2">
     <g id="line2d_2">
      <g>
       <use style="stroke:#000000;stroke-width:0.8;" x="89.170772" xlink:href="#mdaaf47cbbf" y="174.04"/>
      </g>
     </g>
     <g id="text_2">
      <!-- −5 -->
      <defs>
       <path d="M 10.796875 72.90625 
L 49.515625 72.90625 
L 49.515625 64.59375 
L 19.828125 64.59375 
L 19.828125 46.734375 
Q 21.96875 47.46875 24.109375 47.828125 
Q 26.265625 48.1875 28.421875 48.1875 
Q 40.625 48.1875 47.75 41.5 
Q 54.890625 34.8125 54.890625 23.390625 
Q 54.890625 11.625 47.5625 5.09375 
Q 40.234375 -1.421875 26.90625 -1.421875 
Q 22.3125 -1.421875 17.546875 -0.640625 
Q 12.796875 0.140625 7.71875 1.703125 
L 7.71875 11.625 
Q 12.109375 9.234375 16.796875 8.0625 
Q 21.484375 6.890625 26.703125 6.890625 
Q 35.15625 6.890625 40.078125 11.328125 
Q 45.015625 15.765625 45.015625 23.390625 
Q 45.015625 31 40.078125 35.4375 
Q 35.15625 39.890625 26.703125 39.890625 
Q 22.75 39.890625 18.8125 39.015625 
Q 14.890625 38.140625 10.796875 36.28125 
z
" id="DejaVuSans-53"/>
      </defs>
      <g transform="translate(81.799678 188.638438)scale(0.1 -0.1)">
       <use xlink:href="#DejaVuSans-8722"/>
       <use x="83.789062" xlink:href="#DejaVuSans-53"/>
      </g>
     </g>
    </g>
    <g id="xtick_3">
     <g id="line2d_3">
      <g>
       <use style="stroke:#000000;stroke-width:0.8;" x="129.038303" xlink:href="#mdaaf47cbbf" y="174.04"/>
      </g>
     </g>
     <g id="text_3">
      <!-- 0 -->
      <g transform="translate(125.857053 188.638438)scale(0.1 -0.1)">
       <use xlink:href="#DejaVuSans-48"/>
      </g>
     </g>
    </g>
    <g id="xtick_4">
     <g id="line2d_4">
      <g>
       <use style="stroke:#000000;stroke-width:0.8;" x="168.905834" xlink:href="#mdaaf47cbbf" y="174.04"/>
      </g>
     </g>
     <g id="text_4">
      <!-- 5 -->
      <g transform="translate(165.724584 188.638438)scale(0.1 -0.1)">
       <use xlink:href="#DejaVuSans-53"/>
      </g>
     </g>
    </g>
    <g id="xtick_5">
     <g id="line2d_5">
      <g>
       <use style="stroke:#000000;stroke-width:0.8;" x="208.773365" xlink:href="#mdaaf47cbbf" y="174.04"/>
      </g>
     </g>
     <g id="text_5">
      <!-- 10 -->
      <g transform="translate(202.410865 188.638438)scale(0.1 -0.1)">
       <use xlink:href="#DejaVuSans-49"/>
       <use x="63.623047" xlink:href="#DejaVuSans-48"/>
      </g>
     </g>
    </g>
    <g id="text_6">
     <!-- mu -->
     <defs>
      <path d="M 52 44.1875 
Q 55.375 50.25 60.0625 53.125 
Q 64.75 56 71.09375 56 
Q 79.640625 56 84.28125 50.015625 
Q 88.921875 44.046875 88.921875 33.015625 
L 88.921875 0 
L 79.890625 0 
L 79.890625 32.71875 
Q 79.890625 40.578125 77.09375 44.375 
Q 74.3125 48.1875 68.609375 48.1875 
Q 61.625 48.1875 57.5625 43.546875 
Q 53.515625 38.921875 53.515625 30.90625 
L 53.515625 0 
L 44.484375 0 
L 44.484375 32.71875 
Q 44.484375 40.625 41.703125 44.40625 
Q 38.921875 48.1875 33.109375 48.1875 
Q 26.21875 48.1875 22.15625 43.53125 
Q 18.109375 38.875 18.109375 30.90625 
L 18.109375 0 
L 9.078125 0 
L 9.078125 54.6875 
L 18.109375 54.6875 
L 18.109375 46.1875 
Q 21.1875 51.21875 25.484375 53.609375 
Q 29.78125 56 35.6875 56 
Q 41.65625 56 45.828125 52.96875 
Q 50 49.953125 52 44.1875 
z
" id="DejaVuSans-109"/>
      <path d="M 8.5 21.578125 
L 8.5 54.6875 
L 17.484375 54.6875 
L 17.484375 21.921875 
Q 17.484375 14.15625 20.5 10.265625 
Q 23.53125 6.390625 29.59375 6.390625 
Q 36.859375 6.390625 41.078125 11.03125 
Q 45.3125 15.671875 45.3125 23.6875 
L 45.3125 54.6875 
L 54.296875 54.6875 
L 54.296875 0 
L 45.3125 0 
L 45.3125 8.40625 
Q 42.046875 3.421875 37.71875 1 
Q 33.40625 -1.421875 27.6875 -1.421875 
Q 18.265625 -1.421875 13.375 4.4375 
Q 8.5 10.296875 8.5 21.578125 
z
M 31.109375 56 
z
" id="DejaVuSans-117"/>
     </defs>
     <g transform="translate(117.955031 202.316563)scale(0.1 -0.1)">
      <use xlink:href="#DejaVuSans-109"/>
      <use x="97.412109" xlink:href="#DejaVuSans-117"/>
     </g>
    </g>
   </g>
   <g id="matplotlib.axis_2">
    <g id="ytick_1">
     <g id="line2d_6">
      <defs>
       <path d="M 0 0 
L -3.5 0 
" id="m08351a96c8" style="stroke:#000000;stroke-width:0.8;"/>
      </defs>
      <g>
       <use style="stroke:#000000;stroke-width:0.8;" x="41.935346" xlink:href="#m08351a96c8" y="164.16507"/>
      </g>
     </g>
     <g id="text_7">
      <!-- $\mathdefault{10^{-5}}$ -->
      <g transform="translate(11.435346 167.964289)scale(0.1 -0.1)">
       <use transform="translate(0 0.684375)" xlink:href="#DejaVuSans-49"/>
       <use transform="translate(63.623047 0.684375)" xlink:href="#DejaVuSans-48"/>
       <use transform="translate(128.203125 38.965625)scale(0.7)" xlink:href="#DejaVuSans-8722"/>
       <use transform="translate(186.855469 38.965625)scale(0.7)" xlink:href="#DejaVuSans-53"/>
      </g>
     </g>
    </g>
    <g id="ytick_2">
     <g id="line2d_7">
      <g>
       <use style="stroke:#000000;stroke-width:0.8;" x="41.935346" xlink:href="#m08351a96c8" y="133.938124"/>
      </g>
     </g>
     <g id="text_8">
      <!-- $\mathdefault{10^{-4}}$ -->
      <defs>
       <path d="M 37.796875 64.3125 
L 12.890625 25.390625 
L 37.796875 25.390625 
z
M 35.203125 72.90625 
L 47.609375 72.90625 
L 47.609375 25.390625 
L 58.015625 25.390625 
L 58.015625 17.1875 
L 47.609375 17.1875 
L 47.609375 0 
L 37.796875 0 
L 37.796875 17.1875 
L 4.890625 17.1875 
L 4.890625 26.703125 
z
" id="DejaVuSans-52"/>
      </defs>
      <g transform="translate(11.435346 137.737343)scale(0.1 -0.1)">
       <use transform="translate(0 0.684375)" xlink:href="#DejaVuSans-49"/>
       <use transform="translate(63.623047 0.684375)" xlink:href="#DejaVuSans-48"/>
       <use transform="translate(128.203125 38.965625)scale(0.7)" xlink:href="#DejaVuSans-8722"/>
       <use transform="translate(186.855469 38.965625)scale(0.7)" xlink:href="#DejaVuSans-52"/>
      </g>
     </g>
    </g>
    <g id="ytick_3">
     <g id="line2d_8">
      <g>
       <use style="stroke:#000000;stroke-width:0.8;" x="41.935346" xlink:href="#m08351a96c8" y="103.711178"/>
      </g>
     </g>
     <g id="text_9">
      <!-- $\mathdefault{10^{-3}}$ -->
      <defs>
       <path d="M 40.578125 39.3125 
Q 47.65625 37.796875 51.625 33 
Q 55.609375 28.21875 55.609375 21.1875 
Q 55.609375 10.40625 48.1875 4.484375 
Q 40.765625 -1.421875 27.09375 -1.421875 
Q 22.515625 -1.421875 17.65625 -0.515625 
Q 12.796875 0.390625 7.625 2.203125 
L 7.625 11.71875 
Q 11.71875 9.328125 16.59375 8.109375 
Q 21.484375 6.890625 26.8125 6.890625 
Q 36.078125 6.890625 40.9375 10.546875 
Q 45.796875 14.203125 45.796875 21.1875 
Q 45.796875 27.640625 41.28125 31.265625 
Q 36.765625 34.90625 28.71875 34.90625 
L 20.21875 34.90625 
L 20.21875 43.015625 
L 29.109375 43.015625 
Q 36.375 43.015625 40.234375 45.921875 
Q 44.09375 48.828125 44.09375 54.296875 
Q 44.09375 59.90625 40.109375 62.90625 
Q 36.140625 65.921875 28.71875 65.921875 
Q 24.65625 65.921875 20.015625 65.03125 
Q 15.375 64.15625 9.8125 62.3125 
L 9.8125 71.09375 
Q 15.4375 72.65625 20.34375 73.4375 
Q 25.25 74.21875 29.59375 74.21875 
Q 40.828125 74.21875 47.359375 69.109375 
Q 53.90625 64.015625 53.90625 55.328125 
Q 53.90625 49.265625 50.4375 45.09375 
Q 46.96875 40.921875 40.578125 39.3125 
z
" id="DejaVuSans-51"/>
      </defs>
      <g transform="translate(11.435346 107.510396)scale(0.1 -0.1)">
       <use transform="translate(0 0.765625)" xlink:href="#DejaVuSans-49"/>
       <use transform="translate(63.623047 0.765625)" xlink:href="#DejaVuSans-48"/>
       <use transform="translate(128.203125 39.046875)scale(0.7)" xlink:href="#DejaVuSans-8722"/>
       <use transform="translate(186.855469 39.046875)scale(0.7)" xlink:href="#DejaVuSans-51"/>
      </g>
     </g>
    </g>
    <g id="ytick_4">
     <g id="line2d_9">
      <g>
       <use style="stroke:#000000;stroke-width:0.8;" x="41.935346" xlink:href="#m08351a96c8" y="73.484231"/>
      </g>
     </g>
     <g id="text_10">
      <!-- $\mathdefault{10^{-2}}$ -->
      <defs>
       <path d="M 19.1875 8.296875 
L 53.609375 8.296875 
L 53.609375 0 
L 7.328125 0 
L 7.328125 8.296875 
Q 12.9375 14.109375 22.625 23.890625 
Q 32.328125 33.6875 34.8125 36.53125 
Q 39.546875 41.84375 41.421875 45.53125 
Q 43.3125 49.21875 43.3125 52.78125 
Q 43.3125 58.59375 39.234375 62.25 
Q 35.15625 65.921875 28.609375 65.921875 
Q 23.96875 65.921875 18.8125 64.3125 
Q 13.671875 62.703125 7.8125 59.421875 
L 7.8125 69.390625 
Q 13.765625 71.78125 18.9375 73 
Q 24.125 74.21875 28.421875 74.21875 
Q 39.75 74.21875 46.484375 68.546875 
Q 53.21875 62.890625 53.21875 53.421875 
Q 53.21875 48.921875 51.53125 44.890625 
Q 49.859375 40.875 45.40625 35.40625 
Q 44.1875 33.984375 37.640625 27.21875 
Q 31.109375 20.453125 19.1875 8.296875 
z
" id="DejaVuSans-50"/>
      </defs>
      <g transform="translate(11.435346 77.28345)scale(0.1 -0.1)">
       <use transform="translate(0 0.765625)" xlink:href="#DejaVuSans-49"/>
       <use transform="translate(63.623047 0.765625)" xlink:href="#DejaVuSans-48"/>
       <use transform="translate(128.203125 39.046875)scale(0.7)" xlink:href="#DejaVuSans-8722"/>
       <use transform="translate(186.855469 39.046875)scale(0.7)" xlink:href="#DejaVuSans-50"/>
      </g>
     </g>
    </g>
    <g id="ytick_5">
     <g id="line2d_10">
      <g>
       <use style="stroke:#000000;stroke-width:0.8;" x="41.935346" xlink:href="#m08351a96c8" y="43.257285"/>
      </g>
     </g>
     <g id="text_11">
      <!-- $\mathdefault{10^{-1}}$ -->
      <g transform="translate(11.435346 47.056504)scale(0.1 -0.1)">
       <use transform="translate(0 0.684375)" xlink:href="#DejaVuSans-49"/>
       <use transform="translate(63.623047 0.684375)" xlink:href="#DejaVuSans-48"/>
       <use transform="translate(128.203125 38.965625)scale(0.7)" xlink:href="#DejaVuSans-8722"/>
       <use transform="translate(186.855469 38.965625)scale(0.7)" xlink:href="#DejaVuSans-49"/>
      </g>
     </g>
    </g>
    <g id="ytick_6">
     <g id="line2d_11">
      <defs>
       <path d="M 0 0 
L -2 0 
" id="m71d7ce9fc9" style="stroke:#000000;stroke-width:0.6;"/>
      </defs>
      <g>
       <use style="stroke:#000000;stroke-width:0.6;" x="41.935346" xlink:href="#m71d7ce9fc9" y="173.264288"/>
      </g>
     </g>
    </g>
    <g id="ytick_7">
     <g id="line2d_12">
      <g>
       <use style="stroke:#000000;stroke-width:0.6;" x="41.935346" xlink:href="#m71d7ce9fc9" y="170.87088"/>
      </g>
     </g>
    </g>
    <g id="ytick_8">
     <g id="line2d_13">
      <g>
       <use style="stroke:#000000;stroke-width:0.6;" x="41.935346" xlink:href="#m71d7ce9fc9" y="168.847283"/>
      </g>
     </g>
    </g>
    <g id="ytick_9">
     <g id="line2d_14">
      <g>
       <use style="stroke:#000000;stroke-width:0.6;" x="41.935346" xlink:href="#m71d7ce9fc9" y="167.094364"/>
      </g>
     </g>
    </g>
    <g id="ytick_10">
     <g id="line2d_15">
      <g>
       <use style="stroke:#000000;stroke-width:0.6;" x="41.935346" xlink:href="#m71d7ce9fc9" y="165.548179"/>
      </g>
     </g>
    </g>
    <g id="ytick_11">
     <g id="line2d_16">
      <g>
       <use style="stroke:#000000;stroke-width:0.6;" x="41.935346" xlink:href="#m71d7ce9fc9" y="155.065853"/>
      </g>
     </g>
    </g>
    <g id="ytick_12">
     <g id="line2d_17">
      <g>
       <use style="stroke:#000000;stroke-width:0.6;" x="41.935346" xlink:href="#m71d7ce9fc9" y="149.743152"/>
      </g>
     </g>
    </g>
    <g id="ytick_13">
     <g id="line2d_18">
      <g>
       <use style="stroke:#000000;stroke-width:0.6;" x="41.935346" xlink:href="#m71d7ce9fc9" y="145.966635"/>
      </g>
     </g>
    </g>
    <g id="ytick_14">
     <g id="line2d_19">
      <g>
       <use style="stroke:#000000;stroke-width:0.6;" x="41.935346" xlink:href="#m71d7ce9fc9" y="143.037341"/>
      </g>
     </g>
    </g>
    <g id="ytick_15">
     <g id="line2d_20">
      <g>
       <use style="stroke:#000000;stroke-width:0.6;" x="41.935346" xlink:href="#m71d7ce9fc9" y="140.643934"/>
      </g>
     </g>
    </g>
    <g id="ytick_16">
     <g id="line2d_21">
      <g>
       <use style="stroke:#000000;stroke-width:0.6;" x="41.935346" xlink:href="#m71d7ce9fc9" y="138.620337"/>
      </g>
     </g>
    </g>
    <g id="ytick_17">
     <g id="line2d_22">
      <g>
       <use style="stroke:#000000;stroke-width:0.6;" x="41.935346" xlink:href="#m71d7ce9fc9" y="136.867418"/>
      </g>
     </g>
    </g>
    <g id="ytick_18">
     <g id="line2d_23">
      <g>
       <use style="stroke:#000000;stroke-width:0.6;" x="41.935346" xlink:href="#m71d7ce9fc9" y="135.321233"/>
      </g>
     </g>
    </g>
    <g id="ytick_19">
     <g id="line2d_24">
      <g>
       <use style="stroke:#000000;stroke-width:0.6;" x="41.935346" xlink:href="#m71d7ce9fc9" y="124.838906"/>
      </g>
     </g>
    </g>
    <g id="ytick_20">
     <g id="line2d_25">
      <g>
       <use style="stroke:#000000;stroke-width:0.6;" x="41.935346" xlink:href="#m71d7ce9fc9" y="119.516205"/>
      </g>
     </g>
    </g>
    <g id="ytick_21">
     <g id="line2d_26">
      <g>
       <use style="stroke:#000000;stroke-width:0.6;" x="41.935346" xlink:href="#m71d7ce9fc9" y="115.739689"/>
      </g>
     </g>
    </g>
    <g id="ytick_22">
     <g id="line2d_27">
      <g>
       <use style="stroke:#000000;stroke-width:0.6;" x="41.935346" xlink:href="#m71d7ce9fc9" y="112.810395"/>
      </g>
     </g>
    </g>
    <g id="ytick_23">
     <g id="line2d_28">
      <g>
       <use style="stroke:#000000;stroke-width:0.6;" x="41.935346" xlink:href="#m71d7ce9fc9" y="110.416988"/>
      </g>
     </g>
    </g>
    <g id="ytick_24">
     <g id="line2d_29">
      <g>
       <use style="stroke:#000000;stroke-width:0.6;" x="41.935346" xlink:href="#m71d7ce9fc9" y="108.393391"/>
      </g>
     </g>
    </g>
    <g id="ytick_25">
     <g id="line2d_30">
      <g>
       <use style="stroke:#000000;stroke-width:0.6;" x="41.935346" xlink:href="#m71d7ce9fc9" y="106.640471"/>
      </g>
     </g>
    </g>
    <g id="ytick_26">
     <g id="line2d_31">
      <g>
       <use style="stroke:#000000;stroke-width:0.6;" x="41.935346" xlink:href="#m71d7ce9fc9" y="105.094287"/>
      </g>
     </g>
    </g>
    <g id="ytick_27">
     <g id="line2d_32">
      <g>
       <use style="stroke:#000000;stroke-width:0.6;" x="41.935346" xlink:href="#m71d7ce9fc9" y="94.61196"/>
      </g>
     </g>
    </g>
    <g id="ytick_28">
     <g id="line2d_33">
      <g>
       <use style="stroke:#000000;stroke-width:0.6;" x="41.935346" xlink:href="#m71d7ce9fc9" y="89.289259"/>
      </g>
     </g>
    </g>
    <g id="ytick_29">
     <g id="line2d_34">
      <g>
       <use style="stroke:#000000;stroke-width:0.6;" x="41.935346" xlink:href="#m71d7ce9fc9" y="85.512743"/>
      </g>
     </g>
    </g>
    <g id="ytick_30">
     <g id="line2d_35">
      <g>
       <use style="stroke:#000000;stroke-width:0.6;" x="41.935346" xlink:href="#m71d7ce9fc9" y="82.583449"/>
      </g>
     </g>
    </g>
    <g id="ytick_31">
     <g id="line2d_36">
      <g>
       <use style="stroke:#000000;stroke-width:0.6;" x="41.935346" xlink:href="#m71d7ce9fc9" y="80.190042"/>
      </g>
     </g>
    </g>
    <g id="ytick_32">
     <g id="line2d_37">
      <g>
       <use style="stroke:#000000;stroke-width:0.6;" x="41.935346" xlink:href="#m71d7ce9fc9" y="78.166445"/>
      </g>
     </g>
    </g>
    <g id="ytick_33">
     <g id="line2d_38">
      <g>
       <use style="stroke:#000000;stroke-width:0.6;" x="41.935346" xlink:href="#m71d7ce9fc9" y="76.413525"/>
      </g>
     </g>
    </g>
    <g id="ytick_34">
     <g id="line2d_39">
      <g>
       <use style="stroke:#000000;stroke-width:0.6;" x="41.935346" xlink:href="#m71d7ce9fc9" y="74.867341"/>
      </g>
     </g>
    </g>
    <g id="ytick_35">
     <g id="line2d_40">
      <g>
       <use style="stroke:#000000;stroke-width:0.6;" x="41.935346" xlink:href="#m71d7ce9fc9" y="64.385014"/>
      </g>
     </g>
    </g>
    <g id="ytick_36">
     <g id="line2d_41">
      <g>
       <use style="stroke:#000000;stroke-width:0.6;" x="41.935346" xlink:href="#m71d7ce9fc9" y="59.062313"/>
      </g>
     </g>
    </g>
    <g id="ytick_37">
     <g id="line2d_42">
      <g>
       <use style="stroke:#000000;stroke-width:0.6;" x="41.935346" xlink:href="#m71d7ce9fc9" y="55.285796"/>
      </g>
     </g>
    </g>
    <g id="ytick_38">
     <g id="line2d_43">
      <g>
       <use style="stroke:#000000;stroke-width:0.6;" x="41.935346" xlink:href="#m71d7ce9fc9" y="52.356503"/>
      </g>
     </g>
    </g>
    <g id="ytick_39">
     <g id="line2d_44">
      <g>
       <use style="stroke:#000000;stroke-width:0.6;" x="41.935346" xlink:href="#m71d7ce9fc9" y="49.963095"/>
      </g>
     </g>
    </g>
    <g id="ytick_40">
     <g id="line2d_45">
      <g>
       <use style="stroke:#000000;stroke-width:0.6;" x="41.935346" xlink:href="#m71d7ce9fc9" y="47.939498"/>
      </g>
     </g>
    </g>
    <g id="ytick_41">
     <g id="line2d_46">
      <g>
       <use style="stroke:#000000;stroke-width:0.6;" x="41.935346" xlink:href="#m71d7ce9fc9" y="46.186579"/>
      </g>
     </g>
    </g>
    <g id="ytick_42">
     <g id="line2d_47">
      <g>
       <use style="stroke:#000000;stroke-width:0.6;" x="41.935346" xlink:href="#m71d7ce9fc9" y="44.640394"/>
      </g>
     </g>
    </g>
    <g id="ytick_43">
     <g id="line2d_48">
      <g>
       <use style="stroke:#000000;stroke-width:0.6;" x="41.935346" xlink:href="#m71d7ce9fc9" y="34.158068"/>
      </g>
     </g>
    </g>
    <g id="ytick_44">
     <g id="line2d_49">
      <g>
       <use style="stroke:#000000;stroke-width:0.6;" x="41.935346" xlink:href="#m71d7ce9fc9" y="28.835367"/>
      </g>
     </g>
    </g>
   </g>
   <g id="patch_53">
    <path d="M 41.935346 174.04 
L 41.935346 27.6 
" style="fill:none;stroke:#000000;stroke-linecap:square;stroke-linejoin:miter;stroke-width:0.8;"/>
   </g>
   <g id="patch_54">
    <path d="M 210.05284 174.04 
L 210.05284 27.6 
" style="fill:none;stroke:#000000;stroke-linecap:square;stroke-linejoin:miter;stroke-width:0.8;"/>
   </g>
   <g id="patch_55">
    <path d="M 41.935346 174.04 
L 210.05284 174.04 
" style="fill:none;stroke:#000000;stroke-linecap:square;stroke-linejoin:miter;stroke-width:0.8;"/>
   </g>
   <g id="patch_56">
    <path d="M 41.935346 27.6 
L 210.05284 27.6 
" style="fill:none;stroke:#000000;stroke-linecap:square;stroke-linejoin:miter;stroke-width:0.8;"/>
   </g>
   <g id="text_12">
    <!-- Test normal -->
    <defs>
     <path d="M -0.296875 72.90625 
L 61.375 72.90625 
L 61.375 64.59375 
L 35.5 64.59375 
L 35.5 0 
L 25.59375 0 
L 25.59375 64.59375 
L -0.296875 64.59375 
z
" id="DejaVuSans-84"/>
     <path d="M 56.203125 29.59375 
L 56.203125 25.203125 
L 14.890625 25.203125 
Q 15.484375 15.921875 20.484375 11.0625 
Q 25.484375 6.203125 34.421875 6.203125 
Q 39.59375 6.203125 44.453125 7.46875 
Q 49.3125 8.734375 54.109375 11.28125 
L 54.109375 2.78125 
Q 49.265625 0.734375 44.1875 -0.34375 
Q 39.109375 -1.421875 33.890625 -1.421875 
Q 20.796875 -1.421875 13.15625 6.1875 
Q 5.515625 13.8125 5.515625 26.8125 
Q 5.515625 40.234375 12.765625 48.109375 
Q 20.015625 56 32.328125 56 
Q 43.359375 56 49.78125 48.890625 
Q 56.203125 41.796875 56.203125 29.59375 
z
M 47.21875 32.234375 
Q 47.125 39.59375 43.09375 43.984375 
Q 39.0625 48.390625 32.421875 48.390625 
Q 24.90625 48.390625 20.390625 44.140625 
Q 15.875 39.890625 15.1875 32.171875 
z
" id="DejaVuSans-101"/>
     <path d="M 44.28125 53.078125 
L 44.28125 44.578125 
Q 40.484375 46.53125 36.375 47.5 
Q 32.28125 48.484375 27.875 48.484375 
Q 21.1875 48.484375 17.84375 46.4375 
Q 14.5 44.390625 14.5 40.28125 
Q 14.5 37.15625 16.890625 35.375 
Q 19.28125 33.59375 26.515625 31.984375 
L 29.59375 31.296875 
Q 39.15625 29.25 43.1875 25.515625 
Q 47.21875 21.78125 47.21875 15.09375 
Q 47.21875 7.46875 41.1875 3.015625 
Q 35.15625 -1.421875 24.609375 -1.421875 
Q 20.21875 -1.421875 15.453125 -0.5625 
Q 10.6875 0.296875 5.421875 2 
L 5.421875 11.28125 
Q 10.40625 8.6875 15.234375 7.390625 
Q 20.0625 6.109375 24.8125 6.109375 
Q 31.15625 6.109375 34.5625 8.28125 
Q 37.984375 10.453125 37.984375 14.40625 
Q 37.984375 18.0625 35.515625 20.015625 
Q 33.0625 21.96875 24.703125 23.78125 
L 21.578125 24.515625 
Q 13.234375 26.265625 9.515625 29.90625 
Q 5.8125 33.546875 5.8125 39.890625 
Q 5.8125 47.609375 11.28125 51.796875 
Q 16.75 56 26.8125 56 
Q 31.78125 56 36.171875 55.265625 
Q 40.578125 54.546875 44.28125 53.078125 
z
" id="DejaVuSans-115"/>
     <path d="M 18.3125 70.21875 
L 18.3125 54.6875 
L 36.8125 54.6875 
L 36.8125 47.703125 
L 18.3125 47.703125 
L 18.3125 18.015625 
Q 18.3125 11.328125 20.140625 9.421875 
Q 21.96875 7.515625 27.59375 7.515625 
L 36.8125 7.515625 
L 36.8125 0 
L 27.59375 0 
Q 17.1875 0 13.234375 3.875 
Q 9.28125 7.765625 9.28125 18.015625 
L 9.28125 47.703125 
L 2.6875 47.703125 
L 2.6875 54.6875 
L 9.28125 54.6875 
L 9.28125 70.21875 
z
" id="DejaVuSans-116"/>
     <path id="DejaVuSans-32"/>
     <path d="M 54.890625 33.015625 
L 54.890625 0 
L 45.90625 0 
L 45.90625 32.71875 
Q 45.90625 40.484375 42.875 44.328125 
Q 39.84375 48.1875 33.796875 48.1875 
Q 26.515625 48.1875 22.3125 43.546875 
Q 18.109375 38.921875 18.109375 30.90625 
L 18.109375 0 
L 9.078125 0 
L 9.078125 54.6875 
L 18.109375 54.6875 
L 18.109375 46.1875 
Q 21.34375 51.125 25.703125 53.5625 
Q 30.078125 56 35.796875 56 
Q 45.21875 56 50.046875 50.171875 
Q 54.890625 44.34375 54.890625 33.015625 
z
" id="DejaVuSans-110"/>
     <path d="M 30.609375 48.390625 
Q 23.390625 48.390625 19.1875 42.75 
Q 14.984375 37.109375 14.984375 27.296875 
Q 14.984375 17.484375 19.15625 11.84375 
Q 23.34375 6.203125 30.609375 6.203125 
Q 37.796875 6.203125 41.984375 11.859375 
Q 46.1875 17.53125 46.1875 27.296875 
Q 46.1875 37.015625 41.984375 42.703125 
Q 37.796875 48.390625 30.609375 48.390625 
z
M 30.609375 56 
Q 42.328125 56 49.015625 48.375 
Q 55.71875 40.765625 55.71875 27.296875 
Q 55.71875 13.875 49.015625 6.21875 
Q 42.328125 -1.421875 30.609375 -1.421875 
Q 18.84375 -1.421875 12.171875 6.21875 
Q 5.515625 13.875 5.515625 27.296875 
Q 5.515625 40.765625 12.171875 48.375 
Q 18.84375 56 30.609375 56 
z
" id="DejaVuSans-111"/>
     <path d="M 41.109375 46.296875 
Q 39.59375 47.171875 37.8125 47.578125 
Q 36.03125 48 33.890625 48 
Q 26.265625 48 22.1875 43.046875 
Q 18.109375 38.09375 18.109375 28.8125 
L 18.109375 0 
L 9.078125 0 
L 9.078125 54.6875 
L 18.109375 54.6875 
L 18.109375 46.1875 
Q 20.953125 51.171875 25.484375 53.578125 
Q 30.03125 56 36.53125 56 
Q 37.453125 56 38.578125 55.875 
Q 39.703125 55.765625 41.0625 55.515625 
z
" id="DejaVuSans-114"/>
     <path d="M 34.28125 27.484375 
Q 23.390625 27.484375 19.1875 25 
Q 14.984375 22.515625 14.984375 16.5 
Q 14.984375 11.71875 18.140625 8.90625 
Q 21.296875 6.109375 26.703125 6.109375 
Q 34.1875 6.109375 38.703125 11.40625 
Q 43.21875 16.703125 43.21875 25.484375 
L 43.21875 27.484375 
z
M 52.203125 31.203125 
L 52.203125 0 
L 43.21875 0 
L 43.21875 8.296875 
Q 40.140625 3.328125 35.546875 0.953125 
Q 30.953125 -1.421875 24.3125 -1.421875 
Q 15.921875 -1.421875 10.953125 3.296875 
Q 6 8.015625 6 15.921875 
Q 6 25.140625 12.171875 29.828125 
Q 18.359375 34.515625 30.609375 34.515625 
L 43.21875 34.515625 
L 43.21875 35.40625 
Q 43.21875 41.609375 39.140625 45 
Q 35.0625 48.390625 27.6875 48.390625 
Q 23 48.390625 18.546875 47.265625 
Q 14.109375 46.140625 10.015625 43.890625 
L 10.015625 52.203125 
Q 14.9375 54.109375 19.578125 55.046875 
Q 24.21875 56 28.609375 56 
Q 40.484375 56 46.34375 49.84375 
Q 52.203125 43.703125 52.203125 31.203125 
z
" id="DejaVuSans-97"/>
     <path d="M 9.421875 75.984375 
L 18.40625 75.984375 
L 18.40625 0 
L 9.421875 0 
z
" id="DejaVuSans-108"/>
    </defs>
    <g transform="translate(84.165812 21.6)scale(0.14 -0.14)">
     <use xlink:href="#DejaVuSans-84"/>
     <use x="60.818359" xlink:href="#DejaVuSans-101"/>
     <use x="122.341797" xlink:href="#DejaVuSans-115"/>
     <use x="174.441406" xlink:href="#DejaVuSans-116"/>
     <use x="213.650391" xlink:href="#DejaVuSans-32"/>
     <use x="245.4375" xlink:href="#DejaVuSans-110"/>
     <use x="308.816406" xlink:href="#DejaVuSans-111"/>
     <use x="369.998047" xlink:href="#DejaVuSans-114"/>
     <use x="411.095703" xlink:href="#DejaVuSans-109"/>
     <use x="508.507812" xlink:href="#DejaVuSans-97"/>
     <use x="569.787109" xlink:href="#DejaVuSans-108"/>
    </g>
   </g>
  </g>
  <g id="axes_2">
   <g id="patch_57">
    <path d="M 253.082506 174.04 
L 421.2 174.04 
L 421.2 27.6 
L 253.082506 27.6 
z
" style="fill:#ffffff;"/>
   </g>
   <g id="patch_58">
    <path clip-path="url(#pf6487716a5)" d="M 260.724226 27536.576706 
L 263.780909 27536.576706 
L 263.780909 167.383636 
L 260.724226 167.383636 
z
" style="fill:#1f77b4;opacity:0.4;"/>
   </g>
   <g id="patch_59">
    <path clip-path="url(#pf6487716a5)" d="M 263.780909 27536.576706 
L 266.837592 27536.576706 
L 266.837592 154.334771 
L 263.780909 154.334771 
z
" style="fill:#1f77b4;opacity:0.4;"/>
   </g>
   <g id="patch_60">
    <path clip-path="url(#pf6487716a5)" d="M 266.837599 27536.576706 
L 269.894275 27536.576706 
L 269.894275 148.267365 
L 266.837599 148.267365 
z
" style="fill:#1f77b4;opacity:0.4;"/>
   </g>
   <g id="patch_61">
    <path clip-path="url(#pf6487716a5)" d="M 269.894267 27536.576706 
L 272.95095 27536.576706 
L 272.95095 135.218529 
L 269.894267 135.218529 
z
" style="fill:#1f77b4;opacity:0.4;"/>
   </g>
   <g id="patch_62">
    <path clip-path="url(#pf6487716a5)" d="M 272.95095 27536.576706 
L 276.007633 27536.576706 
L 276.007633 126.596148 
L 272.95095 126.596148 
z
" style="fill:#1f77b4;opacity:0.4;"/>
   </g>
   <g id="patch_63">
    <path clip-path="url(#pf6487716a5)" d="M 276.007633 27536.576706 
L 279.064316 27536.576706 
L 279.064316 117.986118 
L 276.007633 117.986118 
z
" style="fill:#1f77b4;opacity:0.4;"/>
   </g>
   <g id="patch_64">
    <path clip-path="url(#pf6487716a5)" d="M 279.064313 27536.576706 
L 282.120996 27536.576706 
L 282.120996 108.946125 
L 279.064313 108.946125 
z
" style="fill:#1f77b4;opacity:0.4;"/>
   </g>
   <g id="patch_65">
    <path clip-path="url(#pf6487716a5)" d="M 282.120992 27536.576706 
L 285.177675 27536.576706 
L 285.177675 102.536909 
L 282.120992 102.536909 
z
" style="fill:#1f77b4;opacity:0.4;"/>
   </g>
   <g id="patch_66">
    <path clip-path="url(#pf6487716a5)" d="M 285.177675 27536.576706 
L 288.234358 27536.576706 
L 288.234358 95.9552 
L 285.177675 95.9552 
z
" style="fill:#1f77b4;opacity:0.4;"/>
   </g>
   <g id="patch_67">
    <path clip-path="url(#pf6487716a5)" d="M 288.234358 27536.576706 
L 291.291041 27536.576706 
L 291.291041 89.172191 
L 288.234358 89.172191 
z
" style="fill:#1f77b4;opacity:0.4;"/>
   </g>
   <g id="patch_68">
    <path clip-path="url(#pf6487716a5)" d="M 291.291041 27536.576706 
L 294.347724 27536.576706 
L 294.347724 83.210261 
L 291.291041 83.210261 
z
" style="fill:#1f77b4;opacity:0.4;"/>
   </g>
   <g id="patch_69">
    <path clip-path="url(#pf6487716a5)" d="M 294.34772 27536.576706 
L 297.404403 27536.576706 
L 297.404403 76.688899 
L 294.34772 76.688899 
z
" style="fill:#1f77b4;opacity:0.4;"/>
   </g>
   <g id="patch_70">
    <path clip-path="url(#pf6487716a5)" d="M 297.4044 27536.576706 
L 300.461083 27536.576706 
L 300.461083 71.158823 
L 297.4044 71.158823 
z
" style="fill:#1f77b4;opacity:0.4;"/>
   </g>
   <g id="patch_71">
    <path clip-path="url(#pf6487716a5)" d="M 300.461083 27536.576706 
L 303.517766 27536.576706 
L 303.517766 65.731249 
L 300.461083 65.731249 
z
" style="fill:#1f77b4;opacity:0.4;"/>
   </g>
   <g id="patch_72">
    <path clip-path="url(#pf6487716a5)" d="M 303.517766 27536.576706 
L 306.574449 27536.576706 
L 306.574449 60.765767 
L 303.517766 60.765767 
z
" style="fill:#1f77b4;opacity:0.4;"/>
   </g>
   <g id="patch_73">
    <path clip-path="url(#pf6487716a5)" d="M 306.574445 27536.576706 
L 309.631128 27536.576706 
L 309.631128 56.220032 
L 306.574445 56.220032 
z
" style="fill:#1f77b4;opacity:0.4;"/>
   </g>
   <g id="patch_74">
    <path clip-path="url(#pf6487716a5)" d="M 309.631128 27536.576706 
L 312.687811 27536.576706 
L 312.687811 52.329003 
L 309.631128 52.329003 
z
" style="fill:#1f77b4;opacity:0.4;"/>
   </g>
   <g id="patch_75">
    <path clip-path="url(#pf6487716a5)" d="M 312.687807 27536.576706 
L 315.744491 27536.576706 
L 315.744491 48.821281 
L 312.687807 48.821281 
z
" style="fill:#1f77b4;opacity:0.4;"/>
   </g>
   <g id="patch_76">
    <path clip-path="url(#pf6487716a5)" d="M 315.744491 27536.576706 
L 318.801174 27536.576706 
L 318.801174 45.497461 
L 315.744491 45.497461 
z
" style="fill:#1f77b4;opacity:0.4;"/>
   </g>
   <g id="patch_77">
    <path clip-path="url(#pf6487716a5)" d="M 318.80117 27536.576706 
L 321.857853 27536.576706 
L 321.857853 42.648848 
L 318.80117 42.648848 
z
" style="fill:#1f77b4;opacity:0.4;"/>
   </g>
   <g id="patch_78">
    <path clip-path="url(#pf6487716a5)" d="M 321.857853 27536.576706 
L 324.914536 27536.576706 
L 324.914536 40.221577 
L 321.857853 40.221577 
z
" style="fill:#1f77b4;opacity:0.4;"/>
   </g>
   <g id="patch_79">
    <path clip-path="url(#pf6487716a5)" d="M 324.914534 27536.576706 
L 327.971217 27536.576706 
L 327.971217 38.195924 
L 324.914534 38.195924 
z
" style="fill:#1f77b4;opacity:0.4;"/>
   </g>
   <g id="patch_80">
    <path clip-path="url(#pf6487716a5)" d="M 327.971215 27536.576706 
L 331.027898 27536.576706 
L 331.027898 36.665095 
L 327.971215 36.665095 
z
" style="fill:#1f77b4;opacity:0.4;"/>
   </g>
   <g id="patch_81">
    <path clip-path="url(#pf6487716a5)" d="M 331.027897 27536.576706 
L 334.08458 27536.576706 
L 334.08458 35.508364 
L 331.027897 35.508364 
z
" style="fill:#1f77b4;opacity:0.4;"/>
   </g>
   <g id="patch_82">
    <path clip-path="url(#pf6487716a5)" d="M 334.084579 27536.576706 
L 337.141262 27536.576706 
L 337.141262 34.708803 
L 334.084579 34.708803 
z
" style="fill:#1f77b4;opacity:0.4;"/>
   </g>
   <g id="patch_83">
    <path clip-path="url(#pf6487716a5)" d="M 337.14126 27536.576706 
L 340.197943 27536.576706 
L 340.197943 34.256364 
L 337.14126 34.256364 
z
" style="fill:#1f77b4;opacity:0.4;"/>
   </g>
   <g id="patch_84">
    <path clip-path="url(#pf6487716a5)" d="M 340.197941 27536.576706 
L 343.254624 27536.576706 
L 343.254624 34.354543 
L 340.197941 34.354543 
z
" style="fill:#1f77b4;opacity:0.4;"/>
   </g>
   <g id="patch_85">
    <path clip-path="url(#pf6487716a5)" d="M 343.254623 27536.576706 
L 346.311306 27536.576706 
L 346.311306 34.69158 
L 343.254623 34.69158 
z
" style="fill:#1f77b4;opacity:0.4;"/>
   </g>
   <g id="patch_86">
    <path clip-path="url(#pf6487716a5)" d="M 346.311304 27536.576706 
L 349.367987 27536.576706 
L 349.367987 35.577476 
L 346.311304 35.577476 
z
" style="fill:#1f77b4;opacity:0.4;"/>
   </g>
   <g id="patch_87">
    <path clip-path="url(#pf6487716a5)" d="M 349.367985 27536.576706 
L 352.424668 27536.576706 
L 352.424668 36.793031 
L 349.367985 36.793031 
z
" style="fill:#1f77b4;opacity:0.4;"/>
   </g>
   <g id="patch_88">
    <path clip-path="url(#pf6487716a5)" d="M 352.424667 27536.576706 
L 355.48135 27536.576706 
L 355.48135 38.414728 
L 352.424667 38.414728 
z
" style="fill:#1f77b4;opacity:0.4;"/>
   </g>
   <g id="patch_89">
    <path clip-path="url(#pf6487716a5)" d="M 355.481348 27536.576706 
L 358.538031 27536.576706 
L 358.538031 40.637332 
L 355.481348 40.637332 
z
" style="fill:#1f77b4;opacity:0.4;"/>
   </g>
   <g id="patch_90">
    <path clip-path="url(#pf6487716a5)" d="M 358.538031 27536.576706 
L 361.594714 27536.576706 
L 361.594714 43.059435 
L 358.538031 43.059435 
z
" style="fill:#1f77b4;opacity:0.4;"/>
   </g>
   <g id="patch_91">
    <path clip-path="url(#pf6487716a5)" d="M 361.59471 27536.576706 
L 364.651393 27536.576706 
L 364.651393 45.850005 
L 361.59471 45.850005 
z
" style="fill:#1f77b4;opacity:0.4;"/>
   </g>
   <g id="patch_92">
    <path clip-path="url(#pf6487716a5)" d="M 364.651393 27536.576706 
L 367.708076 27536.576706 
L 367.708076 49.181354 
L 364.651393 49.181354 
z
" style="fill:#1f77b4;opacity:0.4;"/>
   </g>
   <g id="patch_93">
    <path clip-path="url(#pf6487716a5)" d="M 367.708072 27536.576706 
L 370.764755 27536.576706 
L 370.764755 52.742563 
L 367.708072 52.742563 
z
" style="fill:#1f77b4;opacity:0.4;"/>
   </g>
   <g id="patch_94">
    <path clip-path="url(#pf6487716a5)" d="M 370.764755 27536.576706 
L 373.821439 27536.576706 
L 373.821439 56.824749 
L 370.764755 56.824749 
z
" style="fill:#1f77b4;opacity:0.4;"/>
   </g>
   <g id="patch_95">
    <path clip-path="url(#pf6487716a5)" d="M 373.821439 27536.576706 
L 376.878122 27536.576706 
L 376.878122 61.41663 
L 373.821439 61.41663 
z
" style="fill:#1f77b4;opacity:0.4;"/>
   </g>
   <g id="patch_96">
    <path clip-path="url(#pf6487716a5)" d="M 376.878118 27536.576706 
L 379.934801 27536.576706 
L 379.934801 66.315319 
L 376.878118 66.315319 
z
" style="fill:#1f77b4;opacity:0.4;"/>
   </g>
   <g id="patch_97">
    <path clip-path="url(#pf6487716a5)" d="M 379.934797 27536.576706 
L 382.99148 27536.576706 
L 382.99148 71.855743 
L 379.934797 71.855743 
z
" style="fill:#1f77b4;opacity:0.4;"/>
   </g>
   <g id="patch_98">
    <path clip-path="url(#pf6487716a5)" d="M 382.99148 27536.576706 
L 386.048163 27536.576706 
L 386.048163 76.879684 
L 382.99148 76.879684 
z
" style="fill:#1f77b4;opacity:0.4;"/>
   </g>
   <g id="patch_99">
    <path clip-path="url(#pf6487716a5)" d="M 386.048163 27536.576706 
L 389.104846 27536.576706 
L 389.104846 83.542608 
L 386.048163 83.542608 
z
" style="fill:#1f77b4;opacity:0.4;"/>
   </g>
   <g id="patch_100">
    <path clip-path="url(#pf6487716a5)" d="M 389.104846 27536.576706 
L 392.161529 27536.576706 
L 392.161529 90.181823 
L 389.104846 90.181823 
z
" style="fill:#1f77b4;opacity:0.4;"/>
   </g>
   <g id="patch_101">
    <path clip-path="url(#pf6487716a5)" d="M 392.161526 27536.576706 
L 395.218209 27536.576706 
L 395.218209 96.642648 
L 392.161526 96.642648 
z
" style="fill:#1f77b4;opacity:0.4;"/>
   </g>
   <g id="patch_102">
    <path clip-path="url(#pf6487716a5)" d="M 395.218205 27536.576706 
L 398.274888 27536.576706 
L 398.274888 104.275545 
L 395.218205 104.275545 
z
" style="fill:#1f77b4;opacity:0.4;"/>
   </g>
   <g id="patch_103">
    <path clip-path="url(#pf6487716a5)" d="M 398.274888 27536.576706 
L 401.331571 27536.576706 
L 401.331571 112.567132 
L 398.274888 112.567132 
z
" style="fill:#1f77b4;opacity:0.4;"/>
   </g>
   <g id="patch_104">
    <path clip-path="url(#pf6487716a5)" d="M 401.331571 27536.576706 
L 404.388254 27536.576706 
L 404.388254 118.173185 
L 401.331571 118.173185 
z
" style="fill:#1f77b4;opacity:0.4;"/>
   </g>
   <g id="patch_105">
    <path clip-path="url(#pf6487716a5)" d="M 404.388262 27536.576706 
L 407.444937 27536.576706 
L 407.444937 128.237012 
L 404.388262 128.237012 
z
" style="fill:#1f77b4;opacity:0.4;"/>
   </g>
   <g id="patch_106">
    <path clip-path="url(#pf6487716a5)" d="M 407.44493 27536.576706 
L 410.501613 27536.576706 
L 410.501613 137.868937 
L 407.44493 137.868937 
z
" style="fill:#1f77b4;opacity:0.4;"/>
   </g>
   <g id="patch_107">
    <path clip-path="url(#pf6487716a5)" d="M 410.501613 27536.576706 
L 413.558296 27536.576706 
L 413.558296 142.684884 
L 410.501613 142.684884 
z
" style="fill:#1f77b4;opacity:0.4;"/>
   </g>
   <g id="patch_108">
    <path clip-path="url(#pf6487716a5)" d="M 260.724211 27536.576706 
L 263.780894 27536.576706 
L 263.780894 167.383636 
L 260.724211 167.383636 
z
" style="fill:#ff7f0e;opacity:0.4;"/>
   </g>
   <g id="patch_109">
    <path clip-path="url(#pf6487716a5)" d="M 263.780894 27536.576706 
L 266.837577 27536.576706 
L 266.837577 154.334771 
L 263.780894 154.334771 
z
" style="fill:#ff7f0e;opacity:0.4;"/>
   </g>
   <g id="patch_110">
    <path clip-path="url(#pf6487716a5)" d="M 266.837584 27536.576706 
L 269.89426 27536.576706 
L 269.89426 148.267365 
L 266.837584 148.267365 
z
" style="fill:#ff7f0e;opacity:0.4;"/>
   </g>
   <g id="patch_111">
    <path clip-path="url(#pf6487716a5)" d="M 269.894252 27536.576706 
L 272.950935 27536.576706 
L 272.950935 135.218529 
L 269.894252 135.218529 
z
" style="fill:#ff7f0e;opacity:0.4;"/>
   </g>
   <g id="patch_112">
    <path clip-path="url(#pf6487716a5)" d="M 272.950935 27536.576706 
L 276.007618 27536.576706 
L 276.007618 126.596148 
L 272.950935 126.596148 
z
" style="fill:#ff7f0e;opacity:0.4;"/>
   </g>
   <g id="patch_113">
    <path clip-path="url(#pf6487716a5)" d="M 276.007618 27536.576706 
L 279.064301 27536.576706 
L 279.064301 117.986118 
L 276.007618 117.986118 
z
" style="fill:#ff7f0e;opacity:0.4;"/>
   </g>
   <g id="patch_114">
    <path clip-path="url(#pf6487716a5)" d="M 279.064298 27536.576706 
L 282.120981 27536.576706 
L 282.120981 108.946125 
L 279.064298 108.946125 
z
" style="fill:#ff7f0e;opacity:0.4;"/>
   </g>
   <g id="patch_115">
    <path clip-path="url(#pf6487716a5)" d="M 282.120977 27536.576706 
L 285.17766 27536.576706 
L 285.17766 102.536909 
L 282.120977 102.536909 
z
" style="fill:#ff7f0e;opacity:0.4;"/>
   </g>
   <g id="patch_116">
    <path clip-path="url(#pf6487716a5)" d="M 285.17766 27536.576706 
L 288.234343 27536.576706 
L 288.234343 95.9552 
L 285.17766 95.9552 
z
" style="fill:#ff7f0e;opacity:0.4;"/>
   </g>
   <g id="patch_117">
    <path clip-path="url(#pf6487716a5)" d="M 288.234343 27536.576706 
L 291.291026 27536.576706 
L 291.291026 89.172191 
L 288.234343 89.172191 
z
" style="fill:#ff7f0e;opacity:0.4;"/>
   </g>
   <g id="patch_118">
    <path clip-path="url(#pf6487716a5)" d="M 291.291026 27536.576706 
L 294.347709 27536.576706 
L 294.347709 83.210261 
L 291.291026 83.210261 
z
" style="fill:#ff7f0e;opacity:0.4;"/>
   </g>
   <g id="patch_119">
    <path clip-path="url(#pf6487716a5)" d="M 294.347705 27536.576706 
L 297.404388 27536.576706 
L 297.404388 76.688899 
L 294.347705 76.688899 
z
" style="fill:#ff7f0e;opacity:0.4;"/>
   </g>
   <g id="patch_120">
    <path clip-path="url(#pf6487716a5)" d="M 297.404385 27536.576706 
L 300.461068 27536.576706 
L 300.461068 71.158823 
L 297.404385 71.158823 
z
" style="fill:#ff7f0e;opacity:0.4;"/>
   </g>
   <g id="patch_121">
    <path clip-path="url(#pf6487716a5)" d="M 300.461068 27536.576706 
L 303.517751 27536.576706 
L 303.517751 65.731249 
L 300.461068 65.731249 
z
" style="fill:#ff7f0e;opacity:0.4;"/>
   </g>
   <g id="patch_122">
    <path clip-path="url(#pf6487716a5)" d="M 303.517751 27536.576706 
L 306.574434 27536.576706 
L 306.574434 60.765767 
L 303.517751 60.765767 
z
" style="fill:#ff7f0e;opacity:0.4;"/>
   </g>
   <g id="patch_123">
    <path clip-path="url(#pf6487716a5)" d="M 306.57443 27536.576706 
L 309.631113 27536.576706 
L 309.631113 56.220032 
L 306.57443 56.220032 
z
" style="fill:#ff7f0e;opacity:0.4;"/>
   </g>
   <g id="patch_124">
    <path clip-path="url(#pf6487716a5)" d="M 309.631113 27536.576706 
L 312.687796 27536.576706 
L 312.687796 52.329003 
L 309.631113 52.329003 
z
" style="fill:#ff7f0e;opacity:0.4;"/>
   </g>
   <g id="patch_125">
    <path clip-path="url(#pf6487716a5)" d="M 312.687792 27536.576706 
L 315.744475 27536.576706 
L 315.744475 48.821281 
L 312.687792 48.821281 
z
" style="fill:#ff7f0e;opacity:0.4;"/>
   </g>
   <g id="patch_126">
    <path clip-path="url(#pf6487716a5)" d="M 315.744475 27536.576706 
L 318.801159 27536.576706 
L 318.801159 45.497461 
L 315.744475 45.497461 
z
" style="fill:#ff7f0e;opacity:0.4;"/>
   </g>
   <g id="patch_127">
    <path clip-path="url(#pf6487716a5)" d="M 318.801155 27536.576706 
L 321.857838 27536.576706 
L 321.857838 42.648848 
L 318.801155 42.648848 
z
" style="fill:#ff7f0e;opacity:0.4;"/>
   </g>
   <g id="patch_128">
    <path clip-path="url(#pf6487716a5)" d="M 321.857838 27536.576706 
L 324.914521 27536.576706 
L 324.914521 40.221577 
L 321.857838 40.221577 
z
" style="fill:#ff7f0e;opacity:0.4;"/>
   </g>
   <g id="patch_129">
    <path clip-path="url(#pf6487716a5)" d="M 324.914519 27536.576706 
L 327.971202 27536.576706 
L 327.971202 38.195924 
L 324.914519 38.195924 
z
" style="fill:#ff7f0e;opacity:0.4;"/>
   </g>
   <g id="patch_130">
    <path clip-path="url(#pf6487716a5)" d="M 327.9712 27536.576706 
L 331.027883 27536.576706 
L 331.027883 36.665095 
L 327.9712 36.665095 
z
" style="fill:#ff7f0e;opacity:0.4;"/>
   </g>
   <g id="patch_131">
    <path clip-path="url(#pf6487716a5)" d="M 331.027882 27536.576706 
L 334.084565 27536.576706 
L 334.084565 35.508543 
L 331.027882 35.508543 
z
" style="fill:#ff7f0e;opacity:0.4;"/>
   </g>
   <g id="patch_132">
    <path clip-path="url(#pf6487716a5)" d="M 334.084564 27536.576706 
L 337.141247 27536.576706 
L 337.141247 34.708636 
L 334.084564 34.708636 
z
" style="fill:#ff7f0e;opacity:0.4;"/>
   </g>
   <g id="patch_133">
    <path clip-path="url(#pf6487716a5)" d="M 337.141245 27536.576706 
L 340.197928 27536.576706 
L 340.197928 34.256364 
L 337.141245 34.256364 
z
" style="fill:#ff7f0e;opacity:0.4;"/>
   </g>
   <g id="patch_134">
    <path clip-path="url(#pf6487716a5)" d="M 340.197926 27536.576706 
L 343.254609 27536.576706 
L 343.254609 34.354543 
L 340.197926 34.354543 
z
" style="fill:#ff7f0e;opacity:0.4;"/>
   </g>
   <g id="patch_135">
    <path clip-path="url(#pf6487716a5)" d="M 343.254608 27536.576706 
L 346.311291 27536.576706 
L 346.311291 34.691915 
L 343.254608 34.691915 
z
" style="fill:#ff7f0e;opacity:0.4;"/>
   </g>
   <g id="patch_136">
    <path clip-path="url(#pf6487716a5)" d="M 346.311289 27536.576706 
L 349.367972 27536.576706 
L 349.367972 35.577116 
L 346.311289 35.577116 
z
" style="fill:#ff7f0e;opacity:0.4;"/>
   </g>
   <g id="patch_137">
    <path clip-path="url(#pf6487716a5)" d="M 349.36797 27536.576706 
L 352.424653 27536.576706 
L 352.424653 36.793231 
L 349.36797 36.793231 
z
" style="fill:#ff7f0e;opacity:0.4;"/>
   </g>
   <g id="patch_138">
    <path clip-path="url(#pf6487716a5)" d="M 352.424652 27536.576706 
L 355.481335 27536.576706 
L 355.481335 38.414728 
L 352.424652 38.414728 
z
" style="fill:#ff7f0e;opacity:0.4;"/>
   </g>
   <g id="patch_139">
    <path clip-path="url(#pf6487716a5)" d="M 355.481333 27536.576706 
L 358.538016 27536.576706 
L 358.538016 40.637056 
L 355.481333 40.637056 
z
" style="fill:#ff7f0e;opacity:0.4;"/>
   </g>
   <g id="patch_140">
    <path clip-path="url(#pf6487716a5)" d="M 358.538016 27536.576706 
L 361.594699 27536.576706 
L 361.594699 43.059435 
L 358.538016 43.059435 
z
" style="fill:#ff7f0e;opacity:0.4;"/>
   </g>
   <g id="patch_141">
    <path clip-path="url(#pf6487716a5)" d="M 361.594695 27536.576706 
L 364.651378 27536.576706 
L 364.651378 45.850005 
L 361.594695 45.850005 
z
" style="fill:#ff7f0e;opacity:0.4;"/>
   </g>
   <g id="patch_142">
    <path clip-path="url(#pf6487716a5)" d="M 364.651378 27536.576706 
L 367.708061 27536.576706 
L 367.708061 49.181354 
L 364.651378 49.181354 
z
" style="fill:#ff7f0e;opacity:0.4;"/>
   </g>
   <g id="patch_143">
    <path clip-path="url(#pf6487716a5)" d="M 367.708057 27536.576706 
L 370.76474 27536.576706 
L 370.76474 52.742563 
L 367.708057 52.742563 
z
" style="fill:#ff7f0e;opacity:0.4;"/>
   </g>
   <g id="patch_144">
    <path clip-path="url(#pf6487716a5)" d="M 370.76474 27536.576706 
L 373.821424 27536.576706 
L 373.821424 56.824749 
L 370.76474 56.824749 
z
" style="fill:#ff7f0e;opacity:0.4;"/>
   </g>
   <g id="patch_145">
    <path clip-path="url(#pf6487716a5)" d="M 373.821424 27536.576706 
L 376.878107 27536.576706 
L 376.878107 61.41663 
L 373.821424 61.41663 
z
" style="fill:#ff7f0e;opacity:0.4;"/>
   </g>
   <g id="patch_146">
    <path clip-path="url(#pf6487716a5)" d="M 376.878103 27536.576706 
L 379.934786 27536.576706 
L 379.934786 66.315319 
L 376.878103 66.315319 
z
" style="fill:#ff7f0e;opacity:0.4;"/>
   </g>
   <g id="patch_147">
    <path clip-path="url(#pf6487716a5)" d="M 379.934782 27536.576706 
L 382.991465 27536.576706 
L 382.991465 71.855743 
L 379.934782 71.855743 
z
" style="fill:#ff7f0e;opacity:0.4;"/>
   </g>
   <g id="patch_148">
    <path clip-path="url(#pf6487716a5)" d="M 382.991465 27536.576706 
L 386.048148 27536.576706 
L 386.048148 76.879684 
L 382.991465 76.879684 
z
" style="fill:#ff7f0e;opacity:0.4;"/>
   </g>
   <g id="patch_149">
    <path clip-path="url(#pf6487716a5)" d="M 386.048148 27536.576706 
L 389.104831 27536.576706 
L 389.104831 83.542608 
L 386.048148 83.542608 
z
" style="fill:#ff7f0e;opacity:0.4;"/>
   </g>
   <g id="patch_150">
    <path clip-path="url(#pf6487716a5)" d="M 389.104831 27536.576706 
L 392.161514 27536.576706 
L 392.161514 90.181823 
L 389.104831 90.181823 
z
" style="fill:#ff7f0e;opacity:0.4;"/>
   </g>
   <g id="patch_151">
    <path clip-path="url(#pf6487716a5)" d="M 392.161511 27536.576706 
L 395.218194 27536.576706 
L 395.218194 96.642648 
L 392.161511 96.642648 
z
" style="fill:#ff7f0e;opacity:0.4;"/>
   </g>
   <g id="patch_152">
    <path clip-path="url(#pf6487716a5)" d="M 395.21819 27536.576706 
L 398.274873 27536.576706 
L 398.274873 104.275545 
L 395.21819 104.275545 
z
" style="fill:#ff7f0e;opacity:0.4;"/>
   </g>
   <g id="patch_153">
    <path clip-path="url(#pf6487716a5)" d="M 398.274873 27536.576706 
L 401.331556 27536.576706 
L 401.331556 112.567132 
L 398.274873 112.567132 
z
" style="fill:#ff7f0e;opacity:0.4;"/>
   </g>
   <g id="patch_154">
    <path clip-path="url(#pf6487716a5)" d="M 401.331556 27536.576706 
L 404.388239 27536.576706 
L 404.388239 118.173185 
L 401.331556 118.173185 
z
" style="fill:#ff7f0e;opacity:0.4;"/>
   </g>
   <g id="patch_155">
    <path clip-path="url(#pf6487716a5)" d="M 404.388247 27536.576706 
L 407.444922 27536.576706 
L 407.444922 128.237012 
L 404.388247 128.237012 
z
" style="fill:#ff7f0e;opacity:0.4;"/>
   </g>
   <g id="patch_156">
    <path clip-path="url(#pf6487716a5)" d="M 407.444915 27536.576706 
L 410.501598 27536.576706 
L 410.501598 137.868937 
L 407.444915 137.868937 
z
" style="fill:#ff7f0e;opacity:0.4;"/>
   </g>
   <g id="patch_157">
    <path clip-path="url(#pf6487716a5)" d="M 410.501598 27536.576706 
L 413.558281 27536.576706 
L 413.558281 142.684884 
L 410.501598 142.684884 
z
" style="fill:#ff7f0e;opacity:0.4;"/>
   </g>
   <g id="matplotlib.axis_3">
    <g id="xtick_6">
     <g id="line2d_50">
      <g>
       <use style="stroke:#000000;stroke-width:0.8;" x="257.459539" xlink:href="#mdaaf47cbbf" y="174.04"/>
      </g>
     </g>
     <g id="text_13">
      <!-- −0.0000050 -->
      <defs>
       <path d="M 10.6875 12.40625 
L 21 12.40625 
L 21 0 
L 10.6875 0 
z
" id="DejaVuSans-46"/>
      </defs>
      <g transform="translate(226.230633 188.638438)scale(0.1 -0.1)">
       <use xlink:href="#DejaVuSans-8722"/>
       <use x="83.789062" xlink:href="#DejaVuSans-48"/>
       <use x="147.412109" xlink:href="#DejaVuSans-46"/>
       <use x="179.199219" xlink:href="#DejaVuSans-48"/>
       <use x="242.822266" xlink:href="#DejaVuSans-48"/>
       <use x="306.445312" xlink:href="#DejaVuSans-48"/>
       <use x="370.068359" xlink:href="#DejaVuSans-48"/>
       <use x="433.691406" xlink:href="#DejaVuSans-48"/>
       <use x="497.314453" xlink:href="#DejaVuSans-53"/>
       <use x="560.9375" xlink:href="#DejaVuSans-48"/>
      </g>
     </g>
    </g>
    <g id="xtick_7">
     <g id="line2d_51">
      <g>
       <use style="stroke:#000000;stroke-width:0.8;" x="298.736572" xlink:href="#mdaaf47cbbf" y="174.04"/>
      </g>
     </g>
     <g id="text_14">
      <!-- −0.0000025 -->
      <g transform="translate(267.507666 188.638438)scale(0.1 -0.1)">
       <use xlink:href="#DejaVuSans-8722"/>
       <use x="83.789062" xlink:href="#DejaVuSans-48"/>
       <use x="147.412109" xlink:href="#DejaVuSans-46"/>
       <use x="179.199219" xlink:href="#DejaVuSans-48"/>
       <use x="242.822266" xlink:href="#DejaVuSans-48"/>
       <use x="306.445312" xlink:href="#DejaVuSans-48"/>
       <use x="370.068359" xlink:href="#DejaVuSans-48"/>
       <use x="433.691406" xlink:href="#DejaVuSans-48"/>
       <use x="497.314453" xlink:href="#DejaVuSans-50"/>
       <use x="560.9375" xlink:href="#DejaVuSans-53"/>
      </g>
     </g>
    </g>
    <g id="xtick_8">
     <g id="line2d_52">
      <g>
       <use style="stroke:#000000;stroke-width:0.8;" x="340.013605" xlink:href="#mdaaf47cbbf" y="174.04"/>
      </g>
     </g>
     <g id="text_15">
      <!-- 0.0000000 -->
      <g transform="translate(312.974542 188.638438)scale(0.1 -0.1)">
       <use xlink:href="#DejaVuSans-48"/>
       <use x="63.623047" xlink:href="#DejaVuSans-46"/>
       <use x="95.410156" xlink:href="#DejaVuSans-48"/>
       <use x="159.033203" xlink:href="#DejaVuSans-48"/>
       <use x="222.65625" xlink:href="#DejaVuSans-48"/>
       <use x="286.279297" xlink:href="#DejaVuSans-48"/>
       <use x="349.902344" xlink:href="#DejaVuSans-48"/>
       <use x="413.525391" xlink:href="#DejaVuSans-48"/>
       <use x="477.148438" xlink:href="#DejaVuSans-48"/>
      </g>
     </g>
    </g>
    <g id="xtick_9">
     <g id="line2d_53">
      <g>
       <use style="stroke:#000000;stroke-width:0.8;" x="381.290638" xlink:href="#mdaaf47cbbf" y="174.04"/>
      </g>
     </g>
     <g id="text_16">
      <!-- 0.0000025 -->
      <g transform="translate(354.251575 188.638438)scale(0.1 -0.1)">
       <use xlink:href="#DejaVuSans-48"/>
       <use x="63.623047" xlink:href="#DejaVuSans-46"/>
       <use x="95.410156" xlink:href="#DejaVuSans-48"/>
       <use x="159.033203" xlink:href="#DejaVuSans-48"/>
       <use x="222.65625" xlink:href="#DejaVuSans-48"/>
       <use x="286.279297" xlink:href="#DejaVuSans-48"/>
       <use x="349.902344" xlink:href="#DejaVuSans-48"/>
       <use x="413.525391" xlink:href="#DejaVuSans-50"/>
       <use x="477.148438" xlink:href="#DejaVuSans-53"/>
      </g>
     </g>
    </g>
    <g id="text_17">
     <!-- theta -->
     <defs>
      <path d="M 54.890625 33.015625 
L 54.890625 0 
L 45.90625 0 
L 45.90625 32.71875 
Q 45.90625 40.484375 42.875 44.328125 
Q 39.84375 48.1875 33.796875 48.1875 
Q 26.515625 48.1875 22.3125 43.546875 
Q 18.109375 38.921875 18.109375 30.90625 
L 18.109375 0 
L 9.078125 0 
L 9.078125 75.984375 
L 18.109375 75.984375 
L 18.109375 46.1875 
Q 21.34375 51.125 25.703125 53.5625 
Q 30.078125 56 35.796875 56 
Q 45.21875 56 50.046875 50.171875 
Q 54.890625 44.34375 54.890625 33.015625 
z
" id="DejaVuSans-104"/>
     </defs>
     <g transform="translate(323.911566 202.316563)scale(0.1 -0.1)">
      <use xlink:href="#DejaVuSans-116"/>
      <use x="39.208984" xlink:href="#DejaVuSans-104"/>
      <use x="102.587891" xlink:href="#DejaVuSans-101"/>
      <use x="164.111328" xlink:href="#DejaVuSans-116"/>
      <use x="203.320312" xlink:href="#DejaVuSans-97"/>
     </g>
    </g>
   </g>
   <g id="matplotlib.axis_4">
    <g id="ytick_45">
     <g id="line2d_54">
      <g>
       <use style="stroke:#000000;stroke-width:0.8;" x="253.082506" xlink:href="#m08351a96c8" y="160.06823"/>
      </g>
     </g>
     <g id="text_18">
      <!-- $\mathdefault{10^{1}}$ -->
      <g transform="translate(228.482506 163.867449)scale(0.1 -0.1)">
       <use transform="translate(0 0.684375)" xlink:href="#DejaVuSans-49"/>
       <use transform="translate(63.623047 0.684375)" xlink:href="#DejaVuSans-48"/>
       <use transform="translate(128.203125 38.965625)scale(0.7)" xlink:href="#DejaVuSans-49"/>
      </g>
     </g>
    </g>
    <g id="ytick_46">
     <g id="line2d_55">
      <g>
       <use style="stroke:#000000;stroke-width:0.8;" x="253.082506" xlink:href="#m08351a96c8" y="132.719071"/>
      </g>
     </g>
     <g id="text_19">
      <!-- $\mathdefault{10^{2}}$ -->
      <g transform="translate(228.482506 136.518289)scale(0.1 -0.1)">
       <use transform="translate(0 0.765625)" xlink:href="#DejaVuSans-49"/>
       <use transform="translate(63.623047 0.765625)" xlink:href="#DejaVuSans-48"/>
       <use transform="translate(128.203125 39.046875)scale(0.7)" xlink:href="#DejaVuSans-50"/>
      </g>
     </g>
    </g>
    <g id="ytick_47">
     <g id="line2d_56">
      <g>
       <use style="stroke:#000000;stroke-width:0.8;" x="253.082506" xlink:href="#m08351a96c8" y="105.369911"/>
      </g>
     </g>
     <g id="text_20">
      <!-- $\mathdefault{10^{3}}$ -->
      <g transform="translate(228.482506 109.16913)scale(0.1 -0.1)">
       <use transform="translate(0 0.765625)" xlink:href="#DejaVuSans-49"/>
       <use transform="translate(63.623047 0.765625)" xlink:href="#DejaVuSans-48"/>
       <use transform="translate(128.203125 39.046875)scale(0.7)" xlink:href="#DejaVuSans-51"/>
      </g>
     </g>
    </g>
    <g id="ytick_48">
     <g id="line2d_57">
      <g>
       <use style="stroke:#000000;stroke-width:0.8;" x="253.082506" xlink:href="#m08351a96c8" y="78.020752"/>
      </g>
     </g>
     <g id="text_21">
      <!-- $\mathdefault{10^{4}}$ -->
      <g transform="translate(228.482506 81.819971)scale(0.1 -0.1)">
       <use transform="translate(0 0.684375)" xlink:href="#DejaVuSans-49"/>
       <use transform="translate(63.623047 0.684375)" xlink:href="#DejaVuSans-48"/>
       <use transform="translate(128.203125 38.965625)scale(0.7)" xlink:href="#DejaVuSans-52"/>
      </g>
     </g>
    </g>
    <g id="ytick_49">
     <g id="line2d_58">
      <g>
       <use style="stroke:#000000;stroke-width:0.8;" x="253.082506" xlink:href="#m08351a96c8" y="50.671593"/>
      </g>
     </g>
     <g id="text_22">
      <!-- $\mathdefault{10^{5}}$ -->
      <g transform="translate(228.482506 54.470811)scale(0.1 -0.1)">
       <use transform="translate(0 0.684375)" xlink:href="#DejaVuSans-49"/>
       <use transform="translate(63.623047 0.684375)" xlink:href="#DejaVuSans-48"/>
       <use transform="translate(128.203125 38.965625)scale(0.7)" xlink:href="#DejaVuSans-53"/>
      </g>
     </g>
    </g>
    <g id="ytick_50">
     <g id="line2d_59">
      <g>
       <use style="stroke:#000000;stroke-width:0.6;" x="253.082506" xlink:href="#m71d7ce9fc9" y="170.951555"/>
      </g>
     </g>
    </g>
    <g id="ytick_51">
     <g id="line2d_60">
      <g>
       <use style="stroke:#000000;stroke-width:0.6;" x="253.082506" xlink:href="#m71d7ce9fc9" y="168.301147"/>
      </g>
     </g>
    </g>
    <g id="ytick_52">
     <g id="line2d_61">
      <g>
       <use style="stroke:#000000;stroke-width:0.6;" x="253.082506" xlink:href="#m71d7ce9fc9" y="166.135607"/>
      </g>
     </g>
    </g>
    <g id="ytick_53">
     <g id="line2d_62">
      <g>
       <use style="stroke:#000000;stroke-width:0.6;" x="253.082506" xlink:href="#m71d7ce9fc9" y="164.304668"/>
      </g>
     </g>
    </g>
    <g id="ytick_54">
     <g id="line2d_63">
      <g>
       <use style="stroke:#000000;stroke-width:0.6;" x="253.082506" xlink:href="#m71d7ce9fc9" y="162.718637"/>
      </g>
     </g>
    </g>
    <g id="ytick_55">
     <g id="line2d_64">
      <g>
       <use style="stroke:#000000;stroke-width:0.6;" x="253.082506" xlink:href="#m71d7ce9fc9" y="161.319659"/>
      </g>
     </g>
    </g>
    <g id="ytick_56">
     <g id="line2d_65">
      <g>
       <use style="stroke:#000000;stroke-width:0.6;" x="253.082506" xlink:href="#m71d7ce9fc9" y="151.835313"/>
      </g>
     </g>
    </g>
    <g id="ytick_57">
     <g id="line2d_66">
      <g>
       <use style="stroke:#000000;stroke-width:0.6;" x="253.082506" xlink:href="#m71d7ce9fc9" y="147.019365"/>
      </g>
     </g>
    </g>
    <g id="ytick_58">
     <g id="line2d_67">
      <g>
       <use style="stroke:#000000;stroke-width:0.6;" x="253.082506" xlink:href="#m71d7ce9fc9" y="143.602395"/>
      </g>
     </g>
    </g>
    <g id="ytick_59">
     <g id="line2d_68">
      <g>
       <use style="stroke:#000000;stroke-width:0.6;" x="253.082506" xlink:href="#m71d7ce9fc9" y="140.951988"/>
      </g>
     </g>
    </g>
    <g id="ytick_60">
     <g id="line2d_69">
      <g>
       <use style="stroke:#000000;stroke-width:0.6;" x="253.082506" xlink:href="#m71d7ce9fc9" y="138.786447"/>
      </g>
     </g>
    </g>
    <g id="ytick_61">
     <g id="line2d_70">
      <g>
       <use style="stroke:#000000;stroke-width:0.6;" x="253.082506" xlink:href="#m71d7ce9fc9" y="136.955509"/>
      </g>
     </g>
    </g>
    <g id="ytick_62">
     <g id="line2d_71">
      <g>
       <use style="stroke:#000000;stroke-width:0.6;" x="253.082506" xlink:href="#m71d7ce9fc9" y="135.369478"/>
      </g>
     </g>
    </g>
    <g id="ytick_63">
     <g id="line2d_72">
      <g>
       <use style="stroke:#000000;stroke-width:0.6;" x="253.082506" xlink:href="#m71d7ce9fc9" y="133.9705"/>
      </g>
     </g>
    </g>
    <g id="ytick_64">
     <g id="line2d_73">
      <g>
       <use style="stroke:#000000;stroke-width:0.6;" x="253.082506" xlink:href="#m71d7ce9fc9" y="124.486153"/>
      </g>
     </g>
    </g>
    <g id="ytick_65">
     <g id="line2d_74">
      <g>
       <use style="stroke:#000000;stroke-width:0.6;" x="253.082506" xlink:href="#m71d7ce9fc9" y="119.670205"/>
      </g>
     </g>
    </g>
    <g id="ytick_66">
     <g id="line2d_75">
      <g>
       <use style="stroke:#000000;stroke-width:0.6;" x="253.082506" xlink:href="#m71d7ce9fc9" y="116.253236"/>
      </g>
     </g>
    </g>
    <g id="ytick_67">
     <g id="line2d_76">
      <g>
       <use style="stroke:#000000;stroke-width:0.6;" x="253.082506" xlink:href="#m71d7ce9fc9" y="113.602829"/>
      </g>
     </g>
    </g>
    <g id="ytick_68">
     <g id="line2d_77">
      <g>
       <use style="stroke:#000000;stroke-width:0.6;" x="253.082506" xlink:href="#m71d7ce9fc9" y="111.437288"/>
      </g>
     </g>
    </g>
    <g id="ytick_69">
     <g id="line2d_78">
      <g>
       <use style="stroke:#000000;stroke-width:0.6;" x="253.082506" xlink:href="#m71d7ce9fc9" y="109.60635"/>
      </g>
     </g>
    </g>
    <g id="ytick_70">
     <g id="line2d_79">
      <g>
       <use style="stroke:#000000;stroke-width:0.6;" x="253.082506" xlink:href="#m71d7ce9fc9" y="108.020319"/>
      </g>
     </g>
    </g>
    <g id="ytick_71">
     <g id="line2d_80">
      <g>
       <use style="stroke:#000000;stroke-width:0.6;" x="253.082506" xlink:href="#m71d7ce9fc9" y="106.62134"/>
      </g>
     </g>
    </g>
    <g id="ytick_72">
     <g id="line2d_81">
      <g>
       <use style="stroke:#000000;stroke-width:0.6;" x="253.082506" xlink:href="#m71d7ce9fc9" y="97.136994"/>
      </g>
     </g>
    </g>
    <g id="ytick_73">
     <g id="line2d_82">
      <g>
       <use style="stroke:#000000;stroke-width:0.6;" x="253.082506" xlink:href="#m71d7ce9fc9" y="92.321046"/>
      </g>
     </g>
    </g>
    <g id="ytick_74">
     <g id="line2d_83">
      <g>
       <use style="stroke:#000000;stroke-width:0.6;" x="253.082506" xlink:href="#m71d7ce9fc9" y="88.904077"/>
      </g>
     </g>
    </g>
    <g id="ytick_75">
     <g id="line2d_84">
      <g>
       <use style="stroke:#000000;stroke-width:0.6;" x="253.082506" xlink:href="#m71d7ce9fc9" y="86.253669"/>
      </g>
     </g>
    </g>
    <g id="ytick_76">
     <g id="line2d_85">
      <g>
       <use style="stroke:#000000;stroke-width:0.6;" x="253.082506" xlink:href="#m71d7ce9fc9" y="84.088129"/>
      </g>
     </g>
    </g>
    <g id="ytick_77">
     <g id="line2d_86">
      <g>
       <use style="stroke:#000000;stroke-width:0.6;" x="253.082506" xlink:href="#m71d7ce9fc9" y="82.25719"/>
      </g>
     </g>
    </g>
    <g id="ytick_78">
     <g id="line2d_87">
      <g>
       <use style="stroke:#000000;stroke-width:0.6;" x="253.082506" xlink:href="#m71d7ce9fc9" y="80.671159"/>
      </g>
     </g>
    </g>
    <g id="ytick_79">
     <g id="line2d_88">
      <g>
       <use style="stroke:#000000;stroke-width:0.6;" x="253.082506" xlink:href="#m71d7ce9fc9" y="79.272181"/>
      </g>
     </g>
    </g>
    <g id="ytick_80">
     <g id="line2d_89">
      <g>
       <use style="stroke:#000000;stroke-width:0.6;" x="253.082506" xlink:href="#m71d7ce9fc9" y="69.787835"/>
      </g>
     </g>
    </g>
    <g id="ytick_81">
     <g id="line2d_90">
      <g>
       <use style="stroke:#000000;stroke-width:0.6;" x="253.082506" xlink:href="#m71d7ce9fc9" y="64.971887"/>
      </g>
     </g>
    </g>
    <g id="ytick_82">
     <g id="line2d_91">
      <g>
       <use style="stroke:#000000;stroke-width:0.6;" x="253.082506" xlink:href="#m71d7ce9fc9" y="61.554917"/>
      </g>
     </g>
    </g>
    <g id="ytick_83">
     <g id="line2d_92">
      <g>
       <use style="stroke:#000000;stroke-width:0.6;" x="253.082506" xlink:href="#m71d7ce9fc9" y="58.90451"/>
      </g>
     </g>
    </g>
    <g id="ytick_84">
     <g id="line2d_93">
      <g>
       <use style="stroke:#000000;stroke-width:0.6;" x="253.082506" xlink:href="#m71d7ce9fc9" y="56.738969"/>
      </g>
     </g>
    </g>
    <g id="ytick_85">
     <g id="line2d_94">
      <g>
       <use style="stroke:#000000;stroke-width:0.6;" x="253.082506" xlink:href="#m71d7ce9fc9" y="54.908031"/>
      </g>
     </g>
    </g>
    <g id="ytick_86">
     <g id="line2d_95">
      <g>
       <use style="stroke:#000000;stroke-width:0.6;" x="253.082506" xlink:href="#m71d7ce9fc9" y="53.322"/>
      </g>
     </g>
    </g>
    <g id="ytick_87">
     <g id="line2d_96">
      <g>
       <use style="stroke:#000000;stroke-width:0.6;" x="253.082506" xlink:href="#m71d7ce9fc9" y="51.923022"/>
      </g>
     </g>
    </g>
    <g id="ytick_88">
     <g id="line2d_97">
      <g>
       <use style="stroke:#000000;stroke-width:0.6;" x="253.082506" xlink:href="#m71d7ce9fc9" y="42.438675"/>
      </g>
     </g>
    </g>
    <g id="ytick_89">
     <g id="line2d_98">
      <g>
       <use style="stroke:#000000;stroke-width:0.6;" x="253.082506" xlink:href="#m71d7ce9fc9" y="37.622727"/>
      </g>
     </g>
    </g>
    <g id="ytick_90">
     <g id="line2d_99">
      <g>
       <use style="stroke:#000000;stroke-width:0.6;" x="253.082506" xlink:href="#m71d7ce9fc9" y="34.205758"/>
      </g>
     </g>
    </g>
    <g id="ytick_91">
     <g id="line2d_100">
      <g>
       <use style="stroke:#000000;stroke-width:0.6;" x="253.082506" xlink:href="#m71d7ce9fc9" y="31.555351"/>
      </g>
     </g>
    </g>
    <g id="ytick_92">
     <g id="line2d_101">
      <g>
       <use style="stroke:#000000;stroke-width:0.6;" x="253.082506" xlink:href="#m71d7ce9fc9" y="29.38981"/>
      </g>
     </g>
    </g>
   </g>
   <g id="patch_158">
    <path d="M 253.082506 174.04 
L 253.082506 27.6 
" style="fill:none;stroke:#000000;stroke-linecap:square;stroke-linejoin:miter;stroke-width:0.8;"/>
   </g>
   <g id="patch_159">
    <path d="M 421.2 174.04 
L 421.2 27.6 
" style="fill:none;stroke:#000000;stroke-linecap:square;stroke-linejoin:miter;stroke-width:0.8;"/>
   </g>
   <g id="patch_160">
    <path d="M 253.082506 174.04 
L 421.2 174.04 
" style="fill:none;stroke:#000000;stroke-linecap:square;stroke-linejoin:miter;stroke-width:0.8;"/>
   </g>
   <g id="patch_161">
    <path d="M 253.082506 27.6 
L 421.2 27.6 
" style="fill:none;stroke:#000000;stroke-linecap:square;stroke-linejoin:miter;stroke-width:0.8;"/>
   </g>
  </g>
 </g>
 <defs>
  <clipPath id="p0f08819847">
   <rect height="146.44" width="168.117494" x="41.935346" y="27.6"/>
  </clipPath>
  <clipPath id="pf6487716a5">
   <rect height="146.44" width="168.117494" x="253.082506" y="27.6"/>
  </clipPath>
 </defs>
</svg>
