<?xml version="1.0" encoding="utf-8" standalone="no"?>
<!DOCTYPE svg PUBLIC "-//W3C//DTD SVG 1.1//EN"
  "http://www.w3.org/Graphics/SVG/1.1/DTD/svg11.dtd">
<!-- Created with matplotlib (https://matplotlib.org/) -->
<svg height="216pt" version="1.1" viewBox="0 0 432 216" width="432pt" xmlns="http://www.w3.org/2000/svg" xmlns:xlink="http://www.w3.org/1999/xlink">
 <defs>
  <style type="text/css">
*{stroke-linecap:butt;stroke-linejoin:round;}
  </style>
 </defs>
 <g id="figure_1">
  <g id="patch_1">
   <path d="M 0 216 
L 432 216 
L 432 0 
L 0 0 
z
" style="fill:#ffffff;"/>
  </g>
  <g id="axes_1">
   <g id="patch_2">
    <path d="M 41.935346 174.04 
L 210.6 174.04 
L 210.6 27.6 
L 41.935346 27.6 
z
" style="fill:#ffffff;"/>
   </g>
   <g id="patch_3">
    <path clip-path="url(#pff0444080f)" d="M 49.601921 27089.2709 
L 52.668549 27089.2709 
L 52.668549 167.383612 
L 49.601921 167.383612 
z
" style="fill:#1f77b4;opacity:0.4;"/>
   </g>
   <g id="patch_4">
    <path clip-path="url(#pff0444080f)" d="M 52.668549 27089.2709 
L 55.735183 27089.2709 
L 55.735183 27089.2709 
L 52.668549 27089.2709 
z
" style="fill:#1f77b4;opacity:0.4;"/>
   </g>
   <g id="patch_5">
    <path clip-path="url(#pff0444080f)" d="M 55.735183 27089.2709 
L 58.801811 27089.2709 
L 58.801811 27089.2709 
L 55.735183 27089.2709 
z
" style="fill:#1f77b4;opacity:0.4;"/>
   </g>
   <g id="patch_6">
    <path clip-path="url(#pff0444080f)" d="M 58.801811 27089.2709 
L 61.868439 27089.2709 
L 61.868439 27089.2709 
L 58.801811 27089.2709 
z
" style="fill:#1f77b4;opacity:0.4;"/>
   </g>
   <g id="patch_7">
    <path clip-path="url(#pff0444080f)" d="M 61.868445 27089.2709 
L 64.935079 27089.2709 
L 64.935079 167.383636 
L 61.868445 167.383636 
z
" style="fill:#1f77b4;opacity:0.4;"/>
   </g>
   <g id="patch_8">
    <path clip-path="url(#pff0444080f)" d="M 64.935073 27089.2709 
L 68.001701 27089.2709 
L 68.001701 154.465414 
L 64.935073 154.465414 
z
" style="fill:#1f77b4;opacity:0.4;"/>
   </g>
   <g id="patch_9">
    <path clip-path="url(#pff0444080f)" d="M 68.001701 27089.2709 
L 71.068335 27089.2709 
L 71.068335 142.932209 
L 68.001701 142.932209 
z
" style="fill:#1f77b4;opacity:0.4;"/>
   </g>
   <g id="patch_10">
    <path clip-path="url(#pff0444080f)" d="M 71.068335 27089.2709 
L 74.134963 27089.2709 
L 74.134963 132.760982 
L 71.068335 132.760982 
z
" style="fill:#1f77b4;opacity:0.4;"/>
   </g>
   <g id="patch_11">
    <path clip-path="url(#pff0444080f)" d="M 74.134963 27089.2709 
L 77.20159 27089.2709 
L 77.20159 122.622397 
L 74.134963 122.622397 
z
" style="fill:#1f77b4;opacity:0.4;"/>
   </g>
   <g id="patch_12">
    <path clip-path="url(#pff0444080f)" d="M 77.201597 27089.2709 
L 80.268231 27089.2709 
L 80.268231 116.460055 
L 77.201597 116.460055 
z
" style="fill:#1f77b4;opacity:0.4;"/>
   </g>
   <g id="patch_13">
    <path clip-path="url(#pff0444080f)" d="M 80.268225 27089.2709 
L 83.334852 27089.2709 
L 83.334852 106.256301 
L 80.268225 106.256301 
z
" style="fill:#1f77b4;opacity:0.4;"/>
   </g>
   <g id="patch_14">
    <path clip-path="url(#pff0444080f)" d="M 83.334852 27089.2709 
L 86.40148 27089.2709 
L 86.40148 96.641733 
L 83.334852 96.641733 
z
" style="fill:#1f77b4;opacity:0.4;"/>
   </g>
   <g id="patch_15">
    <path clip-path="url(#pff0444080f)" d="M 86.401483 27089.2709 
L 89.468111 27089.2709 
L 89.468111 90.168404 
L 86.401483 90.168404 
z
" style="fill:#1f77b4;opacity:0.4;"/>
   </g>
   <g id="patch_16">
    <path clip-path="url(#pff0444080f)" d="M 89.468114 27089.2709 
L 92.534742 27089.2709 
L 92.534742 84.082679 
L 89.468114 84.082679 
z
" style="fill:#1f77b4;opacity:0.4;"/>
   </g>
   <g id="patch_17">
    <path clip-path="url(#pff0444080f)" d="M 92.534742 27089.2709 
L 95.60137 27089.2709 
L 95.60137 76.544166 
L 92.534742 76.544166 
z
" style="fill:#1f77b4;opacity:0.4;"/>
   </g>
   <g id="patch_18">
    <path clip-path="url(#pff0444080f)" d="M 95.601376 27089.2709 
L 98.668004 27089.2709 
L 98.668004 70.352123 
L 95.601376 70.352123 
z
" style="fill:#1f77b4;opacity:0.4;"/>
   </g>
   <g id="patch_19">
    <path clip-path="url(#pff0444080f)" d="M 98.668004 27089.2709 
L 101.734632 27089.2709 
L 101.734632 64.439072 
L 98.668004 64.439072 
z
" style="fill:#1f77b4;opacity:0.4;"/>
   </g>
   <g id="patch_20">
    <path clip-path="url(#pff0444080f)" d="M 101.734632 27089.2709 
L 104.80126 27089.2709 
L 104.80126 59.002759 
L 101.734632 59.002759 
z
" style="fill:#1f77b4;opacity:0.4;"/>
   </g>
   <g id="patch_21">
    <path clip-path="url(#pff0444080f)" d="M 104.801263 27089.2709 
L 107.867891 27089.2709 
L 107.867891 54.581909 
L 104.801263 54.581909 
z
" style="fill:#1f77b4;opacity:0.4;"/>
   </g>
   <g id="patch_22">
    <path clip-path="url(#pff0444080f)" d="M 107.867894 27089.2709 
L 110.934521 27089.2709 
L 110.934521 50.033004 
L 107.867894 50.033004 
z
" style="fill:#1f77b4;opacity:0.4;"/>
   </g>
   <g id="patch_23">
    <path clip-path="url(#pff0444080f)" d="M 110.934525 27089.2709 
L 114.001152 27089.2709 
L 114.001152 46.477233 
L 110.934525 46.477233 
z
" style="fill:#1f77b4;opacity:0.4;"/>
   </g>
   <g id="patch_24">
    <path clip-path="url(#pff0444080f)" d="M 114.001154 27089.2709 
L 117.067782 27089.2709 
L 117.067782 43.085533 
L 114.001154 43.085533 
z
" style="fill:#1f77b4;opacity:0.4;"/>
   </g>
   <g id="patch_25">
    <path clip-path="url(#pff0444080f)" d="M 117.067783 27089.2709 
L 120.134411 27089.2709 
L 120.134411 40.515055 
L 117.067783 40.515055 
z
" style="fill:#1f77b4;opacity:0.4;"/>
   </g>
   <g id="patch_26">
    <path clip-path="url(#pff0444080f)" d="M 120.134414 27089.2709 
L 123.201042 27089.2709 
L 123.201042 38.290387 
L 120.134414 38.290387 
z
" style="fill:#1f77b4;opacity:0.4;"/>
   </g>
   <g id="patch_27">
    <path clip-path="url(#pff0444080f)" d="M 123.201044 27089.2709 
L 126.267671 27089.2709 
L 126.267671 36.457421 
L 123.201044 36.457421 
z
" style="fill:#1f77b4;opacity:0.4;"/>
   </g>
   <g id="patch_28">
    <path clip-path="url(#pff0444080f)" d="M 126.267675 27089.2709 
L 129.334302 27089.2709 
L 129.334302 35.228743 
L 126.267675 35.228743 
z
" style="fill:#1f77b4;opacity:0.4;"/>
   </g>
   <g id="patch_29">
    <path clip-path="url(#pff0444080f)" d="M 129.334304 27089.2709 
L 132.400932 27089.2709 
L 132.400932 34.508922 
L 129.334304 34.508922 
z
" style="fill:#1f77b4;opacity:0.4;"/>
   </g>
   <g id="patch_30">
    <path clip-path="url(#pff0444080f)" d="M 132.400934 27089.2709 
L 135.467562 27089.2709 
L 135.467562 34.256364 
L 132.400934 34.256364 
z
" style="fill:#1f77b4;opacity:0.4;"/>
   </g>
   <g id="patch_31">
    <path clip-path="url(#pff0444080f)" d="M 135.467564 27089.2709 
L 138.534192 27089.2709 
L 138.534192 34.570031 
L 135.467564 34.570031 
z
" style="fill:#1f77b4;opacity:0.4;"/>
   </g>
   <g id="patch_32">
    <path clip-path="url(#pff0444080f)" d="M 138.534195 27089.2709 
L 141.600822 27089.2709 
L 141.600822 35.329695 
L 138.534195 35.329695 
z
" style="fill:#1f77b4;opacity:0.4;"/>
   </g>
   <g id="patch_33">
    <path clip-path="url(#pff0444080f)" d="M 141.600825 27089.2709 
L 144.667452 27089.2709 
L 144.667452 36.512316 
L 141.600825 36.512316 
z
" style="fill:#1f77b4;opacity:0.4;"/>
   </g>
   <g id="patch_34">
    <path clip-path="url(#pff0444080f)" d="M 144.667454 27089.2709 
L 147.734082 27089.2709 
L 147.734082 38.371324 
L 144.667454 38.371324 
z
" style="fill:#1f77b4;opacity:0.4;"/>
   </g>
   <g id="patch_35">
    <path clip-path="url(#pff0444080f)" d="M 147.734085 27089.2709 
L 150.800713 27089.2709 
L 150.800713 40.644012 
L 147.734085 40.644012 
z
" style="fill:#1f77b4;opacity:0.4;"/>
   </g>
   <g id="patch_36">
    <path clip-path="url(#pff0444080f)" d="M 150.800714 27089.2709 
L 153.867342 27089.2709 
L 153.867342 43.541003 
L 150.800714 43.541003 
z
" style="fill:#1f77b4;opacity:0.4;"/>
   </g>
   <g id="patch_37">
    <path clip-path="url(#pff0444080f)" d="M 153.867345 27089.2709 
L 156.933973 27089.2709 
L 156.933973 46.671233 
L 153.867345 46.671233 
z
" style="fill:#1f77b4;opacity:0.4;"/>
   </g>
   <g id="patch_38">
    <path clip-path="url(#pff0444080f)" d="M 156.933975 27089.2709 
L 160.000603 27089.2709 
L 160.000603 50.461183 
L 156.933975 50.461183 
z
" style="fill:#1f77b4;opacity:0.4;"/>
   </g>
   <g id="patch_39">
    <path clip-path="url(#pff0444080f)" d="M 160.000604 27089.2709 
L 163.067232 27089.2709 
L 163.067232 54.843013 
L 160.000604 54.843013 
z
" style="fill:#1f77b4;opacity:0.4;"/>
   </g>
   <g id="patch_40">
    <path clip-path="url(#pff0444080f)" d="M 163.067235 27089.2709 
L 166.133863 27089.2709 
L 166.133863 59.72525 
L 163.067235 59.72525 
z
" style="fill:#1f77b4;opacity:0.4;"/>
   </g>
   <g id="patch_41">
    <path clip-path="url(#pff0444080f)" d="M 166.133866 27089.2709 
L 169.200494 27089.2709 
L 169.200494 65.201309 
L 166.133866 65.201309 
z
" style="fill:#1f77b4;opacity:0.4;"/>
   </g>
   <g id="patch_42">
    <path clip-path="url(#pff0444080f)" d="M 169.200494 27089.2709 
L 172.267122 27089.2709 
L 172.267122 70.678557 
L 169.200494 70.678557 
z
" style="fill:#1f77b4;opacity:0.4;"/>
   </g>
   <g id="patch_43">
    <path clip-path="url(#pff0444080f)" d="M 172.267128 27089.2709 
L 175.333756 27089.2709 
L 175.333756 77.272289 
L 172.267128 77.272289 
z
" style="fill:#1f77b4;opacity:0.4;"/>
   </g>
   <g id="patch_44">
    <path clip-path="url(#pff0444080f)" d="M 175.333756 27089.2709 
L 178.400384 27089.2709 
L 178.400384 83.771419 
L 175.333756 83.771419 
z
" style="fill:#1f77b4;opacity:0.4;"/>
   </g>
   <g id="patch_45">
    <path clip-path="url(#pff0444080f)" d="M 178.400384 27089.2709 
L 181.467011 27089.2709 
L 181.467011 90.658079 
L 178.400384 90.658079 
z
" style="fill:#1f77b4;opacity:0.4;"/>
   </g>
   <g id="patch_46">
    <path clip-path="url(#pff0444080f)" d="M 181.467018 27089.2709 
L 184.533645 27089.2709 
L 184.533645 99.40988 
L 181.467018 99.40988 
z
" style="fill:#1f77b4;opacity:0.4;"/>
   </g>
   <g id="patch_47">
    <path clip-path="url(#pff0444080f)" d="M 184.533645 27089.2709 
L 187.600273 27089.2709 
L 187.600273 107.854325 
L 184.533645 107.854325 
z
" style="fill:#1f77b4;opacity:0.4;"/>
   </g>
   <g id="patch_48">
    <path clip-path="url(#pff0444080f)" d="M 187.600273 27089.2709 
L 190.666907 27089.2709 
L 190.666907 117.095813 
L 187.600273 117.095813 
z
" style="fill:#1f77b4;opacity:0.4;"/>
   </g>
   <g id="patch_49">
    <path clip-path="url(#pff0444080f)" d="M 190.666907 27089.2709 
L 193.733535 27089.2709 
L 193.733535 124.30507 
L 190.666907 124.30507 
z
" style="fill:#1f77b4;opacity:0.4;"/>
   </g>
   <g id="patch_50">
    <path clip-path="url(#pff0444080f)" d="M 193.733535 27089.2709 
L 196.800163 27089.2709 
L 196.800163 131.584136 
L 193.733535 131.584136 
z
" style="fill:#1f77b4;opacity:0.4;"/>
   </g>
   <g id="patch_51">
    <path clip-path="url(#pff0444080f)" d="M 196.800169 27089.2709 
L 199.866803 27089.2709 
L 199.866803 141.54724 
L 196.800169 141.54724 
z
" style="fill:#1f77b4;opacity:0.4;"/>
   </g>
   <g id="patch_52">
    <path clip-path="url(#pff0444080f)" d="M 199.866797 27089.2709 
L 202.933425 27089.2709 
L 202.933425 167.383612 
L 199.866797 167.383612 
z
" style="fill:#1f77b4;opacity:0.4;"/>
   </g>
   <g id="matplotlib.axis_1">
    <g id="xtick_1">
     <g id="line2d_1">
      <defs>
       <path d="M 0 0 
L 0 3.5 
" id="m74d9be6636" style="stroke:#000000;stroke-width:0.8;"/>
      </defs>
      <g>
       <use style="stroke:#000000;stroke-width:0.8;" x="67.647013" xlink:href="#m74d9be6636" y="174.04"/>
      </g>
     </g>
     <g id="text_1">
      <!-- −10 -->
      <defs>
       <path d="M 10.59375 35.5 
L 73.1875 35.5 
L 73.1875 27.203125 
L 10.59375 27.203125 
z
" id="DejaVuSans-8722"/>
       <path d="M 12.40625 8.296875 
L 28.515625 8.296875 
L 28.515625 63.921875 
L 10.984375 60.40625 
L 10.984375 69.390625 
L 28.421875 72.90625 
L 38.28125 72.90625 
L 38.28125 8.296875 
L 54.390625 8.296875 
L 54.390625 0 
L 12.40625 0 
z
" id="DejaVuSans-49"/>
       <path d="M 31.78125 66.40625 
Q 24.171875 66.40625 20.328125 58.90625 
Q 16.5 51.421875 16.5 36.375 
Q 16.5 21.390625 20.328125 13.890625 
Q 24.171875 6.390625 31.78125 6.390625 
Q 39.453125 6.390625 43.28125 13.890625 
Q 47.125 21.390625 47.125 36.375 
Q 47.125 51.421875 43.28125 58.90625 
Q 39.453125 66.40625 31.78125 66.40625 
z
M 31.78125 74.21875 
Q 44.046875 74.21875 50.515625 64.515625 
Q 56.984375 54.828125 56.984375 36.375 
Q 56.984375 17.96875 50.515625 8.265625 
Q 44.046875 -1.421875 31.78125 -1.421875 
Q 19.53125 -1.421875 13.0625 8.265625 
Q 6.59375 17.96875 6.59375 36.375 
Q 6.59375 54.828125 13.0625 64.515625 
Q 19.53125 74.21875 31.78125 74.21875 
z
" id="DejaVuSans-48"/>
      </defs>
      <g transform="translate(57.09467 188.638438)scale(0.1 -0.1)">
       <use xlink:href="#DejaVuSans-8722"/>
       <use x="83.789062" xlink:href="#DejaVuSans-49"/>
       <use x="147.412109" xlink:href="#DejaVuSans-48"/>
      </g>
     </g>
    </g>
    <g id="xtick_2">
     <g id="line2d_2">
      <g>
       <use style="stroke:#000000;stroke-width:0.8;" x="133.826715" xlink:href="#m74d9be6636" y="174.04"/>
      </g>
     </g>
     <g id="text_2">
      <!-- 0 -->
      <g transform="translate(130.645465 188.638438)scale(0.1 -0.1)">
       <use xlink:href="#DejaVuSans-48"/>
      </g>
     </g>
    </g>
    <g id="xtick_3">
     <g id="line2d_3">
      <g>
       <use style="stroke:#000000;stroke-width:0.8;" x="200.006418" xlink:href="#m74d9be6636" y="174.04"/>
      </g>
     </g>
     <g id="text_3">
      <!-- 10 -->
      <g transform="translate(193.643918 188.638438)scale(0.1 -0.1)">
       <use xlink:href="#DejaVuSans-49"/>
       <use x="63.623047" xlink:href="#DejaVuSans-48"/>
      </g>
     </g>
    </g>
    <g id="text_4">
     <!-- mu -->
     <defs>
      <path d="M 52 44.1875 
Q 55.375 50.25 60.0625 53.125 
Q 64.75 56 71.09375 56 
Q 79.640625 56 84.28125 50.015625 
Q 88.921875 44.046875 88.921875 33.015625 
L 88.921875 0 
L 79.890625 0 
L 79.890625 32.71875 
Q 79.890625 40.578125 77.09375 44.375 
Q 74.3125 48.1875 68.609375 48.1875 
Q 61.625 48.1875 57.5625 43.546875 
Q 53.515625 38.921875 53.515625 30.90625 
L 53.515625 0 
L 44.484375 0 
L 44.484375 32.71875 
Q 44.484375 40.625 41.703125 44.40625 
Q 38.921875 48.1875 33.109375 48.1875 
Q 26.21875 48.1875 22.15625 43.53125 
Q 18.109375 38.875 18.109375 30.90625 
L 18.109375 0 
L 9.078125 0 
L 9.078125 54.6875 
L 18.109375 54.6875 
L 18.109375 46.1875 
Q 21.1875 51.21875 25.484375 53.609375 
Q 29.78125 56 35.6875 56 
Q 41.65625 56 45.828125 52.96875 
Q 50 49.953125 52 44.1875 
z
" id="DejaVuSans-109"/>
      <path d="M 8.5 21.578125 
L 8.5 54.6875 
L 17.484375 54.6875 
L 17.484375 21.921875 
Q 17.484375 14.15625 20.5 10.265625 
Q 23.53125 6.390625 29.59375 6.390625 
Q 36.859375 6.390625 41.078125 11.03125 
Q 45.3125 15.671875 45.3125 23.6875 
L 45.3125 54.6875 
L 54.296875 54.6875 
L 54.296875 0 
L 45.3125 0 
L 45.3125 8.40625 
Q 42.046875 3.421875 37.71875 1 
Q 33.40625 -1.421875 27.6875 -1.421875 
Q 18.265625 -1.421875 13.375 4.4375 
Q 8.5 10.296875 8.5 21.578125 
z
M 31.109375 56 
z
" id="DejaVuSans-117"/>
     </defs>
     <g transform="translate(118.228611 202.316563)scale(0.1 -0.1)">
      <use xlink:href="#DejaVuSans-109"/>
      <use x="97.412109" xlink:href="#DejaVuSans-117"/>
     </g>
    </g>
   </g>
   <g id="matplotlib.axis_2">
    <g id="ytick_1">
     <g id="line2d_4">
      <defs>
       <path d="M 0 0 
L -3.5 0 
" id="m0b5c4e14df" style="stroke:#000000;stroke-width:0.8;"/>
      </defs>
      <g>
       <use style="stroke:#000000;stroke-width:0.8;" x="41.935346" xlink:href="#m0b5c4e14df" y="149.353192"/>
      </g>
     </g>
     <g id="text_5">
      <!-- $\mathdefault{10^{-5}}$ -->
      <defs>
       <path d="M 10.796875 72.90625 
L 49.515625 72.90625 
L 49.515625 64.59375 
L 19.828125 64.59375 
L 19.828125 46.734375 
Q 21.96875 47.46875 24.109375 47.828125 
Q 26.265625 48.1875 28.421875 48.1875 
Q 40.625 48.1875 47.75 41.5 
Q 54.890625 34.8125 54.890625 23.390625 
Q 54.890625 11.625 47.5625 5.09375 
Q 40.234375 -1.421875 26.90625 -1.421875 
Q 22.3125 -1.421875 17.546875 -0.640625 
Q 12.796875 0.140625 7.71875 1.703125 
L 7.71875 11.625 
Q 12.109375 9.234375 16.796875 8.0625 
Q 21.484375 6.890625 26.703125 6.890625 
Q 35.15625 6.890625 40.078125 11.328125 
Q 45.015625 15.765625 45.015625 23.390625 
Q 45.015625 31 40.078125 35.4375 
Q 35.15625 39.890625 26.703125 39.890625 
Q 22.75 39.890625 18.8125 39.015625 
Q 14.890625 38.140625 10.796875 36.28125 
z
" id="DejaVuSans-53"/>
      </defs>
      <g transform="translate(11.435346 153.152411)scale(0.1 -0.1)">
       <use transform="translate(0 0.684375)" xlink:href="#DejaVuSans-49"/>
       <use transform="translate(63.623047 0.684375)" xlink:href="#DejaVuSans-48"/>
       <use transform="translate(128.203125 38.965625)scale(0.7)" xlink:href="#DejaVuSans-8722"/>
       <use transform="translate(186.855469 38.965625)scale(0.7)" xlink:href="#DejaVuSans-53"/>
      </g>
     </g>
    </g>
    <g id="ytick_2">
     <g id="line2d_5">
      <g>
       <use style="stroke:#000000;stroke-width:0.8;" x="41.935346" xlink:href="#m0b5c4e14df" y="122.277898"/>
      </g>
     </g>
     <g id="text_6">
      <!-- $\mathdefault{10^{-4}}$ -->
      <defs>
       <path d="M 37.796875 64.3125 
L 12.890625 25.390625 
L 37.796875 25.390625 
z
M 35.203125 72.90625 
L 47.609375 72.90625 
L 47.609375 25.390625 
L 58.015625 25.390625 
L 58.015625 17.1875 
L 47.609375 17.1875 
L 47.609375 0 
L 37.796875 0 
L 37.796875 17.1875 
L 4.890625 17.1875 
L 4.890625 26.703125 
z
" id="DejaVuSans-52"/>
      </defs>
      <g transform="translate(11.435346 126.077117)scale(0.1 -0.1)">
       <use transform="translate(0 0.684375)" xlink:href="#DejaVuSans-49"/>
       <use transform="translate(63.623047 0.684375)" xlink:href="#DejaVuSans-48"/>
       <use transform="translate(128.203125 38.965625)scale(0.7)" xlink:href="#DejaVuSans-8722"/>
       <use transform="translate(186.855469 38.965625)scale(0.7)" xlink:href="#DejaVuSans-52"/>
      </g>
     </g>
    </g>
    <g id="ytick_3">
     <g id="line2d_6">
      <g>
       <use style="stroke:#000000;stroke-width:0.8;" x="41.935346" xlink:href="#m0b5c4e14df" y="95.202604"/>
      </g>
     </g>
     <g id="text_7">
      <!-- $\mathdefault{10^{-3}}$ -->
      <defs>
       <path d="M 40.578125 39.3125 
Q 47.65625 37.796875 51.625 33 
Q 55.609375 28.21875 55.609375 21.1875 
Q 55.609375 10.40625 48.1875 4.484375 
Q 40.765625 -1.421875 27.09375 -1.421875 
Q 22.515625 -1.421875 17.65625 -0.515625 
Q 12.796875 0.390625 7.625 2.203125 
L 7.625 11.71875 
Q 11.71875 9.328125 16.59375 8.109375 
Q 21.484375 6.890625 26.8125 6.890625 
Q 36.078125 6.890625 40.9375 10.546875 
Q 45.796875 14.203125 45.796875 21.1875 
Q 45.796875 27.640625 41.28125 31.265625 
Q 36.765625 34.90625 28.71875 34.90625 
L 20.21875 34.90625 
L 20.21875 43.015625 
L 29.109375 43.015625 
Q 36.375 43.015625 40.234375 45.921875 
Q 44.09375 48.828125 44.09375 54.296875 
Q 44.09375 59.90625 40.109375 62.90625 
Q 36.140625 65.921875 28.71875 65.921875 
Q 24.65625 65.921875 20.015625 65.03125 
Q 15.375 64.15625 9.8125 62.3125 
L 9.8125 71.09375 
Q 15.4375 72.65625 20.34375 73.4375 
Q 25.25 74.21875 29.59375 74.21875 
Q 40.828125 74.21875 47.359375 69.109375 
Q 53.90625 64.015625 53.90625 55.328125 
Q 53.90625 49.265625 50.4375 45.09375 
Q 46.96875 40.921875 40.578125 39.3125 
z
" id="DejaVuSans-51"/>
      </defs>
      <g transform="translate(11.435346 99.001822)scale(0.1 -0.1)">
       <use transform="translate(0 0.765625)" xlink:href="#DejaVuSans-49"/>
       <use transform="translate(63.623047 0.765625)" xlink:href="#DejaVuSans-48"/>
       <use transform="translate(128.203125 39.046875)scale(0.7)" xlink:href="#DejaVuSans-8722"/>
       <use transform="translate(186.855469 39.046875)scale(0.7)" xlink:href="#DejaVuSans-51"/>
      </g>
     </g>
    </g>
    <g id="ytick_4">
     <g id="line2d_7">
      <g>
       <use style="stroke:#000000;stroke-width:0.8;" x="41.935346" xlink:href="#m0b5c4e14df" y="68.127309"/>
      </g>
     </g>
     <g id="text_8">
      <!-- $\mathdefault{10^{-2}}$ -->
      <defs>
       <path d="M 19.1875 8.296875 
L 53.609375 8.296875 
L 53.609375 0 
L 7.328125 0 
L 7.328125 8.296875 
Q 12.9375 14.109375 22.625 23.890625 
Q 32.328125 33.6875 34.8125 36.53125 
Q 39.546875 41.84375 41.421875 45.53125 
Q 43.3125 49.21875 43.3125 52.78125 
Q 43.3125 58.59375 39.234375 62.25 
Q 35.15625 65.921875 28.609375 65.921875 
Q 23.96875 65.921875 18.8125 64.3125 
Q 13.671875 62.703125 7.8125 59.421875 
L 7.8125 69.390625 
Q 13.765625 71.78125 18.9375 73 
Q 24.125 74.21875 28.421875 74.21875 
Q 39.75 74.21875 46.484375 68.546875 
Q 53.21875 62.890625 53.21875 53.421875 
Q 53.21875 48.921875 51.53125 44.890625 
Q 49.859375 40.875 45.40625 35.40625 
Q 44.1875 33.984375 37.640625 27.21875 
Q 31.109375 20.453125 19.1875 8.296875 
z
" id="DejaVuSans-50"/>
      </defs>
      <g transform="translate(11.435346 71.926528)scale(0.1 -0.1)">
       <use transform="translate(0 0.765625)" xlink:href="#DejaVuSans-49"/>
       <use transform="translate(63.623047 0.765625)" xlink:href="#DejaVuSans-48"/>
       <use transform="translate(128.203125 39.046875)scale(0.7)" xlink:href="#DejaVuSans-8722"/>
       <use transform="translate(186.855469 39.046875)scale(0.7)" xlink:href="#DejaVuSans-50"/>
      </g>
     </g>
    </g>
    <g id="ytick_5">
     <g id="line2d_8">
      <g>
       <use style="stroke:#000000;stroke-width:0.8;" x="41.935346" xlink:href="#m0b5c4e14df" y="41.052015"/>
      </g>
     </g>
     <g id="text_9">
      <!-- $\mathdefault{10^{-1}}$ -->
      <g transform="translate(11.435346 44.851234)scale(0.1 -0.1)">
       <use transform="translate(0 0.684375)" xlink:href="#DejaVuSans-49"/>
       <use transform="translate(63.623047 0.684375)" xlink:href="#DejaVuSans-48"/>
       <use transform="translate(128.203125 38.965625)scale(0.7)" xlink:href="#DejaVuSans-8722"/>
       <use transform="translate(186.855469 38.965625)scale(0.7)" xlink:href="#DejaVuSans-49"/>
      </g>
     </g>
    </g>
    <g id="ytick_6">
     <g id="line2d_9">
      <defs>
       <path d="M 0 0 
L -2 0 
" id="mdcde2d7982" style="stroke:#000000;stroke-width:0.6;"/>
      </defs>
      <g>
       <use style="stroke:#000000;stroke-width:0.6;" x="41.935346" xlink:href="#mdcde2d7982" y="168.278011"/>
      </g>
     </g>
    </g>
    <g id="ytick_7">
     <g id="line2d_10">
      <g>
       <use style="stroke:#000000;stroke-width:0.6;" x="41.935346" xlink:href="#mdcde2d7982" y="163.510288"/>
      </g>
     </g>
    </g>
    <g id="ytick_8">
     <g id="line2d_11">
      <g>
       <use style="stroke:#000000;stroke-width:0.6;" x="41.935346" xlink:href="#mdcde2d7982" y="160.127535"/>
      </g>
     </g>
    </g>
    <g id="ytick_9">
     <g id="line2d_12">
      <g>
       <use style="stroke:#000000;stroke-width:0.6;" x="41.935346" xlink:href="#mdcde2d7982" y="157.503668"/>
      </g>
     </g>
    </g>
    <g id="ytick_10">
     <g id="line2d_13">
      <g>
       <use style="stroke:#000000;stroke-width:0.6;" x="41.935346" xlink:href="#mdcde2d7982" y="155.359812"/>
      </g>
     </g>
    </g>
    <g id="ytick_11">
     <g id="line2d_14">
      <g>
       <use style="stroke:#000000;stroke-width:0.6;" x="41.935346" xlink:href="#mdcde2d7982" y="153.547208"/>
      </g>
     </g>
    </g>
    <g id="ytick_12">
     <g id="line2d_15">
      <g>
       <use style="stroke:#000000;stroke-width:0.6;" x="41.935346" xlink:href="#mdcde2d7982" y="151.977059"/>
      </g>
     </g>
    </g>
    <g id="ytick_13">
     <g id="line2d_16">
      <g>
       <use style="stroke:#000000;stroke-width:0.6;" x="41.935346" xlink:href="#mdcde2d7982" y="150.59209"/>
      </g>
     </g>
    </g>
    <g id="ytick_14">
     <g id="line2d_17">
      <g>
       <use style="stroke:#000000;stroke-width:0.6;" x="41.935346" xlink:href="#mdcde2d7982" y="141.202716"/>
      </g>
     </g>
    </g>
    <g id="ytick_15">
     <g id="line2d_18">
      <g>
       <use style="stroke:#000000;stroke-width:0.6;" x="41.935346" xlink:href="#mdcde2d7982" y="136.434994"/>
      </g>
     </g>
    </g>
    <g id="ytick_16">
     <g id="line2d_19">
      <g>
       <use style="stroke:#000000;stroke-width:0.6;" x="41.935346" xlink:href="#mdcde2d7982" y="133.052241"/>
      </g>
     </g>
    </g>
    <g id="ytick_17">
     <g id="line2d_20">
      <g>
       <use style="stroke:#000000;stroke-width:0.6;" x="41.935346" xlink:href="#mdcde2d7982" y="130.428374"/>
      </g>
     </g>
    </g>
    <g id="ytick_18">
     <g id="line2d_21">
      <g>
       <use style="stroke:#000000;stroke-width:0.6;" x="41.935346" xlink:href="#mdcde2d7982" y="128.284518"/>
      </g>
     </g>
    </g>
    <g id="ytick_19">
     <g id="line2d_22">
      <g>
       <use style="stroke:#000000;stroke-width:0.6;" x="41.935346" xlink:href="#mdcde2d7982" y="126.471914"/>
      </g>
     </g>
    </g>
    <g id="ytick_20">
     <g id="line2d_23">
      <g>
       <use style="stroke:#000000;stroke-width:0.6;" x="41.935346" xlink:href="#mdcde2d7982" y="124.901765"/>
      </g>
     </g>
    </g>
    <g id="ytick_21">
     <g id="line2d_24">
      <g>
       <use style="stroke:#000000;stroke-width:0.6;" x="41.935346" xlink:href="#mdcde2d7982" y="123.516795"/>
      </g>
     </g>
    </g>
    <g id="ytick_22">
     <g id="line2d_25">
      <g>
       <use style="stroke:#000000;stroke-width:0.6;" x="41.935346" xlink:href="#mdcde2d7982" y="114.127422"/>
      </g>
     </g>
    </g>
    <g id="ytick_23">
     <g id="line2d_26">
      <g>
       <use style="stroke:#000000;stroke-width:0.6;" x="41.935346" xlink:href="#mdcde2d7982" y="109.3597"/>
      </g>
     </g>
    </g>
    <g id="ytick_24">
     <g id="line2d_27">
      <g>
       <use style="stroke:#000000;stroke-width:0.6;" x="41.935346" xlink:href="#mdcde2d7982" y="105.976946"/>
      </g>
     </g>
    </g>
    <g id="ytick_25">
     <g id="line2d_28">
      <g>
       <use style="stroke:#000000;stroke-width:0.6;" x="41.935346" xlink:href="#mdcde2d7982" y="103.353079"/>
      </g>
     </g>
    </g>
    <g id="ytick_26">
     <g id="line2d_29">
      <g>
       <use style="stroke:#000000;stroke-width:0.6;" x="41.935346" xlink:href="#mdcde2d7982" y="101.209224"/>
      </g>
     </g>
    </g>
    <g id="ytick_27">
     <g id="line2d_30">
      <g>
       <use style="stroke:#000000;stroke-width:0.6;" x="41.935346" xlink:href="#mdcde2d7982" y="99.39662"/>
      </g>
     </g>
    </g>
    <g id="ytick_28">
     <g id="line2d_31">
      <g>
       <use style="stroke:#000000;stroke-width:0.6;" x="41.935346" xlink:href="#mdcde2d7982" y="97.826471"/>
      </g>
     </g>
    </g>
    <g id="ytick_29">
     <g id="line2d_32">
      <g>
       <use style="stroke:#000000;stroke-width:0.6;" x="41.935346" xlink:href="#mdcde2d7982" y="96.441501"/>
      </g>
     </g>
    </g>
    <g id="ytick_30">
     <g id="line2d_33">
      <g>
       <use style="stroke:#000000;stroke-width:0.6;" x="41.935346" xlink:href="#mdcde2d7982" y="87.052128"/>
      </g>
     </g>
    </g>
    <g id="ytick_31">
     <g id="line2d_34">
      <g>
       <use style="stroke:#000000;stroke-width:0.6;" x="41.935346" xlink:href="#mdcde2d7982" y="82.284405"/>
      </g>
     </g>
    </g>
    <g id="ytick_32">
     <g id="line2d_35">
      <g>
       <use style="stroke:#000000;stroke-width:0.6;" x="41.935346" xlink:href="#mdcde2d7982" y="78.901652"/>
      </g>
     </g>
    </g>
    <g id="ytick_33">
     <g id="line2d_36">
      <g>
       <use style="stroke:#000000;stroke-width:0.6;" x="41.935346" xlink:href="#mdcde2d7982" y="76.277785"/>
      </g>
     </g>
    </g>
    <g id="ytick_34">
     <g id="line2d_37">
      <g>
       <use style="stroke:#000000;stroke-width:0.6;" x="41.935346" xlink:href="#mdcde2d7982" y="74.13393"/>
      </g>
     </g>
    </g>
    <g id="ytick_35">
     <g id="line2d_38">
      <g>
       <use style="stroke:#000000;stroke-width:0.6;" x="41.935346" xlink:href="#mdcde2d7982" y="72.321326"/>
      </g>
     </g>
    </g>
    <g id="ytick_36">
     <g id="line2d_39">
      <g>
       <use style="stroke:#000000;stroke-width:0.6;" x="41.935346" xlink:href="#mdcde2d7982" y="70.751177"/>
      </g>
     </g>
    </g>
    <g id="ytick_37">
     <g id="line2d_40">
      <g>
       <use style="stroke:#000000;stroke-width:0.6;" x="41.935346" xlink:href="#mdcde2d7982" y="69.366207"/>
      </g>
     </g>
    </g>
    <g id="ytick_38">
     <g id="line2d_41">
      <g>
       <use style="stroke:#000000;stroke-width:0.6;" x="41.935346" xlink:href="#mdcde2d7982" y="59.976834"/>
      </g>
     </g>
    </g>
    <g id="ytick_39">
     <g id="line2d_42">
      <g>
       <use style="stroke:#000000;stroke-width:0.6;" x="41.935346" xlink:href="#mdcde2d7982" y="55.209111"/>
      </g>
     </g>
    </g>
    <g id="ytick_40">
     <g id="line2d_43">
      <g>
       <use style="stroke:#000000;stroke-width:0.6;" x="41.935346" xlink:href="#mdcde2d7982" y="51.826358"/>
      </g>
     </g>
    </g>
    <g id="ytick_41">
     <g id="line2d_44">
      <g>
       <use style="stroke:#000000;stroke-width:0.6;" x="41.935346" xlink:href="#mdcde2d7982" y="49.202491"/>
      </g>
     </g>
    </g>
    <g id="ytick_42">
     <g id="line2d_45">
      <g>
       <use style="stroke:#000000;stroke-width:0.6;" x="41.935346" xlink:href="#mdcde2d7982" y="47.058635"/>
      </g>
     </g>
    </g>
    <g id="ytick_43">
     <g id="line2d_46">
      <g>
       <use style="stroke:#000000;stroke-width:0.6;" x="41.935346" xlink:href="#mdcde2d7982" y="45.246031"/>
      </g>
     </g>
    </g>
    <g id="ytick_44">
     <g id="line2d_47">
      <g>
       <use style="stroke:#000000;stroke-width:0.6;" x="41.935346" xlink:href="#mdcde2d7982" y="43.675882"/>
      </g>
     </g>
    </g>
    <g id="ytick_45">
     <g id="line2d_48">
      <g>
       <use style="stroke:#000000;stroke-width:0.6;" x="41.935346" xlink:href="#mdcde2d7982" y="42.290913"/>
      </g>
     </g>
    </g>
    <g id="ytick_46">
     <g id="line2d_49">
      <g>
       <use style="stroke:#000000;stroke-width:0.6;" x="41.935346" xlink:href="#mdcde2d7982" y="32.90154"/>
      </g>
     </g>
    </g>
    <g id="ytick_47">
     <g id="line2d_50">
      <g>
       <use style="stroke:#000000;stroke-width:0.6;" x="41.935346" xlink:href="#mdcde2d7982" y="28.133817"/>
      </g>
     </g>
    </g>
   </g>
   <g id="patch_53">
    <path d="M 41.935346 174.04 
L 41.935346 27.6 
" style="fill:none;stroke:#000000;stroke-linecap:square;stroke-linejoin:miter;stroke-width:0.8;"/>
   </g>
   <g id="patch_54">
    <path d="M 210.6 174.04 
L 210.6 27.6 
" style="fill:none;stroke:#000000;stroke-linecap:square;stroke-linejoin:miter;stroke-width:0.8;"/>
   </g>
   <g id="patch_55">
    <path d="M 41.935346 174.04 
L 210.6 174.04 
" style="fill:none;stroke:#000000;stroke-linecap:square;stroke-linejoin:miter;stroke-width:0.8;"/>
   </g>
   <g id="patch_56">
    <path d="M 41.935346 27.6 
L 210.6 27.6 
" style="fill:none;stroke:#000000;stroke-linecap:square;stroke-linejoin:miter;stroke-width:0.8;"/>
   </g>
   <g id="text_10">
    <!-- Test normal -->
    <defs>
     <path d="M -0.296875 72.90625 
L 61.375 72.90625 
L 61.375 64.59375 
L 35.5 64.59375 
L 35.5 0 
L 25.59375 0 
L 25.59375 64.59375 
L -0.296875 64.59375 
z
" id="DejaVuSans-84"/>
     <path d="M 56.203125 29.59375 
L 56.203125 25.203125 
L 14.890625 25.203125 
Q 15.484375 15.921875 20.484375 11.0625 
Q 25.484375 6.203125 34.421875 6.203125 
Q 39.59375 6.203125 44.453125 7.46875 
Q 49.3125 8.734375 54.109375 11.28125 
L 54.109375 2.78125 
Q 49.265625 0.734375 44.1875 -0.34375 
Q 39.109375 -1.421875 33.890625 -1.421875 
Q 20.796875 -1.421875 13.15625 6.1875 
Q 5.515625 13.8125 5.515625 26.8125 
Q 5.515625 40.234375 12.765625 48.109375 
Q 20.015625 56 32.328125 56 
Q 43.359375 56 49.78125 48.890625 
Q 56.203125 41.796875 56.203125 29.59375 
z
M 47.21875 32.234375 
Q 47.125 39.59375 43.09375 43.984375 
Q 39.0625 48.390625 32.421875 48.390625 
Q 24.90625 48.390625 20.390625 44.140625 
Q 15.875 39.890625 15.1875 32.171875 
z
" id="DejaVuSans-101"/>
     <path d="M 44.28125 53.078125 
L 44.28125 44.578125 
Q 40.484375 46.53125 36.375 47.5 
Q 32.28125 48.484375 27.875 48.484375 
Q 21.1875 48.484375 17.84375 46.4375 
Q 14.5 44.390625 14.5 40.28125 
Q 14.5 37.15625 16.890625 35.375 
Q 19.28125 33.59375 26.515625 31.984375 
L 29.59375 31.296875 
Q 39.15625 29.25 43.1875 25.515625 
Q 47.21875 21.78125 47.21875 15.09375 
Q 47.21875 7.46875 41.1875 3.015625 
Q 35.15625 -1.421875 24.609375 -1.421875 
Q 20.21875 -1.421875 15.453125 -0.5625 
Q 10.6875 0.296875 5.421875 2 
L 5.421875 11.28125 
Q 10.40625 8.6875 15.234375 7.390625 
Q 20.0625 6.109375 24.8125 6.109375 
Q 31.15625 6.109375 34.5625 8.28125 
Q 37.984375 10.453125 37.984375 14.40625 
Q 37.984375 18.0625 35.515625 20.015625 
Q 33.0625 21.96875 24.703125 23.78125 
L 21.578125 24.515625 
Q 13.234375 26.265625 9.515625 29.90625 
Q 5.8125 33.546875 5.8125 39.890625 
Q 5.8125 47.609375 11.28125 51.796875 
Q 16.75 56 26.8125 56 
Q 31.78125 56 36.171875 55.265625 
Q 40.578125 54.546875 44.28125 53.078125 
z
" id="DejaVuSans-115"/>
     <path d="M 18.3125 70.21875 
L 18.3125 54.6875 
L 36.8125 54.6875 
L 36.8125 47.703125 
L 18.3125 47.703125 
L 18.3125 18.015625 
Q 18.3125 11.328125 20.140625 9.421875 
Q 21.96875 7.515625 27.59375 7.515625 
L 36.8125 7.515625 
L 36.8125 0 
L 27.59375 0 
Q 17.1875 0 13.234375 3.875 
Q 9.28125 7.765625 9.28125 18.015625 
L 9.28125 47.703125 
L 2.6875 47.703125 
L 2.6875 54.6875 
L 9.28125 54.6875 
L 9.28125 70.21875 
z
" id="DejaVuSans-116"/>
     <path id="DejaVuSans-32"/>
     <path d="M 54.890625 33.015625 
L 54.890625 0 
L 45.90625 0 
L 45.90625 32.71875 
Q 45.90625 40.484375 42.875 44.328125 
Q 39.84375 48.1875 33.796875 48.1875 
Q 26.515625 48.1875 22.3125 43.546875 
Q 18.109375 38.921875 18.109375 30.90625 
L 18.109375 0 
L 9.078125 0 
L 9.078125 54.6875 
L 18.109375 54.6875 
L 18.109375 46.1875 
Q 21.34375 51.125 25.703125 53.5625 
Q 30.078125 56 35.796875 56 
Q 45.21875 56 50.046875 50.171875 
Q 54.890625 44.34375 54.890625 33.015625 
z
" id="DejaVuSans-110"/>
     <path d="M 30.609375 48.390625 
Q 23.390625 48.390625 19.1875 42.75 
Q 14.984375 37.109375 14.984375 27.296875 
Q 14.984375 17.484375 19.15625 11.84375 
Q 23.34375 6.203125 30.609375 6.203125 
Q 37.796875 6.203125 41.984375 11.859375 
Q 46.1875 17.53125 46.1875 27.296875 
Q 46.1875 37.015625 41.984375 42.703125 
Q 37.796875 48.390625 30.609375 48.390625 
z
M 30.609375 56 
Q 42.328125 56 49.015625 48.375 
Q 55.71875 40.765625 55.71875 27.296875 
Q 55.71875 13.875 49.015625 6.21875 
Q 42.328125 -1.421875 30.609375 -1.421875 
Q 18.84375 -1.421875 12.171875 6.21875 
Q 5.515625 13.875 5.515625 27.296875 
Q 5.515625 40.765625 12.171875 48.375 
Q 18.84375 56 30.609375 56 
z
" id="DejaVuSans-111"/>
     <path d="M 41.109375 46.296875 
Q 39.59375 47.171875 37.8125 47.578125 
Q 36.03125 48 33.890625 48 
Q 26.265625 48 22.1875 43.046875 
Q 18.109375 38.09375 18.109375 28.8125 
L 18.109375 0 
L 9.078125 0 
L 9.078125 54.6875 
L 18.109375 54.6875 
L 18.109375 46.1875 
Q 20.953125 51.171875 25.484375 53.578125 
Q 30.03125 56 36.53125 56 
Q 37.453125 56 38.578125 55.875 
Q 39.703125 55.765625 41.0625 55.515625 
z
" id="DejaVuSans-114"/>
     <path d="M 34.28125 27.484375 
Q 23.390625 27.484375 19.1875 25 
Q 14.984375 22.515625 14.984375 16.5 
Q 14.984375 11.71875 18.140625 8.90625 
Q 21.296875 6.109375 26.703125 6.109375 
Q 34.1875 6.109375 38.703125 11.40625 
Q 43.21875 16.703125 43.21875 25.484375 
L 43.21875 27.484375 
z
M 52.203125 31.203125 
L 52.203125 0 
L 43.21875 0 
L 43.21875 8.296875 
Q 40.140625 3.328125 35.546875 0.953125 
Q 30.953125 -1.421875 24.3125 -1.421875 
Q 15.921875 -1.421875 10.953125 3.296875 
Q 6 8.015625 6 15.921875 
Q 6 25.140625 12.171875 29.828125 
Q 18.359375 34.515625 30.609375 34.515625 
L 43.21875 34.515625 
L 43.21875 35.40625 
Q 43.21875 41.609375 39.140625 45 
Q 35.0625 48.390625 27.6875 48.390625 
Q 23 48.390625 18.546875 47.265625 
Q 14.109375 46.140625 10.015625 43.890625 
L 10.015625 52.203125 
Q 14.9375 54.109375 19.578125 55.046875 
Q 24.21875 56 28.609375 56 
Q 40.484375 56 46.34375 49.84375 
Q 52.203125 43.703125 52.203125 31.203125 
z
" id="DejaVuSans-97"/>
     <path d="M 9.421875 75.984375 
L 18.40625 75.984375 
L 18.40625 0 
L 9.421875 0 
z
" id="DejaVuSans-108"/>
    </defs>
    <g transform="translate(84.439392 21.6)scale(0.14 -0.14)">
     <use xlink:href="#DejaVuSans-84"/>
     <use x="60.818359" xlink:href="#DejaVuSans-101"/>
     <use x="122.341797" xlink:href="#DejaVuSans-115"/>
     <use x="174.441406" xlink:href="#DejaVuSans-116"/>
     <use x="213.650391" xlink:href="#DejaVuSans-32"/>
     <use x="245.4375" xlink:href="#DejaVuSans-110"/>
     <use x="308.816406" xlink:href="#DejaVuSans-111"/>
     <use x="369.998047" xlink:href="#DejaVuSans-114"/>
     <use x="411.095703" xlink:href="#DejaVuSans-109"/>
     <use x="508.507812" xlink:href="#DejaVuSans-97"/>
     <use x="569.787109" xlink:href="#DejaVuSans-108"/>
    </g>
   </g>
  </g>
  <g id="axes_2">
   <g id="patch_57">
    <path d="M 252.535346 174.04 
L 421.2 174.04 
L 421.2 27.6 
L 252.535346 27.6 
z
" style="fill:#ffffff;"/>
   </g>
   <g id="patch_58">
    <path clip-path="url(#p75856eb902)" d="M 260.201921 27120.113745 
L 263.254275 27120.113745 
L 263.254275 167.383636 
L 260.201921 167.383636 
z
" style="fill:#1f77b4;opacity:0.4;"/>
   </g>
   <g id="patch_59">
    <path clip-path="url(#p75856eb902)" d="M 263.254275 27120.113745 
L 266.306628 27120.113745 
L 266.306628 154.455819 
L 263.254275 154.455819 
z
" style="fill:#1f77b4;opacity:0.4;"/>
   </g>
   <g id="patch_60">
    <path clip-path="url(#p75856eb902)" d="M 266.306628 27120.113745 
L 269.358982 27120.113745 
L 269.358982 148.444726 
L 266.306628 148.444726 
z
" style="fill:#1f77b4;opacity:0.4;"/>
   </g>
   <g id="patch_61">
    <path clip-path="url(#p75856eb902)" d="M 269.358982 27120.113745 
L 272.411343 27120.113745 
L 272.411343 135.516939 
L 269.358982 135.516939 
z
" style="fill:#1f77b4;opacity:0.4;"/>
   </g>
   <g id="patch_62">
    <path clip-path="url(#p75856eb902)" d="M 272.411351 27120.113745 
L 275.463697 27120.113745 
L 275.463697 126.974498 
L 272.411351 126.974498 
z
" style="fill:#1f77b4;opacity:0.4;"/>
   </g>
   <g id="patch_63">
    <path clip-path="url(#p75856eb902)" d="M 275.463693 27120.113745 
L 278.516054 27120.113745 
L 278.516054 118.444383 
L 275.463693 118.444383 
z
" style="fill:#1f77b4;opacity:0.4;"/>
   </g>
   <g id="patch_64">
    <path clip-path="url(#p75856eb902)" d="M 278.51605 27120.113745 
L 281.568403 27120.113745 
L 281.568403 109.488221 
L 278.51605 109.488221 
z
" style="fill:#1f77b4;opacity:0.4;"/>
   </g>
   <g id="patch_65">
    <path clip-path="url(#p75856eb902)" d="M 281.568403 27120.113745 
L 284.620757 27120.113745 
L 284.620757 103.138474 
L 281.568403 103.138474 
z
" style="fill:#1f77b4;opacity:0.4;"/>
   </g>
   <g id="patch_66">
    <path clip-path="url(#p75856eb902)" d="M 284.620753 27120.113745 
L 287.673114 27120.113745 
L 287.673114 96.61782 
L 284.620753 96.61782 
z
" style="fill:#1f77b4;opacity:0.4;"/>
   </g>
   <g id="patch_67">
    <path clip-path="url(#p75856eb902)" d="M 287.673114 27120.113745 
L 290.725468 27120.113745 
L 290.725468 89.897719 
L 287.673114 89.897719 
z
" style="fill:#1f77b4;opacity:0.4;"/>
   </g>
   <g id="patch_68">
    <path clip-path="url(#p75856eb902)" d="M 290.725468 27120.113745 
L 293.777821 27120.113745 
L 293.777821 83.99111 
L 290.725468 83.99111 
z
" style="fill:#1f77b4;opacity:0.4;"/>
   </g>
   <g id="patch_69">
    <path clip-path="url(#p75856eb902)" d="M 293.777821 27120.113745 
L 296.830175 27120.113745 
L 296.830175 77.530228 
L 293.777821 77.530228 
z
" style="fill:#1f77b4;opacity:0.4;"/>
   </g>
   <g id="patch_70">
    <path clip-path="url(#p75856eb902)" d="M 296.830175 27120.113745 
L 299.882536 27120.113745 
L 299.882536 72.051482 
L 296.830175 72.051482 
z
" style="fill:#1f77b4;opacity:0.4;"/>
   </g>
   <g id="patch_71">
    <path clip-path="url(#p75856eb902)" d="M 299.882532 27120.113745 
L 302.934886 27120.113745 
L 302.934886 66.674227 
L 299.882532 66.674227 
z
" style="fill:#1f77b4;opacity:0.4;"/>
   </g>
   <g id="patch_72">
    <path clip-path="url(#p75856eb902)" d="M 302.934886 27120.113745 
L 305.987239 27120.113745 
L 305.987239 61.754822 
L 302.934886 61.754822 
z
" style="fill:#1f77b4;opacity:0.4;"/>
   </g>
   <g id="patch_73">
    <path clip-path="url(#p75856eb902)" d="M 305.987239 27120.113745 
L 309.039593 27120.113745 
L 309.039593 57.251249 
L 305.987239 57.251249 
z
" style="fill:#1f77b4;opacity:0.4;"/>
   </g>
   <g id="patch_74">
    <path clip-path="url(#p75856eb902)" d="M 309.039596 27120.113745 
L 312.09195 27120.113745 
L 312.09195 53.396321 
L 309.039596 53.396321 
z
" style="fill:#1f77b4;opacity:0.4;"/>
   </g>
   <g id="patch_75">
    <path clip-path="url(#p75856eb902)" d="M 312.09195 27120.113745 
L 315.144303 27120.113745 
L 315.144303 49.921132 
L 312.09195 49.921132 
z
" style="fill:#1f77b4;opacity:0.4;"/>
   </g>
   <g id="patch_76">
    <path clip-path="url(#p75856eb902)" d="M 315.144303 27120.113745 
L 318.196657 27120.113745 
L 318.196657 46.628153 
L 315.144303 46.628153 
z
" style="fill:#1f77b4;opacity:0.4;"/>
   </g>
   <g id="patch_77">
    <path clip-path="url(#p75856eb902)" d="M 318.196659 27120.113745 
L 321.249012 27120.113745 
L 321.249012 43.805957 
L 318.196659 43.805957 
z
" style="fill:#1f77b4;opacity:0.4;"/>
   </g>
   <g id="patch_78">
    <path clip-path="url(#p75856eb902)" d="M 321.249014 27120.113745 
L 324.301368 27120.113745 
L 324.301368 41.401207 
L 321.249014 41.401207 
z
" style="fill:#1f77b4;opacity:0.4;"/>
   </g>
   <g id="patch_79">
    <path clip-path="url(#p75856eb902)" d="M 324.301368 27120.113745 
L 327.353721 27120.113745 
L 327.353721 39.394345 
L 324.301368 39.394345 
z
" style="fill:#1f77b4;opacity:0.4;"/>
   </g>
   <g id="patch_80">
    <path clip-path="url(#p75856eb902)" d="M 327.353723 27120.113745 
L 330.406077 27120.113745 
L 330.406077 37.877712 
L 327.353723 37.877712 
z
" style="fill:#1f77b4;opacity:0.4;"/>
   </g>
   <g id="patch_81">
    <path clip-path="url(#p75856eb902)" d="M 330.406077 27120.113745 
L 333.45843 27120.113745 
L 333.45843 36.731716 
L 330.406077 36.731716 
z
" style="fill:#1f77b4;opacity:0.4;"/>
   </g>
   <g id="patch_82">
    <path clip-path="url(#p75856eb902)" d="M 333.458432 27120.113745 
L 336.510785 27120.113745 
L 336.510785 35.939572 
L 333.458432 35.939572 
z
" style="fill:#1f77b4;opacity:0.4;"/>
   </g>
   <g id="patch_83">
    <path clip-path="url(#p75856eb902)" d="M 336.510786 27120.113745 
L 339.563139 27120.113745 
L 339.563139 35.491329 
L 336.510786 35.491329 
z
" style="fill:#1f77b4;opacity:0.4;"/>
   </g>
   <g id="patch_84">
    <path clip-path="url(#p75856eb902)" d="M 339.563141 27120.113745 
L 342.615494 27120.113745 
L 342.615494 35.588597 
L 339.563141 35.588597 
z
" style="fill:#1f77b4;opacity:0.4;"/>
   </g>
   <g id="patch_85">
    <path clip-path="url(#p75856eb902)" d="M 342.615495 27120.113745 
L 345.667849 27120.113745 
L 345.667849 35.92251 
L 342.615495 35.92251 
z
" style="fill:#1f77b4;opacity:0.4;"/>
   </g>
   <g id="patch_86">
    <path clip-path="url(#p75856eb902)" d="M 345.66785 27120.113745 
L 348.720203 27120.113745 
L 348.720203 36.800183 
L 345.66785 36.800183 
z
" style="fill:#1f77b4;opacity:0.4;"/>
   </g>
   <g id="patch_87">
    <path clip-path="url(#p75856eb902)" d="M 348.720204 27120.113745 
L 351.772558 27120.113745 
L 351.772558 38.00447 
L 348.720204 38.00447 
z
" style="fill:#1f77b4;opacity:0.4;"/>
   </g>
   <g id="patch_88">
    <path clip-path="url(#p75856eb902)" d="M 351.772559 27120.113745 
L 354.824912 27120.113745 
L 354.824912 39.611119 
L 351.772559 39.611119 
z
" style="fill:#1f77b4;opacity:0.4;"/>
   </g>
   <g id="patch_89">
    <path clip-path="url(#p75856eb902)" d="M 354.824914 27120.113745 
L 357.877268 27120.113745 
L 357.877268 41.813101 
L 354.824914 41.813101 
z
" style="fill:#1f77b4;opacity:0.4;"/>
   </g>
   <g id="patch_90">
    <path clip-path="url(#p75856eb902)" d="M 357.877268 27120.113745 
L 360.929621 27120.113745 
L 360.929621 44.212735 
L 357.877268 44.212735 
z
" style="fill:#1f77b4;opacity:0.4;"/>
   </g>
   <g id="patch_91">
    <path clip-path="url(#p75856eb902)" d="M 360.929621 27120.113745 
L 363.981975 27120.113745 
L 363.981975 46.977427 
L 360.929621 46.977427 
z
" style="fill:#1f77b4;opacity:0.4;"/>
   </g>
   <g id="patch_92">
    <path clip-path="url(#p75856eb902)" d="M 363.981979 27120.113745 
L 367.034332 27120.113745 
L 367.034332 50.277872 
L 363.981979 50.277872 
z
" style="fill:#1f77b4;opacity:0.4;"/>
   </g>
   <g id="patch_93">
    <path clip-path="url(#p75856eb902)" d="M 367.034332 27120.113745 
L 370.086685 27120.113745 
L 370.086685 53.806038 
L 367.034332 53.806038 
z
" style="fill:#1f77b4;opacity:0.4;"/>
   </g>
   <g id="patch_94">
    <path clip-path="url(#p75856eb902)" d="M 370.086685 27120.113745 
L 373.139039 27120.113745 
L 373.139039 57.850348 
L 370.086685 57.850348 
z
" style="fill:#1f77b4;opacity:0.4;"/>
   </g>
   <g id="patch_95">
    <path clip-path="url(#p75856eb902)" d="M 373.139035 27120.113745 
L 376.191396 27120.113745 
L 376.191396 62.399662 
L 373.139035 62.399662 
z
" style="fill:#1f77b4;opacity:0.4;"/>
   </g>
   <g id="patch_96">
    <path clip-path="url(#p75856eb902)" d="M 376.191396 27120.113745 
L 379.24375 27120.113745 
L 379.24375 67.252879 
L 376.191396 67.252879 
z
" style="fill:#1f77b4;opacity:0.4;"/>
   </g>
   <g id="patch_97">
    <path clip-path="url(#p75856eb902)" d="M 379.24375 27120.113745 
L 382.296103 27120.113745 
L 382.296103 72.741922 
L 379.24375 72.741922 
z
" style="fill:#1f77b4;opacity:0.4;"/>
   </g>
   <g id="patch_98">
    <path clip-path="url(#p75856eb902)" d="M 382.296103 27120.113745 
L 385.348457 27120.113745 
L 385.348457 77.719244 
L 382.296103 77.719244 
z
" style="fill:#1f77b4;opacity:0.4;"/>
   </g>
   <g id="patch_99">
    <path clip-path="url(#p75856eb902)" d="M 385.348457 27120.113745 
L 388.400818 27120.113745 
L 388.400818 84.320375 
L 385.348457 84.320375 
z
" style="fill:#1f77b4;opacity:0.4;"/>
   </g>
   <g id="patch_100">
    <path clip-path="url(#p75856eb902)" d="M 388.400814 27120.113745 
L 391.453168 27120.113745 
L 391.453168 90.898 
L 388.400814 90.898 
z
" style="fill:#1f77b4;opacity:0.4;"/>
   </g>
   <g id="patch_101">
    <path clip-path="url(#p75856eb902)" d="M 391.453168 27120.113745 
L 394.505521 27120.113745 
L 394.505521 97.298877 
L 391.453168 97.298877 
z
" style="fill:#1f77b4;opacity:0.4;"/>
   </g>
   <g id="patch_102">
    <path clip-path="url(#p75856eb902)" d="M 394.505517 27120.113745 
L 397.557878 27120.113745 
L 397.557878 104.860997 
L 394.505517 104.860997 
z
" style="fill:#1f77b4;opacity:0.4;"/>
   </g>
   <g id="patch_103">
    <path clip-path="url(#p75856eb902)" d="M 397.557878 27120.113745 
L 400.610232 27120.113745 
L 400.610232 113.075637 
L 397.557878 113.075637 
z
" style="fill:#1f77b4;opacity:0.4;"/>
   </g>
   <g id="patch_104">
    <path clip-path="url(#p75856eb902)" d="M 400.610232 27120.113745 
L 403.662585 27120.113745 
L 403.662585 118.629686 
L 400.610232 118.629686 
z
" style="fill:#1f77b4;opacity:0.4;"/>
   </g>
   <g id="patch_105">
    <path clip-path="url(#p75856eb902)" d="M 403.662585 27120.113745 
L 406.714951 27120.113745 
L 406.714951 128.600199 
L 403.662585 128.600199 
z
" style="fill:#1f77b4;opacity:0.4;"/>
   </g>
   <g id="patch_106">
    <path clip-path="url(#p75856eb902)" d="M 406.714943 27120.113745 
L 409.767296 27120.113745 
L 409.767296 138.14273 
L 406.714943 138.14273 
z
" style="fill:#1f77b4;opacity:0.4;"/>
   </g>
   <g id="patch_107">
    <path clip-path="url(#p75856eb902)" d="M 409.767296 27120.113745 
L 412.81965 27120.113745 
L 412.81965 142.914002 
L 409.767296 142.914002 
z
" style="fill:#1f77b4;opacity:0.4;"/>
   </g>
   <g id="patch_108">
    <path clip-path="url(#p75856eb902)" d="M 264.850194 27120.113745 
L 267.823858 27120.113745 
L 267.823858 158.919752 
L 264.850194 158.919752 
z
" style="fill:#ff7f0e;opacity:0.4;"/>
   </g>
   <g id="patch_109">
    <path clip-path="url(#p75856eb902)" d="M 267.82385 27120.113745 
L 270.797515 27120.113745 
L 270.797515 167.076296 
L 267.82385 167.076296 
z
" style="fill:#ff7f0e;opacity:0.4;"/>
   </g>
   <g id="patch_110">
    <path clip-path="url(#p75856eb902)" d="M 270.797523 27120.113745 
L 273.771187 27120.113745 
L 273.771187 150.763207 
L 270.797523 150.763207 
z
" style="fill:#ff7f0e;opacity:0.4;"/>
   </g>
   <g id="patch_111">
    <path clip-path="url(#p75856eb902)" d="M 273.771179 27120.113745 
L 276.744844 27120.113745 
L 276.744844 154.148479 
L 273.771179 154.148479 
z
" style="fill:#ff7f0e;opacity:0.4;"/>
   </g>
   <g id="patch_112">
    <path clip-path="url(#p75856eb902)" d="M 276.744844 27120.113745 
L 279.718508 27120.113745 
L 279.718508 141.220661 
L 276.744844 141.220661 
z
" style="fill:#ff7f0e;opacity:0.4;"/>
   </g>
   <g id="patch_113">
    <path clip-path="url(#p75856eb902)" d="M 279.718508 27120.113745 
L 282.692173 27120.113745 
L 282.692173 123.667752 
L 279.718508 123.667752 
z
" style="fill:#ff7f0e;opacity:0.4;"/>
   </g>
   <g id="patch_114">
    <path clip-path="url(#p75856eb902)" d="M 282.692173 27120.113745 
L 285.665837 27120.113745 
L 285.665837 118.322346 
L 282.692173 118.322346 
z
" style="fill:#ff7f0e;opacity:0.4;"/>
   </g>
   <g id="patch_115">
    <path clip-path="url(#p75856eb902)" d="M 285.665837 27120.113745 
L 288.639502 27120.113745 
L 288.639502 106.166438 
L 285.665837 106.166438 
z
" style="fill:#ff7f0e;opacity:0.4;"/>
   </g>
   <g id="patch_116">
    <path clip-path="url(#p75856eb902)" d="M 288.639502 27120.113745 
L 291.613166 27120.113745 
L 291.613166 98.943481 
L 288.639502 98.943481 
z
" style="fill:#ff7f0e;opacity:0.4;"/>
   </g>
   <g id="patch_117">
    <path clip-path="url(#p75856eb902)" d="M 291.613166 27120.113745 
L 294.586831 27120.113745 
L 294.586831 92.404613 
L 291.613166 92.404613 
z
" style="fill:#ff7f0e;opacity:0.4;"/>
   </g>
   <g id="patch_118">
    <path clip-path="url(#p75856eb902)" d="M 294.586831 27120.113745 
L 297.560495 27120.113745 
L 297.560495 84.67908 
L 294.586831 84.67908 
z
" style="fill:#ff7f0e;opacity:0.4;"/>
   </g>
   <g id="patch_119">
    <path clip-path="url(#p75856eb902)" d="M 297.560495 27120.113745 
L 300.534159 27120.113745 
L 300.534159 77.716048 
L 297.560495 77.716048 
z
" style="fill:#ff7f0e;opacity:0.4;"/>
   </g>
   <g id="patch_120">
    <path clip-path="url(#p75856eb902)" d="M 300.534159 27120.113745 
L 303.507832 27120.113745 
L 303.507832 71.794186 
L 300.534159 71.794186 
z
" style="fill:#ff7f0e;opacity:0.4;"/>
   </g>
   <g id="patch_121">
    <path clip-path="url(#p75856eb902)" d="M 303.507828 27120.113745 
L 306.481492 27120.113745 
L 306.481492 66.145374 
L 303.507828 66.145374 
z
" style="fill:#ff7f0e;opacity:0.4;"/>
   </g>
   <g id="patch_122">
    <path clip-path="url(#p75856eb902)" d="M 306.48149 27120.113745 
L 309.455155 27120.113745 
L 309.455155 60.830518 
L 306.48149 60.830518 
z
" style="fill:#ff7f0e;opacity:0.4;"/>
   </g>
   <g id="patch_123">
    <path clip-path="url(#p75856eb902)" d="M 309.455155 27120.113745 
L 312.428819 27120.113745 
L 312.428819 55.993584 
L 309.455155 55.993584 
z
" style="fill:#ff7f0e;opacity:0.4;"/>
   </g>
   <g id="patch_124">
    <path clip-path="url(#p75856eb902)" d="M 312.428819 27120.113745 
L 315.402484 27120.113745 
L 315.402484 51.665842 
L 312.428819 51.665842 
z
" style="fill:#ff7f0e;opacity:0.4;"/>
   </g>
   <g id="patch_125">
    <path clip-path="url(#p75856eb902)" d="M 315.402484 27120.113745 
L 318.376148 27120.113745 
L 318.376148 47.846397 
L 315.402484 47.846397 
z
" style="fill:#ff7f0e;opacity:0.4;"/>
   </g>
   <g id="patch_126">
    <path clip-path="url(#p75856eb902)" d="M 318.37615 27120.113745 
L 321.349815 27120.113745 
L 321.349815 44.42713 
L 318.37615 44.42713 
z
" style="fill:#ff7f0e;opacity:0.4;"/>
   </g>
   <g id="patch_127">
    <path clip-path="url(#p75856eb902)" d="M 321.349815 27120.113745 
L 324.323479 27120.113745 
L 324.323479 41.492925 
L 321.349815 41.492925 
z
" style="fill:#ff7f0e;opacity:0.4;"/>
   </g>
   <g id="patch_128">
    <path clip-path="url(#p75856eb902)" d="M 324.323478 27120.113745 
L 327.297143 27120.113745 
L 327.297143 39.144954 
L 324.323478 39.144954 
z
" style="fill:#ff7f0e;opacity:0.4;"/>
   </g>
   <g id="patch_129">
    <path clip-path="url(#p75856eb902)" d="M 327.297144 27120.113745 
L 330.270808 27120.113745 
L 330.270808 37.138413 
L 327.297144 37.138413 
z
" style="fill:#ff7f0e;opacity:0.4;"/>
   </g>
   <g id="patch_130">
    <path clip-path="url(#p75856eb902)" d="M 330.270808 27120.113745 
L 333.244473 27120.113745 
L 333.244473 35.743994 
L 330.270808 35.743994 
z
" style="fill:#ff7f0e;opacity:0.4;"/>
   </g>
   <g id="patch_131">
    <path clip-path="url(#p75856eb902)" d="M 333.244472 27120.113745 
L 336.218136 27120.113745 
L 336.218136 34.750961 
L 333.244472 34.750961 
z
" style="fill:#ff7f0e;opacity:0.4;"/>
   </g>
   <g id="patch_132">
    <path clip-path="url(#p75856eb902)" d="M 336.218137 27120.113745 
L 339.191801 27120.113745 
L 339.191801 34.262117 
L 336.218137 34.262117 
z
" style="fill:#ff7f0e;opacity:0.4;"/>
   </g>
   <g id="patch_133">
    <path clip-path="url(#p75856eb902)" d="M 339.191802 27120.113745 
L 342.165466 27120.113745 
L 342.165466 34.256364 
L 339.191802 34.256364 
z
" style="fill:#ff7f0e;opacity:0.4;"/>
   </g>
   <g id="patch_134">
    <path clip-path="url(#p75856eb902)" d="M 342.165466 27120.113745 
L 345.139131 27120.113745 
L 345.139131 34.648047 
L 342.165466 34.648047 
z
" style="fill:#ff7f0e;opacity:0.4;"/>
   </g>
   <g id="patch_135">
    <path clip-path="url(#p75856eb902)" d="M 345.13913 27120.113745 
L 348.112795 27120.113745 
L 348.112795 35.643007 
L 345.13913 35.643007 
z
" style="fill:#ff7f0e;opacity:0.4;"/>
   </g>
   <g id="patch_136">
    <path clip-path="url(#p75856eb902)" d="M 348.112795 27120.113745 
L 351.086459 27120.113745 
L 351.086459 36.946483 
L 348.112795 36.946483 
z
" style="fill:#ff7f0e;opacity:0.4;"/>
   </g>
   <g id="patch_137">
    <path clip-path="url(#p75856eb902)" d="M 351.08646 27120.113745 
L 354.060125 27120.113745 
L 354.060125 38.923821 
L 351.08646 38.923821 
z
" style="fill:#ff7f0e;opacity:0.4;"/>
   </g>
   <g id="patch_138">
    <path clip-path="url(#p75856eb902)" d="M 354.060124 27120.113745 
L 357.033788 27120.113745 
L 357.033788 41.230448 
L 354.060124 41.230448 
z
" style="fill:#ff7f0e;opacity:0.4;"/>
   </g>
   <g id="patch_139">
    <path clip-path="url(#p75856eb902)" d="M 357.033788 27120.113745 
L 360.007453 27120.113745 
L 360.007453 44.041471 
L 357.033788 44.041471 
z
" style="fill:#ff7f0e;opacity:0.4;"/>
   </g>
   <g id="patch_140">
    <path clip-path="url(#p75856eb902)" d="M 360.007455 27120.113745 
L 362.981119 27120.113745 
L 362.981119 47.460093 
L 360.007455 47.460093 
z
" style="fill:#ff7f0e;opacity:0.4;"/>
   </g>
   <g id="patch_141">
    <path clip-path="url(#p75856eb902)" d="M 362.981119 27120.113745 
L 365.954784 27120.113745 
L 365.954784 51.050829 
L 362.981119 51.050829 
z
" style="fill:#ff7f0e;opacity:0.4;"/>
   </g>
   <g id="patch_142">
    <path clip-path="url(#p75856eb902)" d="M 365.954784 27120.113745 
L 368.928448 27120.113745 
L 368.928448 55.48556 
L 365.954784 55.48556 
z
" style="fill:#ff7f0e;opacity:0.4;"/>
   </g>
   <g id="patch_143">
    <path clip-path="url(#p75856eb902)" d="M 368.928448 27120.113745 
L 371.902113 27120.113745 
L 371.902113 60.17203 
L 368.928448 60.17203 
z
" style="fill:#ff7f0e;opacity:0.4;"/>
   </g>
   <g id="patch_144">
    <path clip-path="url(#p75856eb902)" d="M 371.902111 27120.113745 
L 374.875775 27120.113745 
L 374.875775 65.525837 
L 371.902111 65.525837 
z
" style="fill:#ff7f0e;opacity:0.4;"/>
   </g>
   <g id="patch_145">
    <path clip-path="url(#p75856eb902)" d="M 374.875771 27120.113745 
L 377.849443 27120.113745 
L 377.849443 71.389284 
L 374.875771 71.389284 
z
" style="fill:#ff7f0e;opacity:0.4;"/>
   </g>
   <g id="patch_146">
    <path clip-path="url(#p75856eb902)" d="M 377.849443 27120.113745 
L 380.823108 27120.113745 
L 380.823108 77.423457 
L 377.849443 77.423457 
z
" style="fill:#ff7f0e;opacity:0.4;"/>
   </g>
   <g id="patch_147">
    <path clip-path="url(#p75856eb902)" d="M 380.823108 27120.113745 
L 383.796772 27120.113745 
L 383.796772 84.053562 
L 380.823108 84.053562 
z
" style="fill:#ff7f0e;opacity:0.4;"/>
   </g>
   <g id="patch_148">
    <path clip-path="url(#p75856eb902)" d="M 383.796772 27120.113745 
L 386.770437 27120.113745 
L 386.770437 90.715184 
L 383.796772 90.715184 
z
" style="fill:#ff7f0e;opacity:0.4;"/>
   </g>
   <g id="patch_149">
    <path clip-path="url(#p75856eb902)" d="M 386.770437 27120.113745 
L 389.744101 27120.113745 
L 389.744101 98.484724 
L 386.770437 98.484724 
z
" style="fill:#ff7f0e;opacity:0.4;"/>
   </g>
   <g id="patch_150">
    <path clip-path="url(#p75856eb902)" d="M 389.744101 27120.113745 
L 392.717766 27120.113745 
L 392.717766 106.503636 
L 389.744101 106.503636 
z
" style="fill:#ff7f0e;opacity:0.4;"/>
   </g>
   <g id="patch_151">
    <path clip-path="url(#p75856eb902)" d="M 392.717766 27120.113745 
L 395.69143 27120.113745 
L 395.69143 113.995179 
L 392.717766 113.995179 
z
" style="fill:#ff7f0e;opacity:0.4;"/>
   </g>
   <g id="patch_152">
    <path clip-path="url(#p75856eb902)" d="M 395.69143 27120.113745 
L 398.665095 27120.113745 
L 398.665095 126.667173 
L 395.69143 126.667173 
z
" style="fill:#ff7f0e;opacity:0.4;"/>
   </g>
   <g id="patch_153">
    <path clip-path="url(#p75856eb902)" d="M 398.665095 27120.113745 
L 401.638759 27120.113745 
L 401.638759 134.450118 
L 398.665095 134.450118 
z
" style="fill:#ff7f0e;opacity:0.4;"/>
   </g>
   <g id="patch_154">
    <path clip-path="url(#p75856eb902)" d="M 401.638759 27120.113745 
L 404.612424 27120.113745 
L 404.612424 141.220661 
L 401.638759 141.220661 
z
" style="fill:#ff7f0e;opacity:0.4;"/>
   </g>
   <g id="patch_155">
    <path clip-path="url(#p75856eb902)" d="M 404.612428 27120.113745 
L 407.586088 27120.113745 
L 407.586088 154.148479 
L 404.612428 154.148479 
z
" style="fill:#ff7f0e;opacity:0.4;"/>
   </g>
   <g id="patch_156">
    <path clip-path="url(#p75856eb902)" d="M 407.586088 27120.113745 
L 410.559752 27120.113745 
L 410.559752 158.919752 
L 407.586088 158.919752 
z
" style="fill:#ff7f0e;opacity:0.4;"/>
   </g>
   <g id="patch_157">
    <path clip-path="url(#p75856eb902)" d="M 410.55976 27120.113745 
L 413.533425 27120.113745 
L 413.533425 167.076296 
L 410.55976 167.076296 
z
" style="fill:#ff7f0e;opacity:0.4;"/>
   </g>
   <g id="matplotlib.axis_3">
    <g id="xtick_4">
     <g id="line2d_51">
      <g>
       <use style="stroke:#000000;stroke-width:0.8;" x="256.941858" xlink:href="#m74d9be6636" y="174.04"/>
      </g>
     </g>
     <g id="text_11">
      <!-- −5.0 -->
      <defs>
       <path d="M 10.6875 12.40625 
L 21 12.40625 
L 21 0 
L 10.6875 0 
z
" id="DejaVuSans-46"/>
      </defs>
      <g transform="translate(244.800452 188.638438)scale(0.1 -0.1)">
       <use xlink:href="#DejaVuSans-8722"/>
       <use x="83.789062" xlink:href="#DejaVuSans-53"/>
       <use x="147.412109" xlink:href="#DejaVuSans-46"/>
       <use x="179.199219" xlink:href="#DejaVuSans-48"/>
      </g>
     </g>
    </g>
    <g id="xtick_5">
     <g id="line2d_52">
      <g>
       <use style="stroke:#000000;stroke-width:0.8;" x="298.160462" xlink:href="#m74d9be6636" y="174.04"/>
      </g>
     </g>
     <g id="text_12">
      <!-- −2.5 -->
      <g transform="translate(286.019056 188.638438)scale(0.1 -0.1)">
       <use xlink:href="#DejaVuSans-8722"/>
       <use x="83.789062" xlink:href="#DejaVuSans-50"/>
       <use x="147.412109" xlink:href="#DejaVuSans-46"/>
       <use x="179.199219" xlink:href="#DejaVuSans-53"/>
      </g>
     </g>
    </g>
    <g id="xtick_6">
     <g id="line2d_53">
      <g>
       <use style="stroke:#000000;stroke-width:0.8;" x="339.379066" xlink:href="#m74d9be6636" y="174.04"/>
      </g>
     </g>
     <g id="text_13">
      <!-- 0.0 -->
      <g transform="translate(331.427504 188.638438)scale(0.1 -0.1)">
       <use xlink:href="#DejaVuSans-48"/>
       <use x="63.623047" xlink:href="#DejaVuSans-46"/>
       <use x="95.410156" xlink:href="#DejaVuSans-48"/>
      </g>
     </g>
    </g>
    <g id="xtick_7">
     <g id="line2d_54">
      <g>
       <use style="stroke:#000000;stroke-width:0.8;" x="380.59767" xlink:href="#m74d9be6636" y="174.04"/>
      </g>
     </g>
     <g id="text_14">
      <!-- 2.5 -->
      <g transform="translate(372.646108 188.638438)scale(0.1 -0.1)">
       <use xlink:href="#DejaVuSans-50"/>
       <use x="63.623047" xlink:href="#DejaVuSans-46"/>
       <use x="95.410156" xlink:href="#DejaVuSans-53"/>
      </g>
     </g>
    </g>
    <g id="text_15">
     <!-- theta -->
     <defs>
      <path d="M 54.890625 33.015625 
L 54.890625 0 
L 45.90625 0 
L 45.90625 32.71875 
Q 45.90625 40.484375 42.875 44.328125 
Q 39.84375 48.1875 33.796875 48.1875 
Q 26.515625 48.1875 22.3125 43.546875 
Q 18.109375 38.921875 18.109375 30.90625 
L 18.109375 0 
L 9.078125 0 
L 9.078125 75.984375 
L 18.109375 75.984375 
L 18.109375 46.1875 
Q 21.34375 51.125 25.703125 53.5625 
Q 30.078125 56 35.796875 56 
Q 45.21875 56 50.046875 50.171875 
Q 54.890625 44.34375 54.890625 33.015625 
z
" id="DejaVuSans-104"/>
     </defs>
     <g transform="translate(323.637986 202.316563)scale(0.1 -0.1)">
      <use xlink:href="#DejaVuSans-116"/>
      <use x="39.208984" xlink:href="#DejaVuSans-104"/>
      <use x="102.587891" xlink:href="#DejaVuSans-101"/>
      <use x="164.111328" xlink:href="#DejaVuSans-116"/>
      <use x="203.320312" xlink:href="#DejaVuSans-97"/>
     </g>
    </g>
   </g>
   <g id="matplotlib.axis_4">
    <g id="ytick_48">
     <g id="line2d_55">
      <g>
       <use style="stroke:#000000;stroke-width:0.8;" x="252.535346" xlink:href="#m0b5c4e14df" y="160.136102"/>
      </g>
     </g>
     <g id="text_16">
      <!-- $\mathdefault{10^{-5}}$ -->
      <g transform="translate(222.035346 163.935321)scale(0.1 -0.1)">
       <use transform="translate(0 0.684375)" xlink:href="#DejaVuSans-49"/>
       <use transform="translate(63.623047 0.684375)" xlink:href="#DejaVuSans-48"/>
       <use transform="translate(128.203125 38.965625)scale(0.7)" xlink:href="#DejaVuSans-8722"/>
       <use transform="translate(186.855469 38.965625)scale(0.7)" xlink:href="#DejaVuSans-53"/>
      </g>
     </g>
    </g>
    <g id="ytick_49">
     <g id="line2d_56">
      <g>
       <use style="stroke:#000000;stroke-width:0.8;" x="252.535346" xlink:href="#m0b5c4e14df" y="133.040647"/>
      </g>
     </g>
     <g id="text_17">
      <!-- $\mathdefault{10^{-4}}$ -->
      <g transform="translate(222.035346 136.839866)scale(0.1 -0.1)">
       <use transform="translate(0 0.684375)" xlink:href="#DejaVuSans-49"/>
       <use transform="translate(63.623047 0.684375)" xlink:href="#DejaVuSans-48"/>
       <use transform="translate(128.203125 38.965625)scale(0.7)" xlink:href="#DejaVuSans-8722"/>
       <use transform="translate(186.855469 38.965625)scale(0.7)" xlink:href="#DejaVuSans-52"/>
      </g>
     </g>
    </g>
    <g id="ytick_50">
     <g id="line2d_57">
      <g>
       <use style="stroke:#000000;stroke-width:0.8;" x="252.535346" xlink:href="#m0b5c4e14df" y="105.945192"/>
      </g>
     </g>
     <g id="text_18">
      <!-- $\mathdefault{10^{-3}}$ -->
      <g transform="translate(222.035346 109.744411)scale(0.1 -0.1)">
       <use transform="translate(0 0.765625)" xlink:href="#DejaVuSans-49"/>
       <use transform="translate(63.623047 0.765625)" xlink:href="#DejaVuSans-48"/>
       <use transform="translate(128.203125 39.046875)scale(0.7)" xlink:href="#DejaVuSans-8722"/>
       <use transform="translate(186.855469 39.046875)scale(0.7)" xlink:href="#DejaVuSans-51"/>
      </g>
     </g>
    </g>
    <g id="ytick_51">
     <g id="line2d_58">
      <g>
       <use style="stroke:#000000;stroke-width:0.8;" x="252.535346" xlink:href="#m0b5c4e14df" y="78.849737"/>
      </g>
     </g>
     <g id="text_19">
      <!-- $\mathdefault{10^{-2}}$ -->
      <g transform="translate(222.035346 82.648956)scale(0.1 -0.1)">
       <use transform="translate(0 0.765625)" xlink:href="#DejaVuSans-49"/>
       <use transform="translate(63.623047 0.765625)" xlink:href="#DejaVuSans-48"/>
       <use transform="translate(128.203125 39.046875)scale(0.7)" xlink:href="#DejaVuSans-8722"/>
       <use transform="translate(186.855469 39.046875)scale(0.7)" xlink:href="#DejaVuSans-50"/>
      </g>
     </g>
    </g>
    <g id="ytick_52">
     <g id="line2d_59">
      <g>
       <use style="stroke:#000000;stroke-width:0.8;" x="252.535346" xlink:href="#m0b5c4e14df" y="51.754282"/>
      </g>
     </g>
     <g id="text_20">
      <!-- $\mathdefault{10^{-1}}$ -->
      <g transform="translate(222.035346 55.553501)scale(0.1 -0.1)">
       <use transform="translate(0 0.684375)" xlink:href="#DejaVuSans-49"/>
       <use transform="translate(63.623047 0.684375)" xlink:href="#DejaVuSans-48"/>
       <use transform="translate(128.203125 38.965625)scale(0.7)" xlink:href="#DejaVuSans-8722"/>
       <use transform="translate(186.855469 38.965625)scale(0.7)" xlink:href="#DejaVuSans-49"/>
      </g>
     </g>
    </g>
    <g id="ytick_53">
     <g id="line2d_60">
      <g>
       <use style="stroke:#000000;stroke-width:0.6;" x="252.535346" xlink:href="#mdcde2d7982" y="170.918468"/>
      </g>
     </g>
    </g>
    <g id="ytick_54">
     <g id="line2d_61">
      <g>
       <use style="stroke:#000000;stroke-width:0.6;" x="252.535346" xlink:href="#mdcde2d7982" y="168.292647"/>
      </g>
     </g>
    </g>
    <g id="ytick_55">
     <g id="line2d_62">
      <g>
       <use style="stroke:#000000;stroke-width:0.6;" x="252.535346" xlink:href="#mdcde2d7982" y="166.147195"/>
      </g>
     </g>
    </g>
    <g id="ytick_56">
     <g id="line2d_63">
      <g>
       <use style="stroke:#000000;stroke-width:0.6;" x="252.535346" xlink:href="#mdcde2d7982" y="164.333241"/>
      </g>
     </g>
    </g>
    <g id="ytick_57">
     <g id="line2d_64">
      <g>
       <use style="stroke:#000000;stroke-width:0.6;" x="252.535346" xlink:href="#mdcde2d7982" y="162.761923"/>
      </g>
     </g>
    </g>
    <g id="ytick_58">
     <g id="line2d_65">
      <g>
       <use style="stroke:#000000;stroke-width:0.6;" x="252.535346" xlink:href="#mdcde2d7982" y="161.375922"/>
      </g>
     </g>
    </g>
    <g id="ytick_59">
     <g id="line2d_66">
      <g>
       <use style="stroke:#000000;stroke-width:0.6;" x="252.535346" xlink:href="#mdcde2d7982" y="151.979557"/>
      </g>
     </g>
    </g>
    <g id="ytick_60">
     <g id="line2d_67">
      <g>
       <use style="stroke:#000000;stroke-width:0.6;" x="252.535346" xlink:href="#mdcde2d7982" y="147.208284"/>
      </g>
     </g>
    </g>
    <g id="ytick_61">
     <g id="line2d_68">
      <g>
       <use style="stroke:#000000;stroke-width:0.6;" x="252.535346" xlink:href="#mdcde2d7982" y="143.823013"/>
      </g>
     </g>
    </g>
    <g id="ytick_62">
     <g id="line2d_69">
      <g>
       <use style="stroke:#000000;stroke-width:0.6;" x="252.535346" xlink:href="#mdcde2d7982" y="141.197192"/>
      </g>
     </g>
    </g>
    <g id="ytick_63">
     <g id="line2d_70">
      <g>
       <use style="stroke:#000000;stroke-width:0.6;" x="252.535346" xlink:href="#mdcde2d7982" y="139.05174"/>
      </g>
     </g>
    </g>
    <g id="ytick_64">
     <g id="line2d_71">
      <g>
       <use style="stroke:#000000;stroke-width:0.6;" x="252.535346" xlink:href="#mdcde2d7982" y="137.237786"/>
      </g>
     </g>
    </g>
    <g id="ytick_65">
     <g id="line2d_72">
      <g>
       <use style="stroke:#000000;stroke-width:0.6;" x="252.535346" xlink:href="#mdcde2d7982" y="135.666468"/>
      </g>
     </g>
    </g>
    <g id="ytick_66">
     <g id="line2d_73">
      <g>
       <use style="stroke:#000000;stroke-width:0.6;" x="252.535346" xlink:href="#mdcde2d7982" y="134.280467"/>
      </g>
     </g>
    </g>
    <g id="ytick_67">
     <g id="line2d_74">
      <g>
       <use style="stroke:#000000;stroke-width:0.6;" x="252.535346" xlink:href="#mdcde2d7982" y="124.884102"/>
      </g>
     </g>
    </g>
    <g id="ytick_68">
     <g id="line2d_75">
      <g>
       <use style="stroke:#000000;stroke-width:0.6;" x="252.535346" xlink:href="#mdcde2d7982" y="120.11283"/>
      </g>
     </g>
    </g>
    <g id="ytick_69">
     <g id="line2d_76">
      <g>
       <use style="stroke:#000000;stroke-width:0.6;" x="252.535346" xlink:href="#mdcde2d7982" y="116.727558"/>
      </g>
     </g>
    </g>
    <g id="ytick_70">
     <g id="line2d_77">
      <g>
       <use style="stroke:#000000;stroke-width:0.6;" x="252.535346" xlink:href="#mdcde2d7982" y="114.101737"/>
      </g>
     </g>
    </g>
    <g id="ytick_71">
     <g id="line2d_78">
      <g>
       <use style="stroke:#000000;stroke-width:0.6;" x="252.535346" xlink:href="#mdcde2d7982" y="111.956285"/>
      </g>
     </g>
    </g>
    <g id="ytick_72">
     <g id="line2d_79">
      <g>
       <use style="stroke:#000000;stroke-width:0.6;" x="252.535346" xlink:href="#mdcde2d7982" y="110.142331"/>
      </g>
     </g>
    </g>
    <g id="ytick_73">
     <g id="line2d_80">
      <g>
       <use style="stroke:#000000;stroke-width:0.6;" x="252.535346" xlink:href="#mdcde2d7982" y="108.571013"/>
      </g>
     </g>
    </g>
    <g id="ytick_74">
     <g id="line2d_81">
      <g>
       <use style="stroke:#000000;stroke-width:0.6;" x="252.535346" xlink:href="#mdcde2d7982" y="107.185012"/>
      </g>
     </g>
    </g>
    <g id="ytick_75">
     <g id="line2d_82">
      <g>
       <use style="stroke:#000000;stroke-width:0.6;" x="252.535346" xlink:href="#mdcde2d7982" y="97.788647"/>
      </g>
     </g>
    </g>
    <g id="ytick_76">
     <g id="line2d_83">
      <g>
       <use style="stroke:#000000;stroke-width:0.6;" x="252.535346" xlink:href="#mdcde2d7982" y="93.017375"/>
      </g>
     </g>
    </g>
    <g id="ytick_77">
     <g id="line2d_84">
      <g>
       <use style="stroke:#000000;stroke-width:0.6;" x="252.535346" xlink:href="#mdcde2d7982" y="89.632103"/>
      </g>
     </g>
    </g>
    <g id="ytick_78">
     <g id="line2d_85">
      <g>
       <use style="stroke:#000000;stroke-width:0.6;" x="252.535346" xlink:href="#mdcde2d7982" y="87.006282"/>
      </g>
     </g>
    </g>
    <g id="ytick_79">
     <g id="line2d_86">
      <g>
       <use style="stroke:#000000;stroke-width:0.6;" x="252.535346" xlink:href="#mdcde2d7982" y="84.86083"/>
      </g>
     </g>
    </g>
    <g id="ytick_80">
     <g id="line2d_87">
      <g>
       <use style="stroke:#000000;stroke-width:0.6;" x="252.535346" xlink:href="#mdcde2d7982" y="83.046876"/>
      </g>
     </g>
    </g>
    <g id="ytick_81">
     <g id="line2d_88">
      <g>
       <use style="stroke:#000000;stroke-width:0.6;" x="252.535346" xlink:href="#mdcde2d7982" y="81.475558"/>
      </g>
     </g>
    </g>
    <g id="ytick_82">
     <g id="line2d_89">
      <g>
       <use style="stroke:#000000;stroke-width:0.6;" x="252.535346" xlink:href="#mdcde2d7982" y="80.089557"/>
      </g>
     </g>
    </g>
    <g id="ytick_83">
     <g id="line2d_90">
      <g>
       <use style="stroke:#000000;stroke-width:0.6;" x="252.535346" xlink:href="#mdcde2d7982" y="70.693193"/>
      </g>
     </g>
    </g>
    <g id="ytick_84">
     <g id="line2d_91">
      <g>
       <use style="stroke:#000000;stroke-width:0.6;" x="252.535346" xlink:href="#mdcde2d7982" y="65.92192"/>
      </g>
     </g>
    </g>
    <g id="ytick_85">
     <g id="line2d_92">
      <g>
       <use style="stroke:#000000;stroke-width:0.6;" x="252.535346" xlink:href="#mdcde2d7982" y="62.536648"/>
      </g>
     </g>
    </g>
    <g id="ytick_86">
     <g id="line2d_93">
      <g>
       <use style="stroke:#000000;stroke-width:0.6;" x="252.535346" xlink:href="#mdcde2d7982" y="59.910827"/>
      </g>
     </g>
    </g>
    <g id="ytick_87">
     <g id="line2d_94">
      <g>
       <use style="stroke:#000000;stroke-width:0.6;" x="252.535346" xlink:href="#mdcde2d7982" y="57.765375"/>
      </g>
     </g>
    </g>
    <g id="ytick_88">
     <g id="line2d_95">
      <g>
       <use style="stroke:#000000;stroke-width:0.6;" x="252.535346" xlink:href="#mdcde2d7982" y="55.951421"/>
      </g>
     </g>
    </g>
    <g id="ytick_89">
     <g id="line2d_96">
      <g>
       <use style="stroke:#000000;stroke-width:0.6;" x="252.535346" xlink:href="#mdcde2d7982" y="54.380103"/>
      </g>
     </g>
    </g>
    <g id="ytick_90">
     <g id="line2d_97">
      <g>
       <use style="stroke:#000000;stroke-width:0.6;" x="252.535346" xlink:href="#mdcde2d7982" y="52.994102"/>
      </g>
     </g>
    </g>
    <g id="ytick_91">
     <g id="line2d_98">
      <g>
       <use style="stroke:#000000;stroke-width:0.6;" x="252.535346" xlink:href="#mdcde2d7982" y="43.597738"/>
      </g>
     </g>
    </g>
    <g id="ytick_92">
     <g id="line2d_99">
      <g>
       <use style="stroke:#000000;stroke-width:0.6;" x="252.535346" xlink:href="#mdcde2d7982" y="38.826465"/>
      </g>
     </g>
    </g>
    <g id="ytick_93">
     <g id="line2d_100">
      <g>
       <use style="stroke:#000000;stroke-width:0.6;" x="252.535346" xlink:href="#mdcde2d7982" y="35.441193"/>
      </g>
     </g>
    </g>
    <g id="ytick_94">
     <g id="line2d_101">
      <g>
       <use style="stroke:#000000;stroke-width:0.6;" x="252.535346" xlink:href="#mdcde2d7982" y="32.815372"/>
      </g>
     </g>
    </g>
    <g id="ytick_95">
     <g id="line2d_102">
      <g>
       <use style="stroke:#000000;stroke-width:0.6;" x="252.535346" xlink:href="#mdcde2d7982" y="30.66992"/>
      </g>
     </g>
    </g>
    <g id="ytick_96">
     <g id="line2d_103">
      <g>
       <use style="stroke:#000000;stroke-width:0.6;" x="252.535346" xlink:href="#mdcde2d7982" y="28.855966"/>
      </g>
     </g>
    </g>
   </g>
   <g id="patch_158">
    <path d="M 252.535346 174.04 
L 252.535346 27.6 
" style="fill:none;stroke:#000000;stroke-linecap:square;stroke-linejoin:miter;stroke-width:0.8;"/>
   </g>
   <g id="patch_159">
    <path d="M 421.2 174.04 
L 421.2 27.6 
" style="fill:none;stroke:#000000;stroke-linecap:square;stroke-linejoin:miter;stroke-width:0.8;"/>
   </g>
   <g id="patch_160">
    <path d="M 252.535346 174.04 
L 421.2 174.04 
" style="fill:none;stroke:#000000;stroke-linecap:square;stroke-linejoin:miter;stroke-width:0.8;"/>
   </g>
   <g id="patch_161">
    <path d="M 252.535346 27.6 
L 421.2 27.6 
" style="fill:none;stroke:#000000;stroke-linecap:square;stroke-linejoin:miter;stroke-width:0.8;"/>
   </g>
  </g>
 </g>
 <defs>
  <clipPath id="pff0444080f">
   <rect height="146.44" width="168.664654" x="41.935346" y="27.6"/>
  </clipPath>
  <clipPath id="p75856eb902">
   <rect height="146.44" width="168.664654" x="252.535346" y="27.6"/>
  </clipPath>
 </defs>
</svg>
