<?xml version="1.0" encoding="utf-8" standalone="no"?>
<!DOCTYPE svg PUBLIC "-//W3C//DTD SVG 1.1//EN"
  "http://www.w3.org/Graphics/SVG/1.1/DTD/svg11.dtd">
<!-- Created with matplotlib (https://matplotlib.org/) -->
<svg height="216pt" version="1.1" viewBox="0 0 432 216" width="432pt" xmlns="http://www.w3.org/2000/svg" xmlns:xlink="http://www.w3.org/1999/xlink">
 <defs>
  <style type="text/css">
*{stroke-linecap:butt;stroke-linejoin:round;}
  </style>
 </defs>
 <g id="figure_1">
  <g id="patch_1">
   <path d="M 0 216 
L 432 216 
L 432 0 
L 0 0 
z
" style="fill:#ffffff;"/>
  </g>
  <g id="axes_1">
   <g id="patch_2">
    <path d="M 41.935346 173.93875 
L 208.006597 173.93875 
L 208.006597 27.6 
L 41.935346 27.6 
z
" style="fill:#ffffff;"/>
   </g>
   <g id="patch_3">
    <path clip-path="url(#p2f5a0d7774)" d="M 49.484039 27353.577335 
L 52.503516 27353.577335 
L 52.503516 167.286989 
L 49.484039 167.286989 
z
" style="fill:#1f77b4;opacity:0.4;"/>
   </g>
   <g id="patch_4">
    <path clip-path="url(#p2f5a0d7774)" d="M 52.503516 27353.577335 
L 55.522992 27353.577335 
L 55.522992 154.247145 
L 52.503516 154.247145 
z
" style="fill:#1f77b4;opacity:0.4;"/>
   </g>
   <g id="patch_5">
    <path clip-path="url(#p2f5a0d7774)" d="M 55.522992 27353.577335 
L 58.542468 27353.577335 
L 58.542468 148.183962 
L 55.522992 148.183962 
z
" style="fill:#1f77b4;opacity:0.4;"/>
   </g>
   <g id="patch_6">
    <path clip-path="url(#p2f5a0d7774)" d="M 58.542468 27353.577335 
L 61.561952 27353.577335 
L 61.561952 135.144149 
L 58.542468 135.144149 
z
" style="fill:#1f77b4;opacity:0.4;"/>
   </g>
   <g id="patch_7">
    <path clip-path="url(#p2f5a0d7774)" d="M 61.56196 27353.577335 
L 64.581428 27353.577335 
L 64.581428 126.527683 
L 61.56196 126.527683 
z
" style="fill:#1f77b4;opacity:0.4;"/>
   </g>
   <g id="patch_8">
    <path clip-path="url(#p2f5a0d7774)" d="M 64.581424 27353.577335 
L 67.600908 27353.577335 
L 67.600908 117.92365 
L 64.581424 117.92365 
z
" style="fill:#1f77b4;opacity:0.4;"/>
   </g>
   <g id="patch_9">
    <path clip-path="url(#p2f5a0d7774)" d="M 67.600904 27353.577335 
L 70.620381 27353.577335 
L 70.620381 108.889877 
L 67.600904 108.889877 
z
" style="fill:#1f77b4;opacity:0.4;"/>
   </g>
   <g id="patch_10">
    <path clip-path="url(#p2f5a0d7774)" d="M 70.620381 27353.577335 
L 73.639857 27353.577335 
L 73.639857 102.485107 
L 70.620381 102.485107 
z
" style="fill:#1f77b4;opacity:0.4;"/>
   </g>
   <g id="patch_11">
    <path clip-path="url(#p2f5a0d7774)" d="M 73.639853 27353.577335 
L 76.659337 27353.577335 
L 76.659337 95.907948 
L 73.639853 95.907948 
z
" style="fill:#1f77b4;opacity:0.4;"/>
   </g>
   <g id="patch_12">
    <path clip-path="url(#p2f5a0d7774)" d="M 76.659337 27353.577335 
L 79.678813 27353.577335 
L 79.678813 89.129613 
L 76.659337 89.129613 
z
" style="fill:#1f77b4;opacity:0.4;"/>
   </g>
   <g id="patch_13">
    <path clip-path="url(#p2f5a0d7774)" d="M 79.678813 27353.577335 
L 82.698289 27353.577335 
L 82.698289 83.17182 
L 79.678813 83.17182 
z
" style="fill:#1f77b4;opacity:0.4;"/>
   </g>
   <g id="patch_14">
    <path clip-path="url(#p2f5a0d7774)" d="M 82.698289 27353.577335 
L 85.717766 27353.577335 
L 85.717766 76.654951 
L 82.698289 76.654951 
z
" style="fill:#1f77b4;opacity:0.4;"/>
   </g>
   <g id="patch_15">
    <path clip-path="url(#p2f5a0d7774)" d="M 85.717766 27353.577335 
L 88.73725 27353.577335 
L 88.73725 71.128729 
L 85.717766 71.128729 
z
" style="fill:#1f77b4;opacity:0.4;"/>
   </g>
   <g id="patch_16">
    <path clip-path="url(#p2f5a0d7774)" d="M 88.737246 27353.577335 
L 91.756722 27353.577335 
L 91.756722 65.704877 
L 88.737246 65.704877 
z
" style="fill:#1f77b4;opacity:0.4;"/>
   </g>
   <g id="patch_17">
    <path clip-path="url(#p2f5a0d7774)" d="M 91.756722 27353.577335 
L 94.776198 27353.577335 
L 94.776198 60.742843 
L 91.756722 60.742843 
z
" style="fill:#1f77b4;opacity:0.4;"/>
   </g>
   <g id="patch_18">
    <path clip-path="url(#p2f5a0d7774)" d="M 94.776198 27353.577335 
L 97.795674 27353.577335 
L 97.795674 56.200243 
L 94.776198 56.200243 
z
" style="fill:#1f77b4;opacity:0.4;"/>
   </g>
   <g id="patch_19">
    <path clip-path="url(#p2f5a0d7774)" d="M 97.795678 27353.577335 
L 100.815154 27353.577335 
L 100.815154 52.311911 
L 97.795678 52.311911 
z
" style="fill:#1f77b4;opacity:0.4;"/>
   </g>
   <g id="patch_20">
    <path clip-path="url(#p2f5a0d7774)" d="M 100.815154 27353.577335 
L 103.834631 27353.577335 
L 103.834631 48.806607 
L 100.815154 48.806607 
z
" style="fill:#1f77b4;opacity:0.4;"/>
   </g>
   <g id="patch_21">
    <path clip-path="url(#p2f5a0d7774)" d="M 103.834631 27353.577335 
L 106.854107 27353.577335 
L 106.854107 45.485092 
L 103.834631 45.485092 
z
" style="fill:#1f77b4;opacity:0.4;"/>
   </g>
   <g id="patch_22">
    <path clip-path="url(#p2f5a0d7774)" d="M 106.854109 27353.577335 
L 109.873585 27353.577335 
L 109.873585 42.638441 
L 106.854109 42.638441 
z
" style="fill:#1f77b4;opacity:0.4;"/>
   </g>
   <g id="patch_23">
    <path clip-path="url(#p2f5a0d7774)" d="M 109.873587 27353.577335 
L 112.893063 27353.577335 
L 112.893063 40.212852 
L 109.873587 40.212852 
z
" style="fill:#1f77b4;opacity:0.4;"/>
   </g>
   <g id="patch_24">
    <path clip-path="url(#p2f5a0d7774)" d="M 112.893063 27353.577335 
L 115.912539 27353.577335 
L 115.912539 38.188599 
L 112.893063 38.188599 
z
" style="fill:#1f77b4;opacity:0.4;"/>
   </g>
   <g id="patch_25">
    <path clip-path="url(#p2f5a0d7774)" d="M 115.912541 27353.577335 
L 118.932017 27353.577335 
L 118.932017 36.658825 
L 115.912541 36.658825 
z
" style="fill:#1f77b4;opacity:0.4;"/>
   </g>
   <g id="patch_26">
    <path clip-path="url(#p2f5a0d7774)" d="M 118.932017 27353.577335 
L 121.951494 27353.577335 
L 121.951494 35.502897 
L 118.932017 35.502897 
z
" style="fill:#1f77b4;opacity:0.4;"/>
   </g>
   <g id="patch_27">
    <path clip-path="url(#p2f5a0d7774)" d="M 121.951495 27353.577335 
L 124.970971 27353.577335 
L 124.970971 34.703889 
L 121.951495 34.703889 
z
" style="fill:#1f77b4;opacity:0.4;"/>
   </g>
   <g id="patch_28">
    <path clip-path="url(#p2f5a0d7774)" d="M 124.970972 27353.577335 
L 127.990448 27353.577335 
L 127.990448 34.251761 
L 124.970972 34.251761 
z
" style="fill:#1f77b4;opacity:0.4;"/>
   </g>
   <g id="patch_29">
    <path clip-path="url(#p2f5a0d7774)" d="M 127.99045 27353.577335 
L 131.009926 27353.577335 
L 131.009926 34.349873 
L 127.99045 34.349873 
z
" style="fill:#1f77b4;opacity:0.4;"/>
   </g>
   <g id="patch_30">
    <path clip-path="url(#p2f5a0d7774)" d="M 131.009927 27353.577335 
L 134.029403 27353.577335 
L 134.029403 34.686679 
L 131.009927 34.686679 
z
" style="fill:#1f77b4;opacity:0.4;"/>
   </g>
   <g id="patch_31">
    <path clip-path="url(#p2f5a0d7774)" d="M 134.029404 27353.577335 
L 137.04888 27353.577335 
L 137.04888 35.571957 
L 134.029404 35.571957 
z
" style="fill:#1f77b4;opacity:0.4;"/>
   </g>
   <g id="patch_32">
    <path clip-path="url(#p2f5a0d7774)" d="M 137.048881 27353.577335 
L 140.068358 27353.577335 
L 140.068358 36.78668 
L 137.048881 36.78668 
z
" style="fill:#1f77b4;opacity:0.4;"/>
   </g>
   <g id="patch_33">
    <path clip-path="url(#p2f5a0d7774)" d="M 140.068359 27353.577335 
L 143.087835 27353.577335 
L 143.087835 38.407252 
L 140.068359 38.407252 
z
" style="fill:#1f77b4;opacity:0.4;"/>
   </g>
   <g id="patch_34">
    <path clip-path="url(#p2f5a0d7774)" d="M 143.087837 27353.577335 
L 146.107313 27353.577335 
L 146.107313 40.628315 
L 143.087837 40.628315 
z
" style="fill:#1f77b4;opacity:0.4;"/>
   </g>
   <g id="patch_35">
    <path clip-path="url(#p2f5a0d7774)" d="M 146.107313 27353.577335 
L 149.126789 27353.577335 
L 149.126789 43.048744 
L 146.107313 43.048744 
z
" style="fill:#1f77b4;opacity:0.4;"/>
   </g>
   <g id="patch_36">
    <path clip-path="url(#p2f5a0d7774)" d="M 149.126789 27353.577335 
L 152.146265 27353.577335 
L 152.146265 45.837393 
L 149.126789 45.837393 
z
" style="fill:#1f77b4;opacity:0.4;"/>
   </g>
   <g id="patch_37">
    <path clip-path="url(#p2f5a0d7774)" d="M 152.146269 27353.577335 
L 155.165745 27353.577335 
L 155.165745 49.166438 
L 152.146269 49.166438 
z
" style="fill:#1f77b4;opacity:0.4;"/>
   </g>
   <g id="patch_38">
    <path clip-path="url(#p2f5a0d7774)" d="M 155.165745 27353.577335 
L 158.185222 27353.577335 
L 158.185222 52.725178 
L 155.165745 52.725178 
z
" style="fill:#1f77b4;opacity:0.4;"/>
   </g>
   <g id="patch_39">
    <path clip-path="url(#p2f5a0d7774)" d="M 158.185222 27353.577335 
L 161.204698 27353.577335 
L 161.204698 56.804534 
L 158.185222 56.804534 
z
" style="fill:#1f77b4;opacity:0.4;"/>
   </g>
   <g id="patch_40">
    <path clip-path="url(#p2f5a0d7774)" d="M 161.204694 27353.577335 
L 164.224178 27353.577335 
L 164.224178 61.393271 
L 161.204694 61.393271 
z
" style="fill:#1f77b4;opacity:0.4;"/>
   </g>
   <g id="patch_41">
    <path clip-path="url(#p2f5a0d7774)" d="M 164.224178 27353.577335 
L 167.243654 27353.577335 
L 167.243654 66.288543 
L 164.224178 66.288543 
z
" style="fill:#1f77b4;opacity:0.4;"/>
   </g>
   <g id="patch_42">
    <path clip-path="url(#p2f5a0d7774)" d="M 167.243654 27353.577335 
L 170.26313 27353.577335 
L 170.26313 71.825151 
L 167.243654 71.825151 
z
" style="fill:#1f77b4;opacity:0.4;"/>
   </g>
   <g id="patch_43">
    <path clip-path="url(#p2f5a0d7774)" d="M 170.26313 27353.577335 
L 173.282607 27353.577335 
L 173.282607 76.845605 
L 170.26313 76.845605 
z
" style="fill:#1f77b4;opacity:0.4;"/>
   </g>
   <g id="patch_44">
    <path clip-path="url(#p2f5a0d7774)" d="M 173.282607 27353.577335 
L 176.302091 27353.577335 
L 176.302091 83.503938 
L 173.282607 83.503938 
z
" style="fill:#1f77b4;opacity:0.4;"/>
   </g>
   <g id="patch_45">
    <path clip-path="url(#p2f5a0d7774)" d="M 176.302087 27353.577335 
L 179.321563 27353.577335 
L 179.321563 90.138562 
L 176.302087 90.138562 
z
" style="fill:#1f77b4;opacity:0.4;"/>
   </g>
   <g id="patch_46">
    <path clip-path="url(#p2f5a0d7774)" d="M 179.321563 27353.577335 
L 182.341039 27353.577335 
L 182.341039 96.594906 
L 179.321563 96.594906 
z
" style="fill:#1f77b4;opacity:0.4;"/>
   </g>
   <g id="patch_47">
    <path clip-path="url(#p2f5a0d7774)" d="M 182.341035 27353.577335 
L 185.360519 27353.577335 
L 185.360519 104.222556 
L 182.341035 104.222556 
z
" style="fill:#1f77b4;opacity:0.4;"/>
   </g>
   <g id="patch_48">
    <path clip-path="url(#p2f5a0d7774)" d="M 185.360519 27353.577335 
L 188.379995 27353.577335 
L 188.379995 112.508381 
L 185.360519 112.508381 
z
" style="fill:#1f77b4;opacity:0.4;"/>
   </g>
   <g id="patch_49">
    <path clip-path="url(#p2f5a0d7774)" d="M 188.379995 27353.577335 
L 191.399472 27353.577335 
L 191.399472 118.110558 
L 188.379995 118.110558 
z
" style="fill:#1f77b4;opacity:0.4;"/>
   </g>
   <g id="patch_50">
    <path clip-path="url(#p2f5a0d7774)" d="M 191.399472 27353.577335 
L 194.418959 27353.577335 
L 194.418959 128.167472 
L 191.399472 128.167472 
z
" style="fill:#1f77b4;opacity:0.4;"/>
   </g>
   <g id="patch_51">
    <path clip-path="url(#p2f5a0d7774)" d="M 194.418952 27353.577335 
L 197.438428 27353.577335 
L 197.438428 137.792693 
L 194.418952 137.792693 
z
" style="fill:#1f77b4;opacity:0.4;"/>
   </g>
   <g id="patch_52">
    <path clip-path="url(#p2f5a0d7774)" d="M 197.438428 27353.577335 
L 200.457904 27353.577335 
L 200.457904 142.605312 
L 197.438428 142.605312 
z
" style="fill:#1f77b4;opacity:0.4;"/>
   </g>
   <g id="matplotlib.axis_1">
    <g id="xtick_1">
     <g id="line2d_1">
      <defs>
       <path d="M 0 0 
L 0 3.5 
" id="m69c39a7c7e" style="stroke:#000000;stroke-width:0.8;"/>
      </defs>
      <g>
       <use style="stroke:#000000;stroke-width:0.8;" x="46.259091" xlink:href="#m69c39a7c7e" y="173.93875"/>
      </g>
     </g>
     <g id="text_1">
      <!-- −5.0 -->
      <defs>
       <path d="M 10.59375 35.5 
L 73.1875 35.5 
L 73.1875 27.203125 
L 10.59375 27.203125 
z
" id="DejaVuSans-8722"/>
       <path d="M 10.796875 72.90625 
L 49.515625 72.90625 
L 49.515625 64.59375 
L 19.828125 64.59375 
L 19.828125 46.734375 
Q 21.96875 47.46875 24.109375 47.828125 
Q 26.265625 48.1875 28.421875 48.1875 
Q 40.625 48.1875 47.75 41.5 
Q 54.890625 34.8125 54.890625 23.390625 
Q 54.890625 11.625 47.5625 5.09375 
Q 40.234375 -1.421875 26.90625 -1.421875 
Q 22.3125 -1.421875 17.546875 -0.640625 
Q 12.796875 0.140625 7.71875 1.703125 
L 7.71875 11.625 
Q 12.109375 9.234375 16.796875 8.0625 
Q 21.484375 6.890625 26.703125 6.890625 
Q 35.15625 6.890625 40.078125 11.328125 
Q 45.015625 15.765625 45.015625 23.390625 
Q 45.015625 31 40.078125 35.4375 
Q 35.15625 39.890625 26.703125 39.890625 
Q 22.75 39.890625 18.8125 39.015625 
Q 14.890625 38.140625 10.796875 36.28125 
z
" id="DejaVuSans-53"/>
       <path d="M 10.6875 12.40625 
L 21 12.40625 
L 21 0 
L 10.6875 0 
z
" id="DejaVuSans-46"/>
       <path d="M 31.78125 66.40625 
Q 24.171875 66.40625 20.328125 58.90625 
Q 16.5 51.421875 16.5 36.375 
Q 16.5 21.390625 20.328125 13.890625 
Q 24.171875 6.390625 31.78125 6.390625 
Q 39.453125 6.390625 43.28125 13.890625 
Q 47.125 21.390625 47.125 36.375 
Q 47.125 51.421875 43.28125 58.90625 
Q 39.453125 66.40625 31.78125 66.40625 
z
M 31.78125 74.21875 
Q 44.046875 74.21875 50.515625 64.515625 
Q 56.984375 54.828125 56.984375 36.375 
Q 56.984375 17.96875 50.515625 8.265625 
Q 44.046875 -1.421875 31.78125 -1.421875 
Q 19.53125 -1.421875 13.0625 8.265625 
Q 6.59375 17.96875 6.59375 36.375 
Q 6.59375 54.828125 13.0625 64.515625 
Q 19.53125 74.21875 31.78125 74.21875 
z
" id="DejaVuSans-48"/>
      </defs>
      <g transform="translate(34.117685 188.537188)scale(0.1 -0.1)">
       <use xlink:href="#DejaVuSans-8722"/>
       <use x="83.789062" xlink:href="#DejaVuSans-53"/>
       <use x="147.412109" xlink:href="#DejaVuSans-46"/>
       <use x="179.199219" xlink:href="#DejaVuSans-48"/>
      </g>
     </g>
    </g>
    <g id="xtick_2">
     <g id="line2d_2">
      <g>
       <use style="stroke:#000000;stroke-width:0.8;" x="87.033724" xlink:href="#m69c39a7c7e" y="173.93875"/>
      </g>
     </g>
     <g id="text_2">
      <!-- −2.5 -->
      <defs>
       <path d="M 19.1875 8.296875 
L 53.609375 8.296875 
L 53.609375 0 
L 7.328125 0 
L 7.328125 8.296875 
Q 12.9375 14.109375 22.625 23.890625 
Q 32.328125 33.6875 34.8125 36.53125 
Q 39.546875 41.84375 41.421875 45.53125 
Q 43.3125 49.21875 43.3125 52.78125 
Q 43.3125 58.59375 39.234375 62.25 
Q 35.15625 65.921875 28.609375 65.921875 
Q 23.96875 65.921875 18.8125 64.3125 
Q 13.671875 62.703125 7.8125 59.421875 
L 7.8125 69.390625 
Q 13.765625 71.78125 18.9375 73 
Q 24.125 74.21875 28.421875 74.21875 
Q 39.75 74.21875 46.484375 68.546875 
Q 53.21875 62.890625 53.21875 53.421875 
Q 53.21875 48.921875 51.53125 44.890625 
Q 49.859375 40.875 45.40625 35.40625 
Q 44.1875 33.984375 37.640625 27.21875 
Q 31.109375 20.453125 19.1875 8.296875 
z
" id="DejaVuSans-50"/>
      </defs>
      <g transform="translate(74.892318 188.537188)scale(0.1 -0.1)">
       <use xlink:href="#DejaVuSans-8722"/>
       <use x="83.789062" xlink:href="#DejaVuSans-50"/>
       <use x="147.412109" xlink:href="#DejaVuSans-46"/>
       <use x="179.199219" xlink:href="#DejaVuSans-53"/>
      </g>
     </g>
    </g>
    <g id="xtick_3">
     <g id="line2d_3">
      <g>
       <use style="stroke:#000000;stroke-width:0.8;" x="127.808358" xlink:href="#m69c39a7c7e" y="173.93875"/>
      </g>
     </g>
     <g id="text_3">
      <!-- 0.0 -->
      <g transform="translate(119.856795 188.537188)scale(0.1 -0.1)">
       <use xlink:href="#DejaVuSans-48"/>
       <use x="63.623047" xlink:href="#DejaVuSans-46"/>
       <use x="95.410156" xlink:href="#DejaVuSans-48"/>
      </g>
     </g>
    </g>
    <g id="xtick_4">
     <g id="line2d_4">
      <g>
       <use style="stroke:#000000;stroke-width:0.8;" x="168.582991" xlink:href="#m69c39a7c7e" y="173.93875"/>
      </g>
     </g>
     <g id="text_4">
      <!-- 2.5 -->
      <g transform="translate(160.631429 188.537188)scale(0.1 -0.1)">
       <use xlink:href="#DejaVuSans-50"/>
       <use x="63.623047" xlink:href="#DejaVuSans-46"/>
       <use x="95.410156" xlink:href="#DejaVuSans-53"/>
      </g>
     </g>
    </g>
    <g id="text_5">
     <!-- x_theta -->
     <defs>
      <path d="M 54.890625 54.6875 
L 35.109375 28.078125 
L 55.90625 0 
L 45.3125 0 
L 29.390625 21.484375 
L 13.484375 0 
L 2.875 0 
L 24.125 28.609375 
L 4.6875 54.6875 
L 15.28125 54.6875 
L 29.78125 35.203125 
L 44.28125 54.6875 
z
" id="DejaVuSans-120"/>
      <path d="M 50.984375 -16.609375 
L 50.984375 -23.578125 
L -0.984375 -23.578125 
L -0.984375 -16.609375 
z
" id="DejaVuSans-95"/>
      <path d="M 18.3125 70.21875 
L 18.3125 54.6875 
L 36.8125 54.6875 
L 36.8125 47.703125 
L 18.3125 47.703125 
L 18.3125 18.015625 
Q 18.3125 11.328125 20.140625 9.421875 
Q 21.96875 7.515625 27.59375 7.515625 
L 36.8125 7.515625 
L 36.8125 0 
L 27.59375 0 
Q 17.1875 0 13.234375 3.875 
Q 9.28125 7.765625 9.28125 18.015625 
L 9.28125 47.703125 
L 2.6875 47.703125 
L 2.6875 54.6875 
L 9.28125 54.6875 
L 9.28125 70.21875 
z
" id="DejaVuSans-116"/>
      <path d="M 54.890625 33.015625 
L 54.890625 0 
L 45.90625 0 
L 45.90625 32.71875 
Q 45.90625 40.484375 42.875 44.328125 
Q 39.84375 48.1875 33.796875 48.1875 
Q 26.515625 48.1875 22.3125 43.546875 
Q 18.109375 38.921875 18.109375 30.90625 
L 18.109375 0 
L 9.078125 0 
L 9.078125 75.984375 
L 18.109375 75.984375 
L 18.109375 46.1875 
Q 21.34375 51.125 25.703125 53.5625 
Q 30.078125 56 35.796875 56 
Q 45.21875 56 50.046875 50.171875 
Q 54.890625 44.34375 54.890625 33.015625 
z
" id="DejaVuSans-104"/>
      <path d="M 56.203125 29.59375 
L 56.203125 25.203125 
L 14.890625 25.203125 
Q 15.484375 15.921875 20.484375 11.0625 
Q 25.484375 6.203125 34.421875 6.203125 
Q 39.59375 6.203125 44.453125 7.46875 
Q 49.3125 8.734375 54.109375 11.28125 
L 54.109375 2.78125 
Q 49.265625 0.734375 44.1875 -0.34375 
Q 39.109375 -1.421875 33.890625 -1.421875 
Q 20.796875 -1.421875 13.15625 6.1875 
Q 5.515625 13.8125 5.515625 26.8125 
Q 5.515625 40.234375 12.765625 48.109375 
Q 20.015625 56 32.328125 56 
Q 43.359375 56 49.78125 48.890625 
Q 56.203125 41.796875 56.203125 29.59375 
z
M 47.21875 32.234375 
Q 47.125 39.59375 43.09375 43.984375 
Q 39.0625 48.390625 32.421875 48.390625 
Q 24.90625 48.390625 20.390625 44.140625 
Q 15.875 39.890625 15.1875 32.171875 
z
" id="DejaVuSans-101"/>
      <path d="M 34.28125 27.484375 
Q 23.390625 27.484375 19.1875 25 
Q 14.984375 22.515625 14.984375 16.5 
Q 14.984375 11.71875 18.140625 8.90625 
Q 21.296875 6.109375 26.703125 6.109375 
Q 34.1875 6.109375 38.703125 11.40625 
Q 43.21875 16.703125 43.21875 25.484375 
L 43.21875 27.484375 
z
M 52.203125 31.203125 
L 52.203125 0 
L 43.21875 0 
L 43.21875 8.296875 
Q 40.140625 3.328125 35.546875 0.953125 
Q 30.953125 -1.421875 24.3125 -1.421875 
Q 15.921875 -1.421875 10.953125 3.296875 
Q 6 8.015625 6 15.921875 
Q 6 25.140625 12.171875 29.828125 
Q 18.359375 34.515625 30.609375 34.515625 
L 43.21875 34.515625 
L 43.21875 35.40625 
Q 43.21875 41.609375 39.140625 45 
Q 35.0625 48.390625 27.6875 48.390625 
Q 23 48.390625 18.546875 47.265625 
Q 14.109375 46.140625 10.015625 43.890625 
L 10.015625 52.203125 
Q 14.9375 54.109375 19.578125 55.046875 
Q 24.21875 56 28.609375 56 
Q 40.484375 56 46.34375 49.84375 
Q 52.203125 43.703125 52.203125 31.203125 
z
" id="DejaVuSans-97"/>
     </defs>
     <g transform="translate(106.281909 202.215313)scale(0.1 -0.1)">
      <use xlink:href="#DejaVuSans-120"/>
      <use x="59.179688" xlink:href="#DejaVuSans-95"/>
      <use x="109.179688" xlink:href="#DejaVuSans-116"/>
      <use x="148.388672" xlink:href="#DejaVuSans-104"/>
      <use x="211.767578" xlink:href="#DejaVuSans-101"/>
      <use x="273.291016" xlink:href="#DejaVuSans-116"/>
      <use x="312.5" xlink:href="#DejaVuSans-97"/>
     </g>
    </g>
   </g>
   <g id="matplotlib.axis_2">
    <g id="ytick_1">
     <g id="line2d_5">
      <defs>
       <path d="M 0 0 
L -3.5 0 
" id="mabf343cbce" style="stroke:#000000;stroke-width:0.8;"/>
      </defs>
      <g>
       <use style="stroke:#000000;stroke-width:0.8;" x="41.935346" xlink:href="#mabf343cbce" y="159.97665"/>
      </g>
     </g>
     <g id="text_6">
      <!-- $\mathdefault{10^{-5}}$ -->
      <defs>
       <path d="M 12.40625 8.296875 
L 28.515625 8.296875 
L 28.515625 63.921875 
L 10.984375 60.40625 
L 10.984375 69.390625 
L 28.421875 72.90625 
L 38.28125 72.90625 
L 38.28125 8.296875 
L 54.390625 8.296875 
L 54.390625 0 
L 12.40625 0 
z
" id="DejaVuSans-49"/>
      </defs>
      <g transform="translate(11.435346 163.775869)scale(0.1 -0.1)">
       <use transform="translate(0 0.684375)" xlink:href="#DejaVuSans-49"/>
       <use transform="translate(63.623047 0.684375)" xlink:href="#DejaVuSans-48"/>
       <use transform="translate(128.203125 38.965625)scale(0.7)" xlink:href="#DejaVuSans-8722"/>
       <use transform="translate(186.855469 38.965625)scale(0.7)" xlink:href="#DejaVuSans-53"/>
      </g>
     </g>
    </g>
    <g id="ytick_2">
     <g id="line2d_6">
      <g>
       <use style="stroke:#000000;stroke-width:0.8;" x="41.935346" xlink:href="#mabf343cbce" y="132.646398"/>
      </g>
     </g>
     <g id="text_7">
      <!-- $\mathdefault{10^{-4}}$ -->
      <defs>
       <path d="M 37.796875 64.3125 
L 12.890625 25.390625 
L 37.796875 25.390625 
z
M 35.203125 72.90625 
L 47.609375 72.90625 
L 47.609375 25.390625 
L 58.015625 25.390625 
L 58.015625 17.1875 
L 47.609375 17.1875 
L 47.609375 0 
L 37.796875 0 
L 37.796875 17.1875 
L 4.890625 17.1875 
L 4.890625 26.703125 
z
" id="DejaVuSans-52"/>
      </defs>
      <g transform="translate(11.435346 136.445617)scale(0.1 -0.1)">
       <use transform="translate(0 0.684375)" xlink:href="#DejaVuSans-49"/>
       <use transform="translate(63.623047 0.684375)" xlink:href="#DejaVuSans-48"/>
       <use transform="translate(128.203125 38.965625)scale(0.7)" xlink:href="#DejaVuSans-8722"/>
       <use transform="translate(186.855469 38.965625)scale(0.7)" xlink:href="#DejaVuSans-52"/>
      </g>
     </g>
    </g>
    <g id="ytick_3">
     <g id="line2d_7">
      <g>
       <use style="stroke:#000000;stroke-width:0.8;" x="41.935346" xlink:href="#mabf343cbce" y="105.316146"/>
      </g>
     </g>
     <g id="text_8">
      <!-- $\mathdefault{10^{-3}}$ -->
      <defs>
       <path d="M 40.578125 39.3125 
Q 47.65625 37.796875 51.625 33 
Q 55.609375 28.21875 55.609375 21.1875 
Q 55.609375 10.40625 48.1875 4.484375 
Q 40.765625 -1.421875 27.09375 -1.421875 
Q 22.515625 -1.421875 17.65625 -0.515625 
Q 12.796875 0.390625 7.625 2.203125 
L 7.625 11.71875 
Q 11.71875 9.328125 16.59375 8.109375 
Q 21.484375 6.890625 26.8125 6.890625 
Q 36.078125 6.890625 40.9375 10.546875 
Q 45.796875 14.203125 45.796875 21.1875 
Q 45.796875 27.640625 41.28125 31.265625 
Q 36.765625 34.90625 28.71875 34.90625 
L 20.21875 34.90625 
L 20.21875 43.015625 
L 29.109375 43.015625 
Q 36.375 43.015625 40.234375 45.921875 
Q 44.09375 48.828125 44.09375 54.296875 
Q 44.09375 59.90625 40.109375 62.90625 
Q 36.140625 65.921875 28.71875 65.921875 
Q 24.65625 65.921875 20.015625 65.03125 
Q 15.375 64.15625 9.8125 62.3125 
L 9.8125 71.09375 
Q 15.4375 72.65625 20.34375 73.4375 
Q 25.25 74.21875 29.59375 74.21875 
Q 40.828125 74.21875 47.359375 69.109375 
Q 53.90625 64.015625 53.90625 55.328125 
Q 53.90625 49.265625 50.4375 45.09375 
Q 46.96875 40.921875 40.578125 39.3125 
z
" id="DejaVuSans-51"/>
      </defs>
      <g transform="translate(11.435346 109.115365)scale(0.1 -0.1)">
       <use transform="translate(0 0.765625)" xlink:href="#DejaVuSans-49"/>
       <use transform="translate(63.623047 0.765625)" xlink:href="#DejaVuSans-48"/>
       <use transform="translate(128.203125 39.046875)scale(0.7)" xlink:href="#DejaVuSans-8722"/>
       <use transform="translate(186.855469 39.046875)scale(0.7)" xlink:href="#DejaVuSans-51"/>
      </g>
     </g>
    </g>
    <g id="ytick_4">
     <g id="line2d_8">
      <g>
       <use style="stroke:#000000;stroke-width:0.8;" x="41.935346" xlink:href="#mabf343cbce" y="77.985895"/>
      </g>
     </g>
     <g id="text_9">
      <!-- $\mathdefault{10^{-2}}$ -->
      <g transform="translate(11.435346 81.785113)scale(0.1 -0.1)">
       <use transform="translate(0 0.765625)" xlink:href="#DejaVuSans-49"/>
       <use transform="translate(63.623047 0.765625)" xlink:href="#DejaVuSans-48"/>
       <use transform="translate(128.203125 39.046875)scale(0.7)" xlink:href="#DejaVuSans-8722"/>
       <use transform="translate(186.855469 39.046875)scale(0.7)" xlink:href="#DejaVuSans-50"/>
      </g>
     </g>
    </g>
    <g id="ytick_5">
     <g id="line2d_9">
      <g>
       <use style="stroke:#000000;stroke-width:0.8;" x="41.935346" xlink:href="#mabf343cbce" y="50.655643"/>
      </g>
     </g>
     <g id="text_10">
      <!-- $\mathdefault{10^{-1}}$ -->
      <g transform="translate(11.435346 54.454861)scale(0.1 -0.1)">
       <use transform="translate(0 0.684375)" xlink:href="#DejaVuSans-49"/>
       <use transform="translate(63.623047 0.684375)" xlink:href="#DejaVuSans-48"/>
       <use transform="translate(128.203125 38.965625)scale(0.7)" xlink:href="#DejaVuSans-8722"/>
       <use transform="translate(186.855469 38.965625)scale(0.7)" xlink:href="#DejaVuSans-49"/>
      </g>
     </g>
    </g>
    <g id="ytick_6">
     <g id="line2d_10">
      <defs>
       <path d="M 0 0 
L -2 0 
" id="mb17916ef28" style="stroke:#000000;stroke-width:0.6;"/>
      </defs>
      <g>
       <use style="stroke:#000000;stroke-width:0.6;" x="41.935346" xlink:href="#mb17916ef28" y="170.852451"/>
      </g>
     </g>
    </g>
    <g id="ytick_7">
     <g id="line2d_11">
      <g>
       <use style="stroke:#000000;stroke-width:0.6;" x="41.935346" xlink:href="#mb17916ef28" y="168.203876"/>
      </g>
     </g>
    </g>
    <g id="ytick_8">
     <g id="line2d_12">
      <g>
       <use style="stroke:#000000;stroke-width:0.6;" x="41.935346" xlink:href="#mb17916ef28" y="166.039833"/>
      </g>
     </g>
    </g>
    <g id="ytick_9">
     <g id="line2d_13">
      <g>
       <use style="stroke:#000000;stroke-width:0.6;" x="41.935346" xlink:href="#mb17916ef28" y="164.21016"/>
      </g>
     </g>
    </g>
    <g id="ytick_10">
     <g id="line2d_14">
      <g>
       <use style="stroke:#000000;stroke-width:0.6;" x="41.935346" xlink:href="#mb17916ef28" y="162.625225"/>
      </g>
     </g>
    </g>
    <g id="ytick_11">
     <g id="line2d_15">
      <g>
       <use style="stroke:#000000;stroke-width:0.6;" x="41.935346" xlink:href="#mb17916ef28" y="161.227214"/>
      </g>
     </g>
    </g>
    <g id="ytick_12">
     <g id="line2d_16">
      <g>
       <use style="stroke:#000000;stroke-width:0.6;" x="41.935346" xlink:href="#mb17916ef28" y="151.749425"/>
      </g>
     </g>
    </g>
    <g id="ytick_13">
     <g id="line2d_17">
      <g>
       <use style="stroke:#000000;stroke-width:0.6;" x="41.935346" xlink:href="#mb17916ef28" y="146.936806"/>
      </g>
     </g>
    </g>
    <g id="ytick_14">
     <g id="line2d_18">
      <g>
       <use style="stroke:#000000;stroke-width:0.6;" x="41.935346" xlink:href="#mb17916ef28" y="143.522199"/>
      </g>
     </g>
    </g>
    <g id="ytick_15">
     <g id="line2d_19">
      <g>
       <use style="stroke:#000000;stroke-width:0.6;" x="41.935346" xlink:href="#mb17916ef28" y="140.873624"/>
      </g>
     </g>
    </g>
    <g id="ytick_16">
     <g id="line2d_20">
      <g>
       <use style="stroke:#000000;stroke-width:0.6;" x="41.935346" xlink:href="#mb17916ef28" y="138.709581"/>
      </g>
     </g>
    </g>
    <g id="ytick_17">
     <g id="line2d_21">
      <g>
       <use style="stroke:#000000;stroke-width:0.6;" x="41.935346" xlink:href="#mb17916ef28" y="136.879908"/>
      </g>
     </g>
    </g>
    <g id="ytick_18">
     <g id="line2d_22">
      <g>
       <use style="stroke:#000000;stroke-width:0.6;" x="41.935346" xlink:href="#mb17916ef28" y="135.294973"/>
      </g>
     </g>
    </g>
    <g id="ytick_19">
     <g id="line2d_23">
      <g>
       <use style="stroke:#000000;stroke-width:0.6;" x="41.935346" xlink:href="#mb17916ef28" y="133.896962"/>
      </g>
     </g>
    </g>
    <g id="ytick_20">
     <g id="line2d_24">
      <g>
       <use style="stroke:#000000;stroke-width:0.6;" x="41.935346" xlink:href="#mb17916ef28" y="124.419173"/>
      </g>
     </g>
    </g>
    <g id="ytick_21">
     <g id="line2d_25">
      <g>
       <use style="stroke:#000000;stroke-width:0.6;" x="41.935346" xlink:href="#mb17916ef28" y="119.606554"/>
      </g>
     </g>
    </g>
    <g id="ytick_22">
     <g id="line2d_26">
      <g>
       <use style="stroke:#000000;stroke-width:0.6;" x="41.935346" xlink:href="#mb17916ef28" y="116.191947"/>
      </g>
     </g>
    </g>
    <g id="ytick_23">
     <g id="line2d_27">
      <g>
       <use style="stroke:#000000;stroke-width:0.6;" x="41.935346" xlink:href="#mb17916ef28" y="113.543372"/>
      </g>
     </g>
    </g>
    <g id="ytick_24">
     <g id="line2d_28">
      <g>
       <use style="stroke:#000000;stroke-width:0.6;" x="41.935346" xlink:href="#mb17916ef28" y="111.379329"/>
      </g>
     </g>
    </g>
    <g id="ytick_25">
     <g id="line2d_29">
      <g>
       <use style="stroke:#000000;stroke-width:0.6;" x="41.935346" xlink:href="#mb17916ef28" y="109.549656"/>
      </g>
     </g>
    </g>
    <g id="ytick_26">
     <g id="line2d_30">
      <g>
       <use style="stroke:#000000;stroke-width:0.6;" x="41.935346" xlink:href="#mb17916ef28" y="107.964722"/>
      </g>
     </g>
    </g>
    <g id="ytick_27">
     <g id="line2d_31">
      <g>
       <use style="stroke:#000000;stroke-width:0.6;" x="41.935346" xlink:href="#mb17916ef28" y="106.56671"/>
      </g>
     </g>
    </g>
    <g id="ytick_28">
     <g id="line2d_32">
      <g>
       <use style="stroke:#000000;stroke-width:0.6;" x="41.935346" xlink:href="#mb17916ef28" y="97.088921"/>
      </g>
     </g>
    </g>
    <g id="ytick_29">
     <g id="line2d_33">
      <g>
       <use style="stroke:#000000;stroke-width:0.6;" x="41.935346" xlink:href="#mb17916ef28" y="92.276302"/>
      </g>
     </g>
    </g>
    <g id="ytick_30">
     <g id="line2d_34">
      <g>
       <use style="stroke:#000000;stroke-width:0.6;" x="41.935346" xlink:href="#mb17916ef28" y="88.861695"/>
      </g>
     </g>
    </g>
    <g id="ytick_31">
     <g id="line2d_35">
      <g>
       <use style="stroke:#000000;stroke-width:0.6;" x="41.935346" xlink:href="#mb17916ef28" y="86.21312"/>
      </g>
     </g>
    </g>
    <g id="ytick_32">
     <g id="line2d_36">
      <g>
       <use style="stroke:#000000;stroke-width:0.6;" x="41.935346" xlink:href="#mb17916ef28" y="84.049077"/>
      </g>
     </g>
    </g>
    <g id="ytick_33">
     <g id="line2d_37">
      <g>
       <use style="stroke:#000000;stroke-width:0.6;" x="41.935346" xlink:href="#mb17916ef28" y="82.219404"/>
      </g>
     </g>
    </g>
    <g id="ytick_34">
     <g id="line2d_38">
      <g>
       <use style="stroke:#000000;stroke-width:0.6;" x="41.935346" xlink:href="#mb17916ef28" y="80.63447"/>
      </g>
     </g>
    </g>
    <g id="ytick_35">
     <g id="line2d_39">
      <g>
       <use style="stroke:#000000;stroke-width:0.6;" x="41.935346" xlink:href="#mb17916ef28" y="79.236458"/>
      </g>
     </g>
    </g>
    <g id="ytick_36">
     <g id="line2d_40">
      <g>
       <use style="stroke:#000000;stroke-width:0.6;" x="41.935346" xlink:href="#mb17916ef28" y="69.758669"/>
      </g>
     </g>
    </g>
    <g id="ytick_37">
     <g id="line2d_41">
      <g>
       <use style="stroke:#000000;stroke-width:0.6;" x="41.935346" xlink:href="#mb17916ef28" y="64.94605"/>
      </g>
     </g>
    </g>
    <g id="ytick_38">
     <g id="line2d_42">
      <g>
       <use style="stroke:#000000;stroke-width:0.6;" x="41.935346" xlink:href="#mb17916ef28" y="61.531443"/>
      </g>
     </g>
    </g>
    <g id="ytick_39">
     <g id="line2d_43">
      <g>
       <use style="stroke:#000000;stroke-width:0.6;" x="41.935346" xlink:href="#mb17916ef28" y="58.882868"/>
      </g>
     </g>
    </g>
    <g id="ytick_40">
     <g id="line2d_44">
      <g>
       <use style="stroke:#000000;stroke-width:0.6;" x="41.935346" xlink:href="#mb17916ef28" y="56.718825"/>
      </g>
     </g>
    </g>
    <g id="ytick_41">
     <g id="line2d_45">
      <g>
       <use style="stroke:#000000;stroke-width:0.6;" x="41.935346" xlink:href="#mb17916ef28" y="54.889152"/>
      </g>
     </g>
    </g>
    <g id="ytick_42">
     <g id="line2d_46">
      <g>
       <use style="stroke:#000000;stroke-width:0.6;" x="41.935346" xlink:href="#mb17916ef28" y="53.304218"/>
      </g>
     </g>
    </g>
    <g id="ytick_43">
     <g id="line2d_47">
      <g>
       <use style="stroke:#000000;stroke-width:0.6;" x="41.935346" xlink:href="#mb17916ef28" y="51.906206"/>
      </g>
     </g>
    </g>
    <g id="ytick_44">
     <g id="line2d_48">
      <g>
       <use style="stroke:#000000;stroke-width:0.6;" x="41.935346" xlink:href="#mb17916ef28" y="42.428417"/>
      </g>
     </g>
    </g>
    <g id="ytick_45">
     <g id="line2d_49">
      <g>
       <use style="stroke:#000000;stroke-width:0.6;" x="41.935346" xlink:href="#mb17916ef28" y="37.615798"/>
      </g>
     </g>
    </g>
    <g id="ytick_46">
     <g id="line2d_50">
      <g>
       <use style="stroke:#000000;stroke-width:0.6;" x="41.935346" xlink:href="#mb17916ef28" y="34.201191"/>
      </g>
     </g>
    </g>
    <g id="ytick_47">
     <g id="line2d_51">
      <g>
       <use style="stroke:#000000;stroke-width:0.6;" x="41.935346" xlink:href="#mb17916ef28" y="31.552616"/>
      </g>
     </g>
    </g>
    <g id="ytick_48">
     <g id="line2d_52">
      <g>
       <use style="stroke:#000000;stroke-width:0.6;" x="41.935346" xlink:href="#mb17916ef28" y="29.388573"/>
      </g>
     </g>
    </g>
   </g>
   <g id="patch_53">
    <path d="M 41.935346 173.93875 
L 41.935346 27.6 
" style="fill:none;stroke:#000000;stroke-linecap:square;stroke-linejoin:miter;stroke-width:0.8;"/>
   </g>
   <g id="patch_54">
    <path d="M 208.006597 173.93875 
L 208.006597 27.6 
" style="fill:none;stroke:#000000;stroke-linecap:square;stroke-linejoin:miter;stroke-width:0.8;"/>
   </g>
   <g id="patch_55">
    <path d="M 41.935346 173.93875 
L 208.006597 173.93875 
" style="fill:none;stroke:#000000;stroke-linecap:square;stroke-linejoin:miter;stroke-width:0.8;"/>
   </g>
   <g id="patch_56">
    <path d="M 41.935346 27.6 
L 208.006597 27.6 
" style="fill:none;stroke:#000000;stroke-linecap:square;stroke-linejoin:miter;stroke-width:0.8;"/>
   </g>
   <g id="text_11">
    <!-- Test normal -->
    <defs>
     <path d="M -0.296875 72.90625 
L 61.375 72.90625 
L 61.375 64.59375 
L 35.5 64.59375 
L 35.5 0 
L 25.59375 0 
L 25.59375 64.59375 
L -0.296875 64.59375 
z
" id="DejaVuSans-84"/>
     <path d="M 44.28125 53.078125 
L 44.28125 44.578125 
Q 40.484375 46.53125 36.375 47.5 
Q 32.28125 48.484375 27.875 48.484375 
Q 21.1875 48.484375 17.84375 46.4375 
Q 14.5 44.390625 14.5 40.28125 
Q 14.5 37.15625 16.890625 35.375 
Q 19.28125 33.59375 26.515625 31.984375 
L 29.59375 31.296875 
Q 39.15625 29.25 43.1875 25.515625 
Q 47.21875 21.78125 47.21875 15.09375 
Q 47.21875 7.46875 41.1875 3.015625 
Q 35.15625 -1.421875 24.609375 -1.421875 
Q 20.21875 -1.421875 15.453125 -0.5625 
Q 10.6875 0.296875 5.421875 2 
L 5.421875 11.28125 
Q 10.40625 8.6875 15.234375 7.390625 
Q 20.0625 6.109375 24.8125 6.109375 
Q 31.15625 6.109375 34.5625 8.28125 
Q 37.984375 10.453125 37.984375 14.40625 
Q 37.984375 18.0625 35.515625 20.015625 
Q 33.0625 21.96875 24.703125 23.78125 
L 21.578125 24.515625 
Q 13.234375 26.265625 9.515625 29.90625 
Q 5.8125 33.546875 5.8125 39.890625 
Q 5.8125 47.609375 11.28125 51.796875 
Q 16.75 56 26.8125 56 
Q 31.78125 56 36.171875 55.265625 
Q 40.578125 54.546875 44.28125 53.078125 
z
" id="DejaVuSans-115"/>
     <path id="DejaVuSans-32"/>
     <path d="M 54.890625 33.015625 
L 54.890625 0 
L 45.90625 0 
L 45.90625 32.71875 
Q 45.90625 40.484375 42.875 44.328125 
Q 39.84375 48.1875 33.796875 48.1875 
Q 26.515625 48.1875 22.3125 43.546875 
Q 18.109375 38.921875 18.109375 30.90625 
L 18.109375 0 
L 9.078125 0 
L 9.078125 54.6875 
L 18.109375 54.6875 
L 18.109375 46.1875 
Q 21.34375 51.125 25.703125 53.5625 
Q 30.078125 56 35.796875 56 
Q 45.21875 56 50.046875 50.171875 
Q 54.890625 44.34375 54.890625 33.015625 
z
" id="DejaVuSans-110"/>
     <path d="M 30.609375 48.390625 
Q 23.390625 48.390625 19.1875 42.75 
Q 14.984375 37.109375 14.984375 27.296875 
Q 14.984375 17.484375 19.15625 11.84375 
Q 23.34375 6.203125 30.609375 6.203125 
Q 37.796875 6.203125 41.984375 11.859375 
Q 46.1875 17.53125 46.1875 27.296875 
Q 46.1875 37.015625 41.984375 42.703125 
Q 37.796875 48.390625 30.609375 48.390625 
z
M 30.609375 56 
Q 42.328125 56 49.015625 48.375 
Q 55.71875 40.765625 55.71875 27.296875 
Q 55.71875 13.875 49.015625 6.21875 
Q 42.328125 -1.421875 30.609375 -1.421875 
Q 18.84375 -1.421875 12.171875 6.21875 
Q 5.515625 13.875 5.515625 27.296875 
Q 5.515625 40.765625 12.171875 48.375 
Q 18.84375 56 30.609375 56 
z
" id="DejaVuSans-111"/>
     <path d="M 41.109375 46.296875 
Q 39.59375 47.171875 37.8125 47.578125 
Q 36.03125 48 33.890625 48 
Q 26.265625 48 22.1875 43.046875 
Q 18.109375 38.09375 18.109375 28.8125 
L 18.109375 0 
L 9.078125 0 
L 9.078125 54.6875 
L 18.109375 54.6875 
L 18.109375 46.1875 
Q 20.953125 51.171875 25.484375 53.578125 
Q 30.03125 56 36.53125 56 
Q 37.453125 56 38.578125 55.875 
Q 39.703125 55.765625 41.0625 55.515625 
z
" id="DejaVuSans-114"/>
     <path d="M 52 44.1875 
Q 55.375 50.25 60.0625 53.125 
Q 64.75 56 71.09375 56 
Q 79.640625 56 84.28125 50.015625 
Q 88.921875 44.046875 88.921875 33.015625 
L 88.921875 0 
L 79.890625 0 
L 79.890625 32.71875 
Q 79.890625 40.578125 77.09375 44.375 
Q 74.3125 48.1875 68.609375 48.1875 
Q 61.625 48.1875 57.5625 43.546875 
Q 53.515625 38.921875 53.515625 30.90625 
L 53.515625 0 
L 44.484375 0 
L 44.484375 32.71875 
Q 44.484375 40.625 41.703125 44.40625 
Q 38.921875 48.1875 33.109375 48.1875 
Q 26.21875 48.1875 22.15625 43.53125 
Q 18.109375 38.875 18.109375 30.90625 
L 18.109375 0 
L 9.078125 0 
L 9.078125 54.6875 
L 18.109375 54.6875 
L 18.109375 46.1875 
Q 21.1875 51.21875 25.484375 53.609375 
Q 29.78125 56 35.6875 56 
Q 41.65625 56 45.828125 52.96875 
Q 50 49.953125 52 44.1875 
z
" id="DejaVuSans-109"/>
     <path d="M 9.421875 75.984375 
L 18.40625 75.984375 
L 18.40625 0 
L 9.421875 0 
z
" id="DejaVuSans-108"/>
    </defs>
    <g transform="translate(83.142691 21.6)scale(0.14 -0.14)">
     <use xlink:href="#DejaVuSans-84"/>
     <use x="60.818359" xlink:href="#DejaVuSans-101"/>
     <use x="122.341797" xlink:href="#DejaVuSans-115"/>
     <use x="174.441406" xlink:href="#DejaVuSans-116"/>
     <use x="213.650391" xlink:href="#DejaVuSans-32"/>
     <use x="245.4375" xlink:href="#DejaVuSans-110"/>
     <use x="308.816406" xlink:href="#DejaVuSans-111"/>
     <use x="369.998047" xlink:href="#DejaVuSans-114"/>
     <use x="411.095703" xlink:href="#DejaVuSans-109"/>
     <use x="508.507812" xlink:href="#DejaVuSans-97"/>
     <use x="569.787109" xlink:href="#DejaVuSans-108"/>
    </g>
   </g>
  </g>
  <g id="axes_2">
   <g id="patch_57">
    <path d="M 249.941944 173.93875 
L 416.013195 173.93875 
L 416.013195 27.6 
L 249.941944 27.6 
z
" style="fill:#ffffff;"/>
   </g>
   <g id="patch_58">
    <path clip-path="url(#pdece7ed3ef)" d="M 257.490637 30219.087434 
L 260.510117 30219.087434 
L 260.510117 167.286989 
L 257.490637 167.286989 
z
" style="fill:#1f77b4;opacity:0.4;"/>
   </g>
   <g id="patch_59">
    <path clip-path="url(#pdece7ed3ef)" d="M 260.510117 30219.087434 
L 263.52959 30219.087434 
L 263.52959 167.286956 
L 260.510117 167.286956 
z
" style="fill:#1f77b4;opacity:0.4;"/>
   </g>
   <g id="patch_60">
    <path clip-path="url(#pdece7ed3ef)" d="M 263.529597 30219.087434 
L 266.549077 30219.087434 
L 266.549077 160.585815 
L 263.529597 160.585815 
z
" style="fill:#1f77b4;opacity:0.4;"/>
   </g>
   <g id="patch_61">
    <path clip-path="url(#pdece7ed3ef)" d="M 266.54907 30219.087434 
L 269.568542 30219.087434 
L 269.568542 156.171832 
L 266.54907 156.171832 
z
" style="fill:#1f77b4;opacity:0.4;"/>
   </g>
   <g id="patch_62">
    <path clip-path="url(#pdece7ed3ef)" d="M 269.568542 30219.087434 
L 272.588022 30219.087434 
L 272.588022 143.782115 
L 269.568542 143.782115 
z
" style="fill:#1f77b4;opacity:0.4;"/>
   </g>
   <g id="patch_63">
    <path clip-path="url(#pdece7ed3ef)" d="M 272.588022 30219.087434 
L 275.607495 30219.087434 
L 275.607495 131.473578 
L 272.588022 131.473578 
z
" style="fill:#1f77b4;opacity:0.4;"/>
   </g>
   <g id="patch_64">
    <path clip-path="url(#pdece7ed3ef)" d="M 275.607499 30219.087434 
L 278.626979 30219.087434 
L 278.626979 124.546237 
L 275.607499 124.546237 
z
" style="fill:#1f77b4;opacity:0.4;"/>
   </g>
   <g id="patch_65">
    <path clip-path="url(#pdece7ed3ef)" d="M 278.626983 30219.087434 
L 281.646455 30219.087434 
L 281.646455 115.453295 
L 278.626983 115.453295 
z
" style="fill:#1f77b4;opacity:0.4;"/>
   </g>
   <g id="patch_66">
    <path clip-path="url(#pdece7ed3ef)" d="M 281.646455 30219.087434 
L 284.665928 30219.087434 
L 284.665928 108.752121 
L 281.646455 108.752121 
z
" style="fill:#1f77b4;opacity:0.4;"/>
   </g>
   <g id="patch_67">
    <path clip-path="url(#pdece7ed3ef)" d="M 284.665936 30219.087434 
L 287.685408 30219.087434 
L 287.685408 98.923395 
L 284.665936 98.923395 
z
" style="fill:#1f77b4;opacity:0.4;"/>
   </g>
   <g id="patch_68">
    <path clip-path="url(#pdece7ed3ef)" d="M 287.685408 30219.087434 
L 290.704888 30219.087434 
L 290.704888 92.131914 
L 287.685408 92.131914 
z
" style="fill:#1f77b4;opacity:0.4;"/>
   </g>
   <g id="patch_69">
    <path clip-path="url(#pdece7ed3ef)" d="M 290.704888 30219.087434 
L 293.724361 30219.087434 
L 293.724361 84.776474 
L 290.704888 84.776474 
z
" style="fill:#1f77b4;opacity:0.4;"/>
   </g>
   <g id="patch_70">
    <path clip-path="url(#pdece7ed3ef)" d="M 293.724368 30219.087434 
L 296.743841 30219.087434 
L 296.743841 78.207389 
L 293.724368 78.207389 
z
" style="fill:#1f77b4;opacity:0.4;"/>
   </g>
   <g id="patch_71">
    <path clip-path="url(#pdece7ed3ef)" d="M 296.743841 30219.087434 
L 299.763314 30219.087434 
L 299.763314 71.602943 
L 296.743841 71.602943 
z
" style="fill:#1f77b4;opacity:0.4;"/>
   </g>
   <g id="patch_72">
    <path clip-path="url(#pdece7ed3ef)" d="M 299.763318 30219.087434 
L 302.782798 30219.087434 
L 302.782798 65.982309 
L 299.763318 65.982309 
z
" style="fill:#1f77b4;opacity:0.4;"/>
   </g>
   <g id="patch_73">
    <path clip-path="url(#pdece7ed3ef)" d="M 302.782801 30219.087434 
L 305.802274 30219.087434 
L 305.802274 60.5329 
L 302.782801 60.5329 
z
" style="fill:#1f77b4;opacity:0.4;"/>
   </g>
   <g id="patch_74">
    <path clip-path="url(#pdece7ed3ef)" d="M 305.802276 30219.087434 
L 308.821749 30219.087434 
L 308.821749 55.838596 
L 305.802276 55.838596 
z
" style="fill:#1f77b4;opacity:0.4;"/>
   </g>
   <g id="patch_75">
    <path clip-path="url(#pdece7ed3ef)" d="M 308.82175 30219.087434 
L 311.841231 30219.087434 
L 311.841231 51.472614 
L 308.82175 51.472614 
z
" style="fill:#1f77b4;opacity:0.4;"/>
   </g>
   <g id="patch_76">
    <path clip-path="url(#pdece7ed3ef)" d="M 311.841231 30219.087434 
L 314.860703 30219.087434 
L 314.860703 47.544259 
L 311.841231 47.544259 
z
" style="fill:#1f77b4;opacity:0.4;"/>
   </g>
   <g id="patch_77">
    <path clip-path="url(#pdece7ed3ef)" d="M 314.860703 30219.087434 
L 317.880183 30219.087434 
L 317.880183 44.349831 
L 314.860703 44.349831 
z
" style="fill:#1f77b4;opacity:0.4;"/>
   </g>
   <g id="patch_78">
    <path clip-path="url(#pdece7ed3ef)" d="M 317.880185 30219.087434 
L 320.899658 30219.087434 
L 320.899658 41.54484 
L 317.880185 41.54484 
z
" style="fill:#1f77b4;opacity:0.4;"/>
   </g>
   <g id="patch_79">
    <path clip-path="url(#pdece7ed3ef)" d="M 320.899658 30219.087434 
L 323.919138 30219.087434 
L 323.919138 39.051543 
L 320.899658 39.051543 
z
" style="fill:#1f77b4;opacity:0.4;"/>
   </g>
   <g id="patch_80">
    <path clip-path="url(#pdece7ed3ef)" d="M 323.919136 30219.087434 
L 326.938616 30219.087434 
L 326.938616 37.041458 
L 323.919136 37.041458 
z
" style="fill:#1f77b4;opacity:0.4;"/>
   </g>
   <g id="patch_81">
    <path clip-path="url(#pdece7ed3ef)" d="M 326.938613 30219.087434 
L 329.958093 30219.087434 
L 329.958093 35.727353 
L 326.938613 35.727353 
z
" style="fill:#1f77b4;opacity:0.4;"/>
   </g>
   <g id="patch_82">
    <path clip-path="url(#pdece7ed3ef)" d="M 329.95809 30219.087434 
L 332.977571 30219.087434 
L 332.977571 34.765933 
L 329.95809 34.765933 
z
" style="fill:#1f77b4;opacity:0.4;"/>
   </g>
   <g id="patch_83">
    <path clip-path="url(#pdece7ed3ef)" d="M 332.977568 30219.087434 
L 335.997048 30219.087434 
L 335.997048 34.251761 
L 332.977568 34.251761 
z
" style="fill:#1f77b4;opacity:0.4;"/>
   </g>
   <g id="patch_84">
    <path clip-path="url(#pdece7ed3ef)" d="M 335.997045 30219.087434 
L 339.016525 30219.087434 
L 339.016525 34.290778 
L 335.997045 34.290778 
z
" style="fill:#1f77b4;opacity:0.4;"/>
   </g>
   <g id="patch_85">
    <path clip-path="url(#pdece7ed3ef)" d="M 339.016522 30219.087434 
L 342.036003 30219.087434 
L 342.036003 34.768264 
L 339.016522 34.768264 
z
" style="fill:#1f77b4;opacity:0.4;"/>
   </g>
   <g id="patch_86">
    <path clip-path="url(#pdece7ed3ef)" d="M 342.036 30219.087434 
L 345.05548 30219.087434 
L 345.05548 35.750523 
L 342.036 35.750523 
z
" style="fill:#1f77b4;opacity:0.4;"/>
   </g>
   <g id="patch_87">
    <path clip-path="url(#pdece7ed3ef)" d="M 345.055477 30219.087434 
L 348.074957 30219.087434 
L 348.074957 37.110085 
L 345.055477 37.110085 
z
" style="fill:#1f77b4;opacity:0.4;"/>
   </g>
   <g id="patch_88">
    <path clip-path="url(#pdece7ed3ef)" d="M 348.074955 30219.087434 
L 351.094435 30219.087434 
L 351.094435 39.047815 
L 348.074955 39.047815 
z
" style="fill:#1f77b4;opacity:0.4;"/>
   </g>
   <g id="patch_89">
    <path clip-path="url(#pdece7ed3ef)" d="M 351.094435 30219.087434 
L 354.113908 30219.087434 
L 354.113908 41.46782 
L 351.094435 41.46782 
z
" style="fill:#1f77b4;opacity:0.4;"/>
   </g>
   <g id="patch_90">
    <path clip-path="url(#pdece7ed3ef)" d="M 354.113908 30219.087434 
L 357.133388 30219.087434 
L 357.133388 44.414758 
L 354.113908 44.414758 
z
" style="fill:#1f77b4;opacity:0.4;"/>
   </g>
   <g id="patch_91">
    <path clip-path="url(#pdece7ed3ef)" d="M 357.13339 30219.087434 
L 360.152862 30219.087434 
L 360.152862 47.8639 
L 357.13339 47.8639 
z
" style="fill:#1f77b4;opacity:0.4;"/>
   </g>
   <g id="patch_92">
    <path clip-path="url(#pdece7ed3ef)" d="M 360.152864 30219.087434 
L 363.172344 30219.087434 
L 363.172344 51.613022 
L 360.152864 51.613022 
z
" style="fill:#1f77b4;opacity:0.4;"/>
   </g>
   <g id="patch_93">
    <path clip-path="url(#pdece7ed3ef)" d="M 363.172344 30219.087434 
L 366.191817 30219.087434 
L 366.191817 56.050296 
L 363.172344 56.050296 
z
" style="fill:#1f77b4;opacity:0.4;"/>
   </g>
   <g id="patch_94">
    <path clip-path="url(#pdece7ed3ef)" d="M 366.191817 30219.087434 
L 369.211297 30219.087434 
L 369.211297 60.870805 
L 366.191817 60.870805 
z
" style="fill:#1f77b4;opacity:0.4;"/>
   </g>
   <g id="patch_95">
    <path clip-path="url(#pdece7ed3ef)" d="M 369.211297 30219.087434 
L 372.23077 30219.087434 
L 372.23077 65.933975 
L 369.211297 65.933975 
z
" style="fill:#1f77b4;opacity:0.4;"/>
   </g>
   <g id="patch_96">
    <path clip-path="url(#pdece7ed3ef)" d="M 372.230777 30219.087434 
L 375.25025 30219.087434 
L 375.25025 72.034972 
L 372.230777 72.034972 
z
" style="fill:#1f77b4;opacity:0.4;"/>
   </g>
   <g id="patch_97">
    <path clip-path="url(#pdece7ed3ef)" d="M 375.25025 30219.087434 
L 378.26973 30219.087434 
L 378.26973 77.886838 
L 375.25025 77.886838 
z
" style="fill:#1f77b4;opacity:0.4;"/>
   </g>
   <g id="patch_98">
    <path clip-path="url(#pdece7ed3ef)" d="M 378.26973 30219.087434 
L 381.289203 30219.087434 
L 381.289203 84.906924 
L 378.26973 84.906924 
z
" style="fill:#1f77b4;opacity:0.4;"/>
   </g>
   <g id="patch_99">
    <path clip-path="url(#pdece7ed3ef)" d="M 381.28921 30219.087434 
L 384.308683 30219.087434 
L 384.308683 91.976482 
L 381.28921 91.976482 
z
" style="fill:#1f77b4;opacity:0.4;"/>
   </g>
   <g id="patch_100">
    <path clip-path="url(#pdece7ed3ef)" d="M 384.308683 30219.087434 
L 387.328155 30219.087434 
L 387.328155 99.81144 
L 384.308683 99.81144 
z
" style="fill:#1f77b4;opacity:0.4;"/>
   </g>
   <g id="patch_101">
    <path clip-path="url(#pdece7ed3ef)" d="M 387.328159 30219.087434 
L 390.347639 30219.087434 
L 390.347639 108.016338 
L 387.328159 108.016338 
z
" style="fill:#1f77b4;opacity:0.4;"/>
   </g>
   <g id="patch_102">
    <path clip-path="url(#pdece7ed3ef)" d="M 390.347643 30219.087434 
L 393.367116 30219.087434 
L 393.367116 118.048436 
L 390.347643 118.048436 
z
" style="fill:#1f77b4;opacity:0.4;"/>
   </g>
   <g id="patch_103">
    <path clip-path="url(#pdece7ed3ef)" d="M 393.367116 30219.087434 
L 396.386588 30219.087434 
L 396.386588 124.379106 
L 393.367116 124.379106 
z
" style="fill:#1f77b4;opacity:0.4;"/>
   </g>
   <g id="patch_104">
    <path clip-path="url(#pdece7ed3ef)" d="M 396.386596 30219.087434 
L 399.406069 30219.087434 
L 399.406069 133.639147 
L 396.386596 133.639147 
z
" style="fill:#1f77b4;opacity:0.4;"/>
   </g>
   <g id="patch_105">
    <path clip-path="url(#pdece7ed3ef)" d="M 399.406076 30219.087434 
L 402.425556 30219.087434 
L 402.425556 141.149653 
L 399.406076 141.149653 
z
" style="fill:#1f77b4;opacity:0.4;"/>
   </g>
   <g id="patch_106">
    <path clip-path="url(#pdece7ed3ef)" d="M 402.425549 30219.087434 
L 405.445021 30219.087434 
L 405.445021 156.171832 
L 402.425549 156.171832 
z
" style="fill:#1f77b4;opacity:0.4;"/>
   </g>
   <g id="patch_107">
    <path clip-path="url(#pdece7ed3ef)" d="M 405.445021 30219.087434 
L 408.464502 30219.087434 
L 408.464502 154.420157 
L 405.445021 154.420157 
z
" style="fill:#1f77b4;opacity:0.4;"/>
   </g>
   <g id="matplotlib.axis_3">
    <g id="xtick_5">
     <g id="line2d_53">
      <g>
       <use style="stroke:#000000;stroke-width:0.8;" x="257.22016" xlink:href="#m69c39a7c7e" y="173.93875"/>
      </g>
     </g>
     <g id="text_12">
      <!-- −10 -->
      <g transform="translate(246.667816 188.537188)scale(0.1 -0.1)">
       <use xlink:href="#DejaVuSans-8722"/>
       <use x="83.789062" xlink:href="#DejaVuSans-49"/>
       <use x="147.412109" xlink:href="#DejaVuSans-48"/>
      </g>
     </g>
    </g>
    <g id="xtick_6">
     <g id="line2d_54">
      <g>
       <use style="stroke:#000000;stroke-width:0.8;" x="296.602443" xlink:href="#m69c39a7c7e" y="173.93875"/>
      </g>
     </g>
     <g id="text_13">
      <!-- −5 -->
      <g transform="translate(289.23135 188.537188)scale(0.1 -0.1)">
       <use xlink:href="#DejaVuSans-8722"/>
       <use x="83.789062" xlink:href="#DejaVuSans-53"/>
      </g>
     </g>
    </g>
    <g id="xtick_7">
     <g id="line2d_55">
      <g>
       <use style="stroke:#000000;stroke-width:0.8;" x="335.984727" xlink:href="#m69c39a7c7e" y="173.93875"/>
      </g>
     </g>
     <g id="text_14">
      <!-- 0 -->
      <g transform="translate(332.803477 188.537188)scale(0.1 -0.1)">
       <use xlink:href="#DejaVuSans-48"/>
      </g>
     </g>
    </g>
    <g id="xtick_8">
     <g id="line2d_56">
      <g>
       <use style="stroke:#000000;stroke-width:0.8;" x="375.36701" xlink:href="#m69c39a7c7e" y="173.93875"/>
      </g>
     </g>
     <g id="text_15">
      <!-- 5 -->
      <g transform="translate(372.18576 188.537188)scale(0.1 -0.1)">
       <use xlink:href="#DejaVuSans-53"/>
      </g>
     </g>
    </g>
    <g id="xtick_9">
     <g id="line2d_57">
      <g>
       <use style="stroke:#000000;stroke-width:0.8;" x="414.749293" xlink:href="#m69c39a7c7e" y="173.93875"/>
      </g>
     </g>
     <g id="text_16">
      <!-- 10 -->
      <g transform="translate(408.386793 188.537188)scale(0.1 -0.1)">
       <use xlink:href="#DejaVuSans-49"/>
       <use x="63.623047" xlink:href="#DejaVuSans-48"/>
      </g>
     </g>
    </g>
    <g id="text_17">
     <!-- x -->
     <g transform="translate(330.018194 202.215313)scale(0.1 -0.1)">
      <use xlink:href="#DejaVuSans-120"/>
     </g>
    </g>
   </g>
   <g id="matplotlib.axis_4">
    <g id="ytick_49">
     <g id="line2d_58">
      <g>
       <use style="stroke:#000000;stroke-width:0.8;" x="249.941944" xlink:href="#mabf343cbce" y="164.070648"/>
      </g>
     </g>
     <g id="text_18">
      <!-- $\mathdefault{10^{-5}}$ -->
      <g transform="translate(219.441944 167.869866)scale(0.1 -0.1)">
       <use transform="translate(0 0.684375)" xlink:href="#DejaVuSans-49"/>
       <use transform="translate(63.623047 0.684375)" xlink:href="#DejaVuSans-48"/>
       <use transform="translate(128.203125 38.965625)scale(0.7)" xlink:href="#DejaVuSans-8722"/>
       <use transform="translate(186.855469 38.965625)scale(0.7)" xlink:href="#DejaVuSans-53"/>
      </g>
     </g>
    </g>
    <g id="ytick_50">
     <g id="line2d_59">
      <g>
       <use style="stroke:#000000;stroke-width:0.8;" x="249.941944" xlink:href="#mabf343cbce" y="133.864601"/>
      </g>
     </g>
     <g id="text_19">
      <!-- $\mathdefault{10^{-4}}$ -->
      <g transform="translate(219.441944 137.663819)scale(0.1 -0.1)">
       <use transform="translate(0 0.684375)" xlink:href="#DejaVuSans-49"/>
       <use transform="translate(63.623047 0.684375)" xlink:href="#DejaVuSans-48"/>
       <use transform="translate(128.203125 38.965625)scale(0.7)" xlink:href="#DejaVuSans-8722"/>
       <use transform="translate(186.855469 38.965625)scale(0.7)" xlink:href="#DejaVuSans-52"/>
      </g>
     </g>
    </g>
    <g id="ytick_51">
     <g id="line2d_60">
      <g>
       <use style="stroke:#000000;stroke-width:0.8;" x="249.941944" xlink:href="#mabf343cbce" y="103.658554"/>
      </g>
     </g>
     <g id="text_20">
      <!-- $\mathdefault{10^{-3}}$ -->
      <g transform="translate(219.441944 107.457772)scale(0.1 -0.1)">
       <use transform="translate(0 0.765625)" xlink:href="#DejaVuSans-49"/>
       <use transform="translate(63.623047 0.765625)" xlink:href="#DejaVuSans-48"/>
       <use transform="translate(128.203125 39.046875)scale(0.7)" xlink:href="#DejaVuSans-8722"/>
       <use transform="translate(186.855469 39.046875)scale(0.7)" xlink:href="#DejaVuSans-51"/>
      </g>
     </g>
    </g>
    <g id="ytick_52">
     <g id="line2d_61">
      <g>
       <use style="stroke:#000000;stroke-width:0.8;" x="249.941944" xlink:href="#mabf343cbce" y="73.452507"/>
      </g>
     </g>
     <g id="text_21">
      <!-- $\mathdefault{10^{-2}}$ -->
      <g transform="translate(219.441944 77.251725)scale(0.1 -0.1)">
       <use transform="translate(0 0.765625)" xlink:href="#DejaVuSans-49"/>
       <use transform="translate(63.623047 0.765625)" xlink:href="#DejaVuSans-48"/>
       <use transform="translate(128.203125 39.046875)scale(0.7)" xlink:href="#DejaVuSans-8722"/>
       <use transform="translate(186.855469 39.046875)scale(0.7)" xlink:href="#DejaVuSans-50"/>
      </g>
     </g>
    </g>
    <g id="ytick_53">
     <g id="line2d_62">
      <g>
       <use style="stroke:#000000;stroke-width:0.8;" x="249.941944" xlink:href="#mabf343cbce" y="43.24646"/>
      </g>
     </g>
     <g id="text_22">
      <!-- $\mathdefault{10^{-1}}$ -->
      <g transform="translate(219.441944 47.045678)scale(0.1 -0.1)">
       <use transform="translate(0 0.684375)" xlink:href="#DejaVuSans-49"/>
       <use transform="translate(63.623047 0.684375)" xlink:href="#DejaVuSans-48"/>
       <use transform="translate(128.203125 38.965625)scale(0.7)" xlink:href="#DejaVuSans-8722"/>
       <use transform="translate(186.855469 38.965625)scale(0.7)" xlink:href="#DejaVuSans-49"/>
      </g>
     </g>
    </g>
    <g id="ytick_54">
     <g id="line2d_63">
      <g>
       <use style="stroke:#000000;stroke-width:0.6;" x="249.941944" xlink:href="#mb17916ef28" y="173.163574"/>
      </g>
     </g>
    </g>
    <g id="ytick_55">
     <g id="line2d_64">
      <g>
       <use style="stroke:#000000;stroke-width:0.6;" x="249.941944" xlink:href="#mb17916ef28" y="170.771821"/>
      </g>
     </g>
    </g>
    <g id="ytick_56">
     <g id="line2d_65">
      <g>
       <use style="stroke:#000000;stroke-width:0.6;" x="249.941944" xlink:href="#mb17916ef28" y="168.749624"/>
      </g>
     </g>
    </g>
    <g id="ytick_57">
     <g id="line2d_66">
      <g>
       <use style="stroke:#000000;stroke-width:0.6;" x="249.941944" xlink:href="#mb17916ef28" y="166.997916"/>
      </g>
     </g>
    </g>
    <g id="ytick_58">
     <g id="line2d_67">
      <g>
       <use style="stroke:#000000;stroke-width:0.6;" x="249.941944" xlink:href="#mb17916ef28" y="165.452801"/>
      </g>
     </g>
    </g>
    <g id="ytick_59">
     <g id="line2d_68">
      <g>
       <use style="stroke:#000000;stroke-width:0.6;" x="249.941944" xlink:href="#mb17916ef28" y="154.977721"/>
      </g>
     </g>
    </g>
    <g id="ytick_60">
     <g id="line2d_69">
      <g>
       <use style="stroke:#000000;stroke-width:0.6;" x="249.941944" xlink:href="#mb17916ef28" y="149.658701"/>
      </g>
     </g>
    </g>
    <g id="ytick_61">
     <g id="line2d_70">
      <g>
       <use style="stroke:#000000;stroke-width:0.6;" x="249.941944" xlink:href="#mb17916ef28" y="145.884795"/>
      </g>
     </g>
    </g>
    <g id="ytick_62">
     <g id="line2d_71">
      <g>
       <use style="stroke:#000000;stroke-width:0.6;" x="249.941944" xlink:href="#mb17916ef28" y="142.957527"/>
      </g>
     </g>
    </g>
    <g id="ytick_63">
     <g id="line2d_72">
      <g>
       <use style="stroke:#000000;stroke-width:0.6;" x="249.941944" xlink:href="#mb17916ef28" y="140.565774"/>
      </g>
     </g>
    </g>
    <g id="ytick_64">
     <g id="line2d_73">
      <g>
       <use style="stroke:#000000;stroke-width:0.6;" x="249.941944" xlink:href="#mb17916ef28" y="138.543577"/>
      </g>
     </g>
    </g>
    <g id="ytick_65">
     <g id="line2d_74">
      <g>
       <use style="stroke:#000000;stroke-width:0.6;" x="249.941944" xlink:href="#mb17916ef28" y="136.791869"/>
      </g>
     </g>
    </g>
    <g id="ytick_66">
     <g id="line2d_75">
      <g>
       <use style="stroke:#000000;stroke-width:0.6;" x="249.941944" xlink:href="#mb17916ef28" y="135.246754"/>
      </g>
     </g>
    </g>
    <g id="ytick_67">
     <g id="line2d_76">
      <g>
       <use style="stroke:#000000;stroke-width:0.6;" x="249.941944" xlink:href="#mb17916ef28" y="124.771674"/>
      </g>
     </g>
    </g>
    <g id="ytick_68">
     <g id="line2d_77">
      <g>
       <use style="stroke:#000000;stroke-width:0.6;" x="249.941944" xlink:href="#mb17916ef28" y="119.452654"/>
      </g>
     </g>
    </g>
    <g id="ytick_69">
     <g id="line2d_78">
      <g>
       <use style="stroke:#000000;stroke-width:0.6;" x="249.941944" xlink:href="#mb17916ef28" y="115.678748"/>
      </g>
     </g>
    </g>
    <g id="ytick_70">
     <g id="line2d_79">
      <g>
       <use style="stroke:#000000;stroke-width:0.6;" x="249.941944" xlink:href="#mb17916ef28" y="112.75148"/>
      </g>
     </g>
    </g>
    <g id="ytick_71">
     <g id="line2d_80">
      <g>
       <use style="stroke:#000000;stroke-width:0.6;" x="249.941944" xlink:href="#mb17916ef28" y="110.359727"/>
      </g>
     </g>
    </g>
    <g id="ytick_72">
     <g id="line2d_81">
      <g>
       <use style="stroke:#000000;stroke-width:0.6;" x="249.941944" xlink:href="#mb17916ef28" y="108.337529"/>
      </g>
     </g>
    </g>
    <g id="ytick_73">
     <g id="line2d_82">
      <g>
       <use style="stroke:#000000;stroke-width:0.6;" x="249.941944" xlink:href="#mb17916ef28" y="106.585822"/>
      </g>
     </g>
    </g>
    <g id="ytick_74">
     <g id="line2d_83">
      <g>
       <use style="stroke:#000000;stroke-width:0.6;" x="249.941944" xlink:href="#mb17916ef28" y="105.040707"/>
      </g>
     </g>
    </g>
    <g id="ytick_75">
     <g id="line2d_84">
      <g>
       <use style="stroke:#000000;stroke-width:0.6;" x="249.941944" xlink:href="#mb17916ef28" y="94.565627"/>
      </g>
     </g>
    </g>
    <g id="ytick_76">
     <g id="line2d_85">
      <g>
       <use style="stroke:#000000;stroke-width:0.6;" x="249.941944" xlink:href="#mb17916ef28" y="89.246607"/>
      </g>
     </g>
    </g>
    <g id="ytick_77">
     <g id="line2d_86">
      <g>
       <use style="stroke:#000000;stroke-width:0.6;" x="249.941944" xlink:href="#mb17916ef28" y="85.472701"/>
      </g>
     </g>
    </g>
    <g id="ytick_78">
     <g id="line2d_87">
      <g>
       <use style="stroke:#000000;stroke-width:0.6;" x="249.941944" xlink:href="#mb17916ef28" y="82.545433"/>
      </g>
     </g>
    </g>
    <g id="ytick_79">
     <g id="line2d_88">
      <g>
       <use style="stroke:#000000;stroke-width:0.6;" x="249.941944" xlink:href="#mb17916ef28" y="80.15368"/>
      </g>
     </g>
    </g>
    <g id="ytick_80">
     <g id="line2d_89">
      <g>
       <use style="stroke:#000000;stroke-width:0.6;" x="249.941944" xlink:href="#mb17916ef28" y="78.131482"/>
      </g>
     </g>
    </g>
    <g id="ytick_81">
     <g id="line2d_90">
      <g>
       <use style="stroke:#000000;stroke-width:0.6;" x="249.941944" xlink:href="#mb17916ef28" y="76.379775"/>
      </g>
     </g>
    </g>
    <g id="ytick_82">
     <g id="line2d_91">
      <g>
       <use style="stroke:#000000;stroke-width:0.6;" x="249.941944" xlink:href="#mb17916ef28" y="74.834659"/>
      </g>
     </g>
    </g>
    <g id="ytick_83">
     <g id="line2d_92">
      <g>
       <use style="stroke:#000000;stroke-width:0.6;" x="249.941944" xlink:href="#mb17916ef28" y="64.35958"/>
      </g>
     </g>
    </g>
    <g id="ytick_84">
     <g id="line2d_93">
      <g>
       <use style="stroke:#000000;stroke-width:0.6;" x="249.941944" xlink:href="#mb17916ef28" y="59.04056"/>
      </g>
     </g>
    </g>
    <g id="ytick_85">
     <g id="line2d_94">
      <g>
       <use style="stroke:#000000;stroke-width:0.6;" x="249.941944" xlink:href="#mb17916ef28" y="55.266654"/>
      </g>
     </g>
    </g>
    <g id="ytick_86">
     <g id="line2d_95">
      <g>
       <use style="stroke:#000000;stroke-width:0.6;" x="249.941944" xlink:href="#mb17916ef28" y="52.339386"/>
      </g>
     </g>
    </g>
    <g id="ytick_87">
     <g id="line2d_96">
      <g>
       <use style="stroke:#000000;stroke-width:0.6;" x="249.941944" xlink:href="#mb17916ef28" y="49.947633"/>
      </g>
     </g>
    </g>
    <g id="ytick_88">
     <g id="line2d_97">
      <g>
       <use style="stroke:#000000;stroke-width:0.6;" x="249.941944" xlink:href="#mb17916ef28" y="47.925435"/>
      </g>
     </g>
    </g>
    <g id="ytick_89">
     <g id="line2d_98">
      <g>
       <use style="stroke:#000000;stroke-width:0.6;" x="249.941944" xlink:href="#mb17916ef28" y="46.173728"/>
      </g>
     </g>
    </g>
    <g id="ytick_90">
     <g id="line2d_99">
      <g>
       <use style="stroke:#000000;stroke-width:0.6;" x="249.941944" xlink:href="#mb17916ef28" y="44.628612"/>
      </g>
     </g>
    </g>
    <g id="ytick_91">
     <g id="line2d_100">
      <g>
       <use style="stroke:#000000;stroke-width:0.6;" x="249.941944" xlink:href="#mb17916ef28" y="34.153533"/>
      </g>
     </g>
    </g>
    <g id="ytick_92">
     <g id="line2d_101">
      <g>
       <use style="stroke:#000000;stroke-width:0.6;" x="249.941944" xlink:href="#mb17916ef28" y="28.834512"/>
      </g>
     </g>
    </g>
   </g>
   <g id="patch_108">
    <path d="M 249.941944 173.93875 
L 249.941944 27.6 
" style="fill:none;stroke:#000000;stroke-linecap:square;stroke-linejoin:miter;stroke-width:0.8;"/>
   </g>
   <g id="patch_109">
    <path d="M 416.013195 173.93875 
L 416.013195 27.6 
" style="fill:none;stroke:#000000;stroke-linecap:square;stroke-linejoin:miter;stroke-width:0.8;"/>
   </g>
   <g id="patch_110">
    <path d="M 249.941944 173.93875 
L 416.013195 173.93875 
" style="fill:none;stroke:#000000;stroke-linecap:square;stroke-linejoin:miter;stroke-width:0.8;"/>
   </g>
   <g id="patch_111">
    <path d="M 249.941944 27.6 
L 416.013195 27.6 
" style="fill:none;stroke:#000000;stroke-linecap:square;stroke-linejoin:miter;stroke-width:0.8;"/>
   </g>
  </g>
 </g>
 <defs>
  <clipPath id="p2f5a0d7774">
   <rect height="146.33875" width="166.071251" x="41.935346" y="27.6"/>
  </clipPath>
  <clipPath id="pdece7ed3ef">
   <rect height="146.33875" width="166.071251" x="249.941944" y="27.6"/>
  </clipPath>
 </defs>
</svg>
