<?xml version="1.0" encoding="utf-8" standalone="no"?>
<!DOCTYPE svg PUBLIC "-//W3C//DTD SVG 1.1//EN"
  "http://www.w3.org/Graphics/SVG/1.1/DTD/svg11.dtd">
<!-- Created with matplotlib (https://matplotlib.org/) -->
<svg height="216pt" version="1.1" viewBox="0 0 360 216" width="360pt" xmlns="http://www.w3.org/2000/svg" xmlns:xlink="http://www.w3.org/1999/xlink">
 <defs>
  <style type="text/css">
*{stroke-linecap:butt;stroke-linejoin:round;}
  </style>
 </defs>
 <g id="figure_1">
  <g id="patch_1">
   <path d="M 0 216 
L 360 216 
L 360 0 
L 0 0 
z
" style="fill:#ffffff;"/>
  </g>
  <g id="axes_1">
   <g id="patch_2">
    <path d="M 41.800346 174.04 
L 349.2 174.04 
L 349.2 10.8 
L 41.800346 10.8 
z
" style="fill:#ffffff;"/>
   </g>
   <g id="patch_3">
    <path clip-path="url(#pd9878fcb3a)" d="M 55.774242 18875.031503 
L 61.363304 18875.031503 
L 61.363304 20.295614 
L 55.774242 20.295614 
z
" style="fill:#0000ff;opacity:0.4;"/>
   </g>
   <g id="patch_4">
    <path clip-path="url(#pd9878fcb3a)" d="M 61.363303 18875.031503 
L 66.952365 18875.031503 
L 66.952365 18.405036 
L 61.363303 18.405036 
z
" style="fill:#0000ff;opacity:0.4;"/>
   </g>
   <g id="patch_5">
    <path clip-path="url(#pd9878fcb3a)" d="M 66.952365 18875.031503 
L 72.541427 18875.031503 
L 72.541427 19.651992 
L 66.952365 19.651992 
z
" style="fill:#0000ff;opacity:0.4;"/>
   </g>
   <g id="patch_6">
    <path clip-path="url(#pd9878fcb3a)" d="M 72.541426 18875.031503 
L 78.130486 18875.031503 
L 78.130486 21.565246 
L 72.541426 21.565246 
z
" style="fill:#0000ff;opacity:0.4;"/>
   </g>
   <g id="patch_7">
    <path clip-path="url(#pd9878fcb3a)" d="M 78.130488 18875.031503 
L 83.719551 18875.031503 
L 83.719551 23.856907 
L 78.130488 23.856907 
z
" style="fill:#0000ff;opacity:0.4;"/>
   </g>
   <g id="patch_8">
    <path clip-path="url(#pd9878fcb3a)" d="M 83.719548 18875.031503 
L 89.308608 18875.031503 
L 89.308608 26.325097 
L 83.719548 26.325097 
z
" style="fill:#0000ff;opacity:0.4;"/>
   </g>
   <g id="patch_9">
    <path clip-path="url(#pd9878fcb3a)" d="M 89.308608 18875.031503 
L 94.897669 18875.031503 
L 94.897669 28.952805 
L 89.308608 28.952805 
z
" style="fill:#0000ff;opacity:0.4;"/>
   </g>
   <g id="patch_10">
    <path clip-path="url(#pd9878fcb3a)" d="M 94.897669 18875.031503 
L 100.486729 18875.031503 
L 100.486729 31.684056 
L 94.897669 31.684056 
z
" style="fill:#0000ff;opacity:0.4;"/>
   </g>
   <g id="patch_11">
    <path clip-path="url(#pd9878fcb3a)" d="M 100.486729 18875.031503 
L 106.075789 18875.031503 
L 106.075789 34.501988 
L 100.486729 34.501988 
z
" style="fill:#0000ff;opacity:0.4;"/>
   </g>
   <g id="patch_12">
    <path clip-path="url(#pd9878fcb3a)" d="M 106.075786 18875.031503 
L 111.664847 18875.031503 
L 111.664847 37.349065 
L 106.075786 37.349065 
z
" style="fill:#0000ff;opacity:0.4;"/>
   </g>
   <g id="patch_13">
    <path clip-path="url(#pd9878fcb3a)" d="M 111.664847 18875.031503 
L 117.253907 18875.031503 
L 117.253907 40.450629 
L 111.664847 40.450629 
z
" style="fill:#0000ff;opacity:0.4;"/>
   </g>
   <g id="patch_14">
    <path clip-path="url(#pd9878fcb3a)" d="M 117.253914 18875.031503 
L 122.842974 18875.031503 
L 122.842974 43.354435 
L 117.253914 43.354435 
z
" style="fill:#0000ff;opacity:0.4;"/>
   </g>
   <g id="patch_15">
    <path clip-path="url(#pd9878fcb3a)" d="M 122.842967 18875.031503 
L 128.432028 18875.031503 
L 128.432028 46.317924 
L 122.842967 46.317924 
z
" style="fill:#0000ff;opacity:0.4;"/>
   </g>
   <g id="patch_16">
    <path clip-path="url(#pd9878fcb3a)" d="M 128.432034 18875.031503 
L 134.021095 18875.031503 
L 134.021095 49.440701 
L 128.432034 49.440701 
z
" style="fill:#0000ff;opacity:0.4;"/>
   </g>
   <g id="patch_17">
    <path clip-path="url(#pd9878fcb3a)" d="M 134.021088 18875.031503 
L 139.610149 18875.031503 
L 139.610149 51.987688 
L 134.021088 51.987688 
z
" style="fill:#0000ff;opacity:0.4;"/>
   </g>
   <g id="patch_18">
    <path clip-path="url(#pd9878fcb3a)" d="M 139.610155 18875.031503 
L 145.199216 18875.031503 
L 145.199216 55.130012 
L 139.610155 55.130012 
z
" style="fill:#0000ff;opacity:0.4;"/>
   </g>
   <g id="patch_19">
    <path clip-path="url(#pd9878fcb3a)" d="M 145.199209 18875.031503 
L 150.788269 18875.031503 
L 150.788269 58.350368 
L 145.199209 58.350368 
z
" style="fill:#0000ff;opacity:0.4;"/>
   </g>
   <g id="patch_20">
    <path clip-path="url(#pd9878fcb3a)" d="M 150.788276 18875.031503 
L 156.377336 18875.031503 
L 156.377336 61.639759 
L 150.788276 61.639759 
z
" style="fill:#0000ff;opacity:0.4;"/>
   </g>
   <g id="patch_21">
    <path clip-path="url(#pd9878fcb3a)" d="M 156.377336 18875.031503 
L 161.966403 18875.031503 
L 161.966403 64.468472 
L 156.377336 64.468472 
z
" style="fill:#0000ff;opacity:0.4;"/>
   </g>
   <g id="patch_22">
    <path clip-path="url(#pd9878fcb3a)" d="M 161.966397 18875.031503 
L 167.555464 18875.031503 
L 167.555464 67.640456 
L 161.966397 67.640456 
z
" style="fill:#0000ff;opacity:0.4;"/>
   </g>
   <g id="patch_23">
    <path clip-path="url(#pd9878fcb3a)" d="M 167.555464 18875.031503 
L 173.144517 18875.031503 
L 173.144517 70.89444 
L 167.555464 70.89444 
z
" style="fill:#0000ff;opacity:0.4;"/>
   </g>
   <g id="patch_24">
    <path clip-path="url(#pd9878fcb3a)" d="M 173.144517 18875.031503 
L 178.733584 18875.031503 
L 178.733584 73.049516 
L 173.144517 73.049516 
z
" style="fill:#0000ff;opacity:0.4;"/>
   </g>
   <g id="patch_25">
    <path clip-path="url(#pd9878fcb3a)" d="M 178.733597 18875.031503 
L 184.322651 18875.031503 
L 184.322651 76.372064 
L 178.733597 76.372064 
z
" style="fill:#0000ff;opacity:0.4;"/>
   </g>
   <g id="patch_26">
    <path clip-path="url(#pd9878fcb3a)" d="M 184.322638 18875.031503 
L 189.911705 18875.031503 
L 189.911705 80.932887 
L 184.322638 80.932887 
z
" style="fill:#0000ff;opacity:0.4;"/>
   </g>
   <g id="patch_27">
    <path clip-path="url(#pd9878fcb3a)" d="M 189.911705 18875.031503 
L 195.500772 18875.031503 
L 195.500772 83.466517 
L 189.911705 83.466517 
z
" style="fill:#0000ff;opacity:0.4;"/>
   </g>
   <g id="patch_28">
    <path clip-path="url(#pd9878fcb3a)" d="M 195.500772 18875.031503 
L 201.089826 18875.031503 
L 201.089826 86.105798 
L 195.500772 86.105798 
z
" style="fill:#0000ff;opacity:0.4;"/>
   </g>
   <g id="patch_29">
    <path clip-path="url(#pd9878fcb3a)" d="M 201.089826 18875.031503 
L 206.678893 18875.031503 
L 206.678893 89.028576 
L 201.089826 89.028576 
z
" style="fill:#0000ff;opacity:0.4;"/>
   </g>
   <g id="patch_30">
    <path clip-path="url(#pd9878fcb3a)" d="M 206.678906 18875.031503 
L 212.26796 18875.031503 
L 212.26796 92.120279 
L 206.678906 92.120279 
z
" style="fill:#0000ff;opacity:0.4;"/>
   </g>
   <g id="patch_31">
    <path clip-path="url(#pd9878fcb3a)" d="M 212.267947 18875.031503 
L 217.857014 18875.031503 
L 217.857014 93.614324 
L 212.267947 93.614324 
z
" style="fill:#0000ff;opacity:0.4;"/>
   </g>
   <g id="patch_32">
    <path clip-path="url(#pd9878fcb3a)" d="M 217.857014 18875.031503 
L 223.446068 18875.031503 
L 223.446068 97.800245 
L 217.857014 97.800245 
z
" style="fill:#0000ff;opacity:0.4;"/>
   </g>
   <g id="patch_33">
    <path clip-path="url(#pd9878fcb3a)" d="M 223.446068 18875.031503 
L 229.035134 18875.031503 
L 229.035134 100.157663 
L 223.446068 100.157663 
z
" style="fill:#0000ff;opacity:0.4;"/>
   </g>
   <g id="patch_34">
    <path clip-path="url(#pd9878fcb3a)" d="M 229.035147 18875.031503 
L 234.624201 18875.031503 
L 234.624201 103.480211 
L 229.035147 103.480211 
z
" style="fill:#0000ff;opacity:0.4;"/>
   </g>
   <g id="patch_35">
    <path clip-path="url(#pd9878fcb3a)" d="M 234.624188 18875.031503 
L 240.213255 18875.031503 
L 240.213255 106.802798 
L 234.624188 106.802798 
z
" style="fill:#0000ff;opacity:0.4;"/>
   </g>
   <g id="patch_36">
    <path clip-path="url(#pd9878fcb3a)" d="M 240.213255 18875.031503 
L 245.802309 18875.031503 
L 245.802309 112.482745 
L 240.213255 112.482745 
z
" style="fill:#0000ff;opacity:0.4;"/>
   </g>
   <g id="patch_37">
    <path clip-path="url(#pd9878fcb3a)" d="M 245.802309 18875.031503 
L 251.391376 18875.031503 
L 251.391376 118.16273 
L 245.802309 118.16273 
z
" style="fill:#0000ff;opacity:0.4;"/>
   </g>
   <g id="patch_38">
    <path clip-path="url(#pd9878fcb3a)" d="M 251.391389 18875.031503 
L 256.980443 18875.031503 
L 256.980443 18875.031503 
L 251.391389 18875.031503 
z
" style="fill:#0000ff;opacity:0.4;"/>
   </g>
   <g id="patch_39">
    <path clip-path="url(#pd9878fcb3a)" d="M 256.98043 18875.031503 
L 262.569497 18875.031503 
L 262.569497 18875.031503 
L 256.98043 18875.031503 
z
" style="fill:#0000ff;opacity:0.4;"/>
   </g>
   <g id="patch_40">
    <path clip-path="url(#pd9878fcb3a)" d="M 262.569497 18875.031503 
L 268.158564 18875.031503 
L 268.158564 18875.031503 
L 262.569497 18875.031503 
z
" style="fill:#0000ff;opacity:0.4;"/>
   </g>
   <g id="patch_41">
    <path clip-path="url(#pd9878fcb3a)" d="M 268.158564 18875.031503 
L 273.747618 18875.031503 
L 273.747618 18875.031503 
L 268.158564 18875.031503 
z
" style="fill:#0000ff;opacity:0.4;"/>
   </g>
   <g id="patch_42">
    <path clip-path="url(#pd9878fcb3a)" d="M 273.747631 18875.031503 
L 279.336671 18875.031503 
L 279.336671 118.162711 
L 273.747631 118.162711 
z
" style="fill:#0000ff;opacity:0.4;"/>
   </g>
   <g id="patch_43">
    <path clip-path="url(#pd9878fcb3a)" d="M 279.336671 18875.031503 
L 284.925738 18875.031503 
L 284.925738 18875.031503 
L 279.336671 18875.031503 
z
" style="fill:#0000ff;opacity:0.4;"/>
   </g>
   <g id="patch_44">
    <path clip-path="url(#pd9878fcb3a)" d="M 284.925712 18875.031503 
L 290.514779 18875.031503 
L 290.514779 18875.031503 
L 284.925712 18875.031503 
z
" style="fill:#0000ff;opacity:0.4;"/>
   </g>
   <g id="patch_45">
    <path clip-path="url(#pd9878fcb3a)" d="M 290.514805 18875.031503 
L 296.103872 18875.031503 
L 296.103872 18875.031503 
L 290.514805 18875.031503 
z
" style="fill:#0000ff;opacity:0.4;"/>
   </g>
   <g id="patch_46">
    <path clip-path="url(#pd9878fcb3a)" d="M 296.103872 18875.031503 
L 301.692913 18875.031503 
L 301.692913 18875.031503 
L 296.103872 18875.031503 
z
" style="fill:#0000ff;opacity:0.4;"/>
   </g>
   <g id="patch_47">
    <path clip-path="url(#pd9878fcb3a)" d="M 301.692887 18875.031503 
L 307.281954 18875.031503 
L 307.281954 18875.031503 
L 301.692887 18875.031503 
z
" style="fill:#0000ff;opacity:0.4;"/>
   </g>
   <g id="patch_48">
    <path clip-path="url(#pd9878fcb3a)" d="M 307.28198 18875.031503 
L 312.871047 18875.031503 
L 312.871047 18875.031503 
L 307.28198 18875.031503 
z
" style="fill:#0000ff;opacity:0.4;"/>
   </g>
   <g id="patch_49">
    <path clip-path="url(#pd9878fcb3a)" d="M 312.871021 18875.031503 
L 318.460088 18875.031503 
L 318.460088 18875.031503 
L 312.871021 18875.031503 
z
" style="fill:#0000ff;opacity:0.4;"/>
   </g>
   <g id="patch_50">
    <path clip-path="url(#pd9878fcb3a)" d="M 318.460114 18875.031503 
L 324.049155 18875.031503 
L 324.049155 18875.031503 
L 318.460114 18875.031503 
z
" style="fill:#0000ff;opacity:0.4;"/>
   </g>
   <g id="patch_51">
    <path clip-path="url(#pd9878fcb3a)" d="M 324.049155 18875.031503 
L 329.638222 18875.031503 
L 329.638222 18875.031503 
L 324.049155 18875.031503 
z
" style="fill:#0000ff;opacity:0.4;"/>
   </g>
   <g id="patch_52">
    <path clip-path="url(#pd9878fcb3a)" d="M 329.638196 18875.031503 
L 335.227262 18875.031503 
L 335.227262 118.16273 
L 329.638196 118.16273 
z
" style="fill:#0000ff;opacity:0.4;"/>
   </g>
   <g id="matplotlib.axis_1">
    <g id="xtick_1">
     <g id="line2d_1">
      <defs>
       <path d="M 0 0 
L 0 3.5 
" id="md059bba697" style="stroke:#000000;stroke-width:0.8;"/>
      </defs>
      <g>
       <use style="stroke:#000000;stroke-width:0.8;" x="55.773058" xlink:href="#md059bba697" y="174.04"/>
      </g>
     </g>
     <g id="text_1">
      <!-- 0 -->
      <defs>
       <path d="M 31.78125 66.40625 
Q 24.171875 66.40625 20.328125 58.90625 
Q 16.5 51.421875 16.5 36.375 
Q 16.5 21.390625 20.328125 13.890625 
Q 24.171875 6.390625 31.78125 6.390625 
Q 39.453125 6.390625 43.28125 13.890625 
Q 47.125 21.390625 47.125 36.375 
Q 47.125 51.421875 43.28125 58.90625 
Q 39.453125 66.40625 31.78125 66.40625 
z
M 31.78125 74.21875 
Q 44.046875 74.21875 50.515625 64.515625 
Q 56.984375 54.828125 56.984375 36.375 
Q 56.984375 17.96875 50.515625 8.265625 
Q 44.046875 -1.421875 31.78125 -1.421875 
Q 19.53125 -1.421875 13.0625 8.265625 
Q 6.59375 17.96875 6.59375 36.375 
Q 6.59375 54.828125 13.0625 64.515625 
Q 19.53125 74.21875 31.78125 74.21875 
z
" id="DejaVuSans-48"/>
      </defs>
      <g transform="translate(52.591808 188.638438)scale(0.1 -0.1)">
       <use xlink:href="#DejaVuSans-48"/>
      </g>
     </g>
    </g>
    <g id="xtick_2">
     <g id="line2d_2">
      <g>
       <use style="stroke:#000000;stroke-width:0.8;" x="124.046459" xlink:href="#md059bba697" y="174.04"/>
      </g>
     </g>
     <g id="text_2">
      <!-- 10 -->
      <defs>
       <path d="M 12.40625 8.296875 
L 28.515625 8.296875 
L 28.515625 63.921875 
L 10.984375 60.40625 
L 10.984375 69.390625 
L 28.421875 72.90625 
L 38.28125 72.90625 
L 38.28125 8.296875 
L 54.390625 8.296875 
L 54.390625 0 
L 12.40625 0 
z
" id="DejaVuSans-49"/>
      </defs>
      <g transform="translate(117.683959 188.638438)scale(0.1 -0.1)">
       <use xlink:href="#DejaVuSans-49"/>
       <use x="63.623047" xlink:href="#DejaVuSans-48"/>
      </g>
     </g>
    </g>
    <g id="xtick_3">
     <g id="line2d_3">
      <g>
       <use style="stroke:#000000;stroke-width:0.8;" x="192.319859" xlink:href="#md059bba697" y="174.04"/>
      </g>
     </g>
     <g id="text_3">
      <!-- 20 -->
      <defs>
       <path d="M 19.1875 8.296875 
L 53.609375 8.296875 
L 53.609375 0 
L 7.328125 0 
L 7.328125 8.296875 
Q 12.9375 14.109375 22.625 23.890625 
Q 32.328125 33.6875 34.8125 36.53125 
Q 39.546875 41.84375 41.421875 45.53125 
Q 43.3125 49.21875 43.3125 52.78125 
Q 43.3125 58.59375 39.234375 62.25 
Q 35.15625 65.921875 28.609375 65.921875 
Q 23.96875 65.921875 18.8125 64.3125 
Q 13.671875 62.703125 7.8125 59.421875 
L 7.8125 69.390625 
Q 13.765625 71.78125 18.9375 73 
Q 24.125 74.21875 28.421875 74.21875 
Q 39.75 74.21875 46.484375 68.546875 
Q 53.21875 62.890625 53.21875 53.421875 
Q 53.21875 48.921875 51.53125 44.890625 
Q 49.859375 40.875 45.40625 35.40625 
Q 44.1875 33.984375 37.640625 27.21875 
Q 31.109375 20.453125 19.1875 8.296875 
z
" id="DejaVuSans-50"/>
      </defs>
      <g transform="translate(185.957359 188.638438)scale(0.1 -0.1)">
       <use xlink:href="#DejaVuSans-50"/>
       <use x="63.623047" xlink:href="#DejaVuSans-48"/>
      </g>
     </g>
    </g>
    <g id="xtick_4">
     <g id="line2d_4">
      <g>
       <use style="stroke:#000000;stroke-width:0.8;" x="260.59326" xlink:href="#md059bba697" y="174.04"/>
      </g>
     </g>
     <g id="text_4">
      <!-- 30 -->
      <defs>
       <path d="M 40.578125 39.3125 
Q 47.65625 37.796875 51.625 33 
Q 55.609375 28.21875 55.609375 21.1875 
Q 55.609375 10.40625 48.1875 4.484375 
Q 40.765625 -1.421875 27.09375 -1.421875 
Q 22.515625 -1.421875 17.65625 -0.515625 
Q 12.796875 0.390625 7.625 2.203125 
L 7.625 11.71875 
Q 11.71875 9.328125 16.59375 8.109375 
Q 21.484375 6.890625 26.8125 6.890625 
Q 36.078125 6.890625 40.9375 10.546875 
Q 45.796875 14.203125 45.796875 21.1875 
Q 45.796875 27.640625 41.28125 31.265625 
Q 36.765625 34.90625 28.71875 34.90625 
L 20.21875 34.90625 
L 20.21875 43.015625 
L 29.109375 43.015625 
Q 36.375 43.015625 40.234375 45.921875 
Q 44.09375 48.828125 44.09375 54.296875 
Q 44.09375 59.90625 40.109375 62.90625 
Q 36.140625 65.921875 28.71875 65.921875 
Q 24.65625 65.921875 20.015625 65.03125 
Q 15.375 64.15625 9.8125 62.3125 
L 9.8125 71.09375 
Q 15.4375 72.65625 20.34375 73.4375 
Q 25.25 74.21875 29.59375 74.21875 
Q 40.828125 74.21875 47.359375 69.109375 
Q 53.90625 64.015625 53.90625 55.328125 
Q 53.90625 49.265625 50.4375 45.09375 
Q 46.96875 40.921875 40.578125 39.3125 
z
" id="DejaVuSans-51"/>
      </defs>
      <g transform="translate(254.23076 188.638438)scale(0.1 -0.1)">
       <use xlink:href="#DejaVuSans-51"/>
       <use x="63.623047" xlink:href="#DejaVuSans-48"/>
      </g>
     </g>
    </g>
    <g id="xtick_5">
     <g id="line2d_5">
      <g>
       <use style="stroke:#000000;stroke-width:0.8;" x="328.866661" xlink:href="#md059bba697" y="174.04"/>
      </g>
     </g>
     <g id="text_5">
      <!-- 40 -->
      <defs>
       <path d="M 37.796875 64.3125 
L 12.890625 25.390625 
L 37.796875 25.390625 
z
M 35.203125 72.90625 
L 47.609375 72.90625 
L 47.609375 25.390625 
L 58.015625 25.390625 
L 58.015625 17.1875 
L 47.609375 17.1875 
L 47.609375 0 
L 37.796875 0 
L 37.796875 17.1875 
L 4.890625 17.1875 
L 4.890625 26.703125 
z
" id="DejaVuSans-52"/>
      </defs>
      <g transform="translate(322.504161 188.638438)scale(0.1 -0.1)">
       <use xlink:href="#DejaVuSans-52"/>
       <use x="63.623047" xlink:href="#DejaVuSans-48"/>
      </g>
     </g>
    </g>
    <g id="text_6">
     <!-- LLR -->
     <defs>
      <path d="M 9.8125 72.90625 
L 19.671875 72.90625 
L 19.671875 8.296875 
L 55.171875 8.296875 
L 55.171875 0 
L 9.8125 0 
z
" id="DejaVuSans-76"/>
      <path d="M 44.390625 34.1875 
Q 47.5625 33.109375 50.5625 29.59375 
Q 53.5625 26.078125 56.59375 19.921875 
L 66.609375 0 
L 56 0 
L 46.6875 18.703125 
Q 43.0625 26.03125 39.671875 28.421875 
Q 36.28125 30.8125 30.421875 30.8125 
L 19.671875 30.8125 
L 19.671875 0 
L 9.8125 0 
L 9.8125 72.90625 
L 32.078125 72.90625 
Q 44.578125 72.90625 50.734375 67.671875 
Q 56.890625 62.453125 56.890625 51.90625 
Q 56.890625 45.015625 53.6875 40.46875 
Q 50.484375 35.9375 44.390625 34.1875 
z
M 19.671875 64.796875 
L 19.671875 38.921875 
L 32.078125 38.921875 
Q 39.203125 38.921875 42.84375 42.21875 
Q 46.484375 45.515625 46.484375 51.90625 
Q 46.484375 58.296875 42.84375 61.546875 
Q 39.203125 64.796875 32.078125 64.796875 
z
" id="DejaVuSans-82"/>
     </defs>
     <g transform="translate(186.454079 202.316563)scale(0.1 -0.1)">
      <use xlink:href="#DejaVuSans-76"/>
      <use x="55.712891" xlink:href="#DejaVuSans-76"/>
      <use x="111.425781" xlink:href="#DejaVuSans-82"/>
     </g>
    </g>
   </g>
   <g id="matplotlib.axis_2">
    <g id="ytick_1">
     <g id="line2d_6">
      <defs>
       <path d="M 0 0 
L -3.5 0 
" id="m7497cf7ee4" style="stroke:#000000;stroke-width:0.8;"/>
      </defs>
      <g>
       <use style="stroke:#000000;stroke-width:0.8;" x="41.800346" xlink:href="#m7497cf7ee4" y="138.671068"/>
      </g>
     </g>
     <g id="text_7">
      <!-- $\mathdefault{10^{-7}}$ -->
      <defs>
       <path d="M 10.59375 35.5 
L 73.1875 35.5 
L 73.1875 27.203125 
L 10.59375 27.203125 
z
" id="DejaVuSans-8722"/>
       <path d="M 8.203125 72.90625 
L 55.078125 72.90625 
L 55.078125 68.703125 
L 28.609375 0 
L 18.3125 0 
L 43.21875 64.59375 
L 8.203125 64.59375 
z
" id="DejaVuSans-55"/>
      </defs>
      <g transform="translate(11.300346 142.470286)scale(0.1 -0.1)">
       <use transform="translate(0 0.684375)" xlink:href="#DejaVuSans-49"/>
       <use transform="translate(63.623047 0.684375)" xlink:href="#DejaVuSans-48"/>
       <use transform="translate(128.203125 38.965625)scale(0.7)" xlink:href="#DejaVuSans-8722"/>
       <use transform="translate(186.855469 38.965625)scale(0.7)" xlink:href="#DejaVuSans-55"/>
      </g>
     </g>
    </g>
    <g id="ytick_2">
     <g id="line2d_7">
      <g>
       <use style="stroke:#000000;stroke-width:0.8;" x="41.800346" xlink:href="#m7497cf7ee4" y="100.934189"/>
      </g>
     </g>
     <g id="text_8">
      <!-- $\mathdefault{10^{-5}}$ -->
      <defs>
       <path d="M 10.796875 72.90625 
L 49.515625 72.90625 
L 49.515625 64.59375 
L 19.828125 64.59375 
L 19.828125 46.734375 
Q 21.96875 47.46875 24.109375 47.828125 
Q 26.265625 48.1875 28.421875 48.1875 
Q 40.625 48.1875 47.75 41.5 
Q 54.890625 34.8125 54.890625 23.390625 
Q 54.890625 11.625 47.5625 5.09375 
Q 40.234375 -1.421875 26.90625 -1.421875 
Q 22.3125 -1.421875 17.546875 -0.640625 
Q 12.796875 0.140625 7.71875 1.703125 
L 7.71875 11.625 
Q 12.109375 9.234375 16.796875 8.0625 
Q 21.484375 6.890625 26.703125 6.890625 
Q 35.15625 6.890625 40.078125 11.328125 
Q 45.015625 15.765625 45.015625 23.390625 
Q 45.015625 31 40.078125 35.4375 
Q 35.15625 39.890625 26.703125 39.890625 
Q 22.75 39.890625 18.8125 39.015625 
Q 14.890625 38.140625 10.796875 36.28125 
z
" id="DejaVuSans-53"/>
      </defs>
      <g transform="translate(11.300346 104.733407)scale(0.1 -0.1)">
       <use transform="translate(0 0.684375)" xlink:href="#DejaVuSans-49"/>
       <use transform="translate(63.623047 0.684375)" xlink:href="#DejaVuSans-48"/>
       <use transform="translate(128.203125 38.965625)scale(0.7)" xlink:href="#DejaVuSans-8722"/>
       <use transform="translate(186.855469 38.965625)scale(0.7)" xlink:href="#DejaVuSans-53"/>
      </g>
     </g>
    </g>
    <g id="ytick_3">
     <g id="line2d_8">
      <g>
       <use style="stroke:#000000;stroke-width:0.8;" x="41.800346" xlink:href="#m7497cf7ee4" y="63.19731"/>
      </g>
     </g>
     <g id="text_9">
      <!-- $\mathdefault{10^{-3}}$ -->
      <g transform="translate(11.300346 66.996528)scale(0.1 -0.1)">
       <use transform="translate(0 0.765625)" xlink:href="#DejaVuSans-49"/>
       <use transform="translate(63.623047 0.765625)" xlink:href="#DejaVuSans-48"/>
       <use transform="translate(128.203125 39.046875)scale(0.7)" xlink:href="#DejaVuSans-8722"/>
       <use transform="translate(186.855469 39.046875)scale(0.7)" xlink:href="#DejaVuSans-51"/>
      </g>
     </g>
    </g>
    <g id="ytick_4">
     <g id="line2d_9">
      <g>
       <use style="stroke:#000000;stroke-width:0.8;" x="41.800346" xlink:href="#m7497cf7ee4" y="25.460431"/>
      </g>
     </g>
     <g id="text_10">
      <!-- $\mathdefault{10^{-1}}$ -->
      <g transform="translate(11.300346 29.259649)scale(0.1 -0.1)">
       <use transform="translate(0 0.684375)" xlink:href="#DejaVuSans-49"/>
       <use transform="translate(63.623047 0.684375)" xlink:href="#DejaVuSans-48"/>
       <use transform="translate(128.203125 38.965625)scale(0.7)" xlink:href="#DejaVuSans-8722"/>
       <use transform="translate(186.855469 38.965625)scale(0.7)" xlink:href="#DejaVuSans-49"/>
      </g>
     </g>
    </g>
   </g>
   <g id="line2d_10">
    <path clip-path="url(#pd9878fcb3a)" d="M 56.049977 217 
L 56.052792 27.380109 
L 56.332526 24.708 
L 56.891994 22.203766 
L 57.451461 20.878229 
L 58.010929 20.035279 
L 58.850131 19.234124 
L 59.689333 18.74965 
L 60.808269 18.391454 
L 62.206939 18.226502 
L 63.885343 18.284003 
L 65.84348 18.573206 
L 68.361086 19.169804 
L 71.717894 20.215755 
L 75.913903 21.776695 
L 81.228848 24.00676 
L 87.942464 27.076693 
L 96.614217 31.302887 
L 107.523841 36.879967 
L 121.510539 44.293497 
L 139.133779 53.896449 
L 161.79223 66.509113 
L 190.604829 82.815147 
L 227.249978 103.821615 
L 273.685816 130.70684 
L 332.989417 165.309935 
L 335.227288 166.62 
L 335.227288 166.62 
" style="fill:none;stroke:#0000ff;stroke-linecap:square;stroke-width:2;"/>
   </g>
   <g id="patch_53">
    <path d="M 41.800346 174.04 
L 41.800346 10.8 
" style="fill:none;stroke:#000000;stroke-linecap:square;stroke-linejoin:miter;stroke-width:0.8;"/>
   </g>
   <g id="patch_54">
    <path d="M 349.2 174.04 
L 349.2 10.8 
" style="fill:none;stroke:#000000;stroke-linecap:square;stroke-linejoin:miter;stroke-width:0.8;"/>
   </g>
   <g id="patch_55">
    <path d="M 41.800346 174.04 
L 349.2 174.04 
" style="fill:none;stroke:#000000;stroke-linecap:square;stroke-linejoin:miter;stroke-width:0.8;"/>
   </g>
   <g id="patch_56">
    <path d="M 41.800346 10.8 
L 349.2 10.8 
" style="fill:none;stroke:#000000;stroke-linecap:square;stroke-linejoin:miter;stroke-width:0.8;"/>
   </g>
   <g id="legend_1">
    <g id="line2d_11">
     <path d="M 235.796875 23.898438 
L 255.796875 23.898438 
" style="fill:none;stroke:#0000ff;stroke-linecap:square;stroke-width:2;"/>
    </g>
    <g id="line2d_12"/>
    <g id="text_11">
     <!-- chi^2 (DOF=3) -->
     <defs>
      <path d="M 48.78125 52.59375 
L 48.78125 44.1875 
Q 44.96875 46.296875 41.140625 47.34375 
Q 37.3125 48.390625 33.40625 48.390625 
Q 24.65625 48.390625 19.8125 42.84375 
Q 14.984375 37.3125 14.984375 27.296875 
Q 14.984375 17.28125 19.8125 11.734375 
Q 24.65625 6.203125 33.40625 6.203125 
Q 37.3125 6.203125 41.140625 7.25 
Q 44.96875 8.296875 48.78125 10.40625 
L 48.78125 2.09375 
Q 45.015625 0.34375 40.984375 -0.53125 
Q 36.96875 -1.421875 32.421875 -1.421875 
Q 20.0625 -1.421875 12.78125 6.34375 
Q 5.515625 14.109375 5.515625 27.296875 
Q 5.515625 40.671875 12.859375 48.328125 
Q 20.21875 56 33.015625 56 
Q 37.15625 56 41.109375 55.140625 
Q 45.0625 54.296875 48.78125 52.59375 
z
" id="DejaVuSans-99"/>
      <path d="M 54.890625 33.015625 
L 54.890625 0 
L 45.90625 0 
L 45.90625 32.71875 
Q 45.90625 40.484375 42.875 44.328125 
Q 39.84375 48.1875 33.796875 48.1875 
Q 26.515625 48.1875 22.3125 43.546875 
Q 18.109375 38.921875 18.109375 30.90625 
L 18.109375 0 
L 9.078125 0 
L 9.078125 75.984375 
L 18.109375 75.984375 
L 18.109375 46.1875 
Q 21.34375 51.125 25.703125 53.5625 
Q 30.078125 56 35.796875 56 
Q 45.21875 56 50.046875 50.171875 
Q 54.890625 44.34375 54.890625 33.015625 
z
" id="DejaVuSans-104"/>
      <path d="M 9.421875 54.6875 
L 18.40625 54.6875 
L 18.40625 0 
L 9.421875 0 
z
M 9.421875 75.984375 
L 18.40625 75.984375 
L 18.40625 64.59375 
L 9.421875 64.59375 
z
" id="DejaVuSans-105"/>
      <path d="M 46.6875 72.90625 
L 73.1875 45.703125 
L 63.375 45.703125 
L 41.890625 64.984375 
L 20.40625 45.703125 
L 10.59375 45.703125 
L 37.109375 72.90625 
z
" id="DejaVuSans-94"/>
      <path id="DejaVuSans-32"/>
      <path d="M 31 75.875 
Q 24.46875 64.65625 21.28125 53.65625 
Q 18.109375 42.671875 18.109375 31.390625 
Q 18.109375 20.125 21.3125 9.0625 
Q 24.515625 -2 31 -13.1875 
L 23.1875 -13.1875 
Q 15.875 -1.703125 12.234375 9.375 
Q 8.59375 20.453125 8.59375 31.390625 
Q 8.59375 42.28125 12.203125 53.3125 
Q 15.828125 64.359375 23.1875 75.875 
z
" id="DejaVuSans-40"/>
      <path d="M 19.671875 64.796875 
L 19.671875 8.109375 
L 31.59375 8.109375 
Q 46.6875 8.109375 53.6875 14.9375 
Q 60.6875 21.78125 60.6875 36.53125 
Q 60.6875 51.171875 53.6875 57.984375 
Q 46.6875 64.796875 31.59375 64.796875 
z
M 9.8125 72.90625 
L 30.078125 72.90625 
Q 51.265625 72.90625 61.171875 64.09375 
Q 71.09375 55.28125 71.09375 36.53125 
Q 71.09375 17.671875 61.125 8.828125 
Q 51.171875 0 30.078125 0 
L 9.8125 0 
z
" id="DejaVuSans-68"/>
      <path d="M 39.40625 66.21875 
Q 28.65625 66.21875 22.328125 58.203125 
Q 16.015625 50.203125 16.015625 36.375 
Q 16.015625 22.609375 22.328125 14.59375 
Q 28.65625 6.59375 39.40625 6.59375 
Q 50.140625 6.59375 56.421875 14.59375 
Q 62.703125 22.609375 62.703125 36.375 
Q 62.703125 50.203125 56.421875 58.203125 
Q 50.140625 66.21875 39.40625 66.21875 
z
M 39.40625 74.21875 
Q 54.734375 74.21875 63.90625 63.9375 
Q 73.09375 53.65625 73.09375 36.375 
Q 73.09375 19.140625 63.90625 8.859375 
Q 54.734375 -1.421875 39.40625 -1.421875 
Q 24.03125 -1.421875 14.8125 8.828125 
Q 5.609375 19.09375 5.609375 36.375 
Q 5.609375 53.65625 14.8125 63.9375 
Q 24.03125 74.21875 39.40625 74.21875 
z
" id="DejaVuSans-79"/>
      <path d="M 9.8125 72.90625 
L 51.703125 72.90625 
L 51.703125 64.59375 
L 19.671875 64.59375 
L 19.671875 43.109375 
L 48.578125 43.109375 
L 48.578125 34.8125 
L 19.671875 34.8125 
L 19.671875 0 
L 9.8125 0 
z
" id="DejaVuSans-70"/>
      <path d="M 10.59375 45.40625 
L 73.1875 45.40625 
L 73.1875 37.203125 
L 10.59375 37.203125 
z
M 10.59375 25.484375 
L 73.1875 25.484375 
L 73.1875 17.1875 
L 10.59375 17.1875 
z
" id="DejaVuSans-61"/>
      <path d="M 8.015625 75.875 
L 15.828125 75.875 
Q 23.140625 64.359375 26.78125 53.3125 
Q 30.421875 42.28125 30.421875 31.390625 
Q 30.421875 20.453125 26.78125 9.375 
Q 23.140625 -1.703125 15.828125 -13.1875 
L 8.015625 -13.1875 
Q 14.5 -2 17.703125 9.0625 
Q 20.90625 20.125 20.90625 31.390625 
Q 20.90625 42.671875 17.703125 53.65625 
Q 14.5 64.65625 8.015625 75.875 
z
" id="DejaVuSans-41"/>
     </defs>
     <g transform="translate(263.796875 27.398438)scale(0.1 -0.1)">
      <use xlink:href="#DejaVuSans-99"/>
      <use x="54.980469" xlink:href="#DejaVuSans-104"/>
      <use x="118.359375" xlink:href="#DejaVuSans-105"/>
      <use x="146.142578" xlink:href="#DejaVuSans-94"/>
      <use x="229.931641" xlink:href="#DejaVuSans-50"/>
      <use x="293.554688" xlink:href="#DejaVuSans-32"/>
      <use x="325.341797" xlink:href="#DejaVuSans-40"/>
      <use x="364.355469" xlink:href="#DejaVuSans-68"/>
      <use x="441.357422" xlink:href="#DejaVuSans-79"/>
      <use x="520.068359" xlink:href="#DejaVuSans-70"/>
      <use x="577.587891" xlink:href="#DejaVuSans-61"/>
      <use x="661.376953" xlink:href="#DejaVuSans-51"/>
      <use x="725" xlink:href="#DejaVuSans-41"/>
     </g>
    </g>
    <g id="patch_57">
     <path d="M 235.796875 42.076562 
L 255.796875 42.076562 
L 255.796875 35.076562 
L 235.796875 35.076562 
z
" style="fill:#0000ff;opacity:0.4;"/>
    </g>
    <g id="text_12">
     <!-- JMCTF -->
     <defs>
      <path d="M 9.8125 72.90625 
L 19.671875 72.90625 
L 19.671875 5.078125 
Q 19.671875 -8.109375 14.671875 -14.0625 
Q 9.671875 -20.015625 -1.421875 -20.015625 
L -5.171875 -20.015625 
L -5.171875 -11.71875 
L -2.09375 -11.71875 
Q 4.4375 -11.71875 7.125 -8.046875 
Q 9.8125 -4.390625 9.8125 5.078125 
z
" id="DejaVuSans-74"/>
      <path d="M 9.8125 72.90625 
L 24.515625 72.90625 
L 43.109375 23.296875 
L 61.8125 72.90625 
L 76.515625 72.90625 
L 76.515625 0 
L 66.890625 0 
L 66.890625 64.015625 
L 48.09375 14.015625 
L 38.1875 14.015625 
L 19.390625 64.015625 
L 19.390625 0 
L 9.8125 0 
z
" id="DejaVuSans-77"/>
      <path d="M 64.40625 67.28125 
L 64.40625 56.890625 
Q 59.421875 61.53125 53.78125 63.8125 
Q 48.140625 66.109375 41.796875 66.109375 
Q 29.296875 66.109375 22.65625 58.46875 
Q 16.015625 50.828125 16.015625 36.375 
Q 16.015625 21.96875 22.65625 14.328125 
Q 29.296875 6.6875 41.796875 6.6875 
Q 48.140625 6.6875 53.78125 8.984375 
Q 59.421875 11.28125 64.40625 15.921875 
L 64.40625 5.609375 
Q 59.234375 2.09375 53.4375 0.328125 
Q 47.65625 -1.421875 41.21875 -1.421875 
Q 24.65625 -1.421875 15.125 8.703125 
Q 5.609375 18.84375 5.609375 36.375 
Q 5.609375 53.953125 15.125 64.078125 
Q 24.65625 74.21875 41.21875 74.21875 
Q 47.75 74.21875 53.53125 72.484375 
Q 59.328125 70.75 64.40625 67.28125 
z
" id="DejaVuSans-67"/>
      <path d="M -0.296875 72.90625 
L 61.375 72.90625 
L 61.375 64.59375 
L 35.5 64.59375 
L 35.5 0 
L 25.59375 0 
L 25.59375 64.59375 
L -0.296875 64.59375 
z
" id="DejaVuSans-84"/>
     </defs>
     <g transform="translate(263.796875 42.076562)scale(0.1 -0.1)">
      <use xlink:href="#DejaVuSans-74"/>
      <use x="29.492188" xlink:href="#DejaVuSans-77"/>
      <use x="115.771484" xlink:href="#DejaVuSans-67"/>
      <use x="185.595703" xlink:href="#DejaVuSans-84"/>
      <use x="246.679688" xlink:href="#DejaVuSans-70"/>
     </g>
    </g>
   </g>
  </g>
 </g>
 <defs>
  <clipPath id="pd9878fcb3a">
   <rect height="163.24" width="307.399654" x="41.800346" y="10.8"/>
  </clipPath>
 </defs>
</svg>
