<?xml version="1.0" encoding="UTF-8"?>
<!-- Created with Inkscape (http://www.inkscape.org/) -->
<svg width="114.27mm" height="36.748mm" version="1.1" viewBox="0 0 114.27 36.748" xmlns="http://www.w3.org/2000/svg" xmlns:cc="http://creativecommons.org/ns#" xmlns:dc="http://purl.org/dc/elements/1.1/" xmlns:rdf="http://www.w3.org/1999/02/22-rdf-syntax-ns#">
 <defs>
  <filter id="filter4898" color-interpolation-filters="sRGB">
   <feGaussianBlur result="blur" stdDeviation="2 2"/>
  </filter>
 </defs>
 <metadata>
  <rdf:RDF>
   <cc:Work rdf:about="">
    <dc:format>image/svg+xml</dc:format>
    <dc:type rdf:resource="http://purl.org/dc/dcmitype/StillImage"/>
    <dc:title/>
   </cc:Work>
  </rdf:RDF>
 </metadata>
 <g transform="translate(-53.584 -110.09)">
  <g transform="matrix(.30912 0 0 .30912 -6.4007 -4.8918)" fill="#4d4d4d" filter="url(#filter4898)" stroke-width="1px" aria-label="JMC">
   <path d="m246.11 385.04h9.3333v70.667q0 8-2 13.2t-5.4667 8.2667q-3.3333 3.0667-7.7333 4.2667t-9.3333 1.2q-6 0-12-1.6-5.8667-1.6-10.533-5.7333l4.5333-7.6q4.2667 3.4667 8.5333 4.8 4.2667 1.3333 8.9333 1.3333 8.5333 0 12.133-4.5333t3.6-14.533z"/>
   <path d="m291.2 410.77q-0.8-1.7333-1.4667-2.9333-0.66667-1.3333-1.2-2.6667-0.53334-1.3333-1.0667-2.8-0.53333-1.6-1.0667-3.7333v82.533h-9.2v-96.133h11.467l32.533 70.4 32.667-70.4h11.067v96.133h-9.2v-82.533q-0.4 2.1333-0.93333 3.7333-0.4 1.4667-0.93333 2.8-0.53334 1.3333-1.2 2.6667-0.66667 1.2-1.4667 2.9333l-25.733 54.4h-8.8z"/>
   <path d="m421.63 383.57q9.6 0 16.933 2.5333 7.4667 2.4 13.467 7.0667l-4.8 7.3333q-6.5333-4.6667-12.4-6.4-5.8667-1.7333-13.2-1.7333-6.6667 0-11.867 2.5333-5.0667 2.4-8.5333 6.9333-3.4667 4.4-5.3333 10.667-1.7333 6.1333-1.7333 13.733v12.267q0 17.867 7.4667 26.533 7.6 8.6667 20.933 8.6667 9.0667 0 15.333-2.8 6.4-2.9333 11.067-7.0667l5.4667 7.3333q-5.3333 4.8-12.933 8.1333t-19.067 3.3333q-18.667 0-28.267-11.6-9.4667-11.6-9.4667-32.533v-11.867q0-20.533 9.6-31.733 9.7333-11.333 27.333-11.333z"/>
  </g>
 </g>
 <g transform="translate(-53.584 -110.09)">
  <g transform="translate(56.429 -65.054)">
   <g>
    <path transform="scale(.26458)" d="m360.05 687.87v18.898l32.73 18.898v-18.898zm-65.463 18.898v18.898l16.365 9.4473v-18.896zm49.096 9.4492-16.365 9.4492v56.691l16.365 9.4492v-37.795l16.367 9.4492v-18.898l-16.367-9.4492z" fill="#e55b2d"/>
    <path transform="scale(.26458)" d="m360.05 687.87-49.098 28.348v18.896l32.73-18.896v18.896l16.367-9.4473zm49.098 9.4492-16.367 9.4492v18.898l16.367-9.4492zm-32.732 37.795-16.365 9.4492v18.898l16.365-9.4492zm-16.365 28.348-16.367-9.4492v37.795l16.367-9.4492z" fill="#ed8e24"/>
    <path transform="scale(.26458)" d="m360.05 668.98-65.463 37.795 16.365 9.4492 49.098-28.348 32.73 18.898 16.367-9.4492zm0 56.693-16.367 9.4473 16.367 9.4492 16.365-9.4492z" fill="#f8bf3c"/>
   </g>
  </g>
  <flowRoot transform="matrix(.26458 0 0 .26458 71.438 16.631)" fill="#000000" font-family="'Noto Sans Vai'" font-size="40px" letter-spacing="0px" stroke-width="1px" word-spacing="0px" style="line-height:125%" xml:space="preserve"><flowRegion><rect x="30" y="396.09" width="476.43" height="162.86"/></flowRegion><flowPara font-size="96px"/></flowRoot>
  <g transform="matrix(.30912 0 0 .30912 -7.275 -5.8855)" fill="#f95" stroke-width="1px" aria-label="JMC">
   <path d="m246.11 385.04h9.3333v70.667q0 8-2 13.2t-5.4667 8.2667q-3.3333 3.0667-7.7333 4.2667t-9.3333 1.2q-6 0-12-1.6-5.8667-1.6-10.533-5.7333l4.5333-7.6q4.2667 3.4667 8.5333 4.8 4.2667 1.3333 8.9333 1.3333 8.5333 0 12.133-4.5333t3.6-14.533z"/>
   <path d="m291.2 410.77q-0.8-1.7333-1.4667-2.9333-0.66667-1.3333-1.2-2.6667-0.53334-1.3333-1.0667-2.8-0.53333-1.6-1.0667-3.7333v82.533h-9.2v-96.133h11.467l32.533 70.4 32.667-70.4h11.067v96.133h-9.2v-82.533q-0.4 2.1333-0.93333 3.7333-0.4 1.4667-0.93333 2.8-0.53334 1.3333-1.2 2.6667-0.66667 1.2-1.4667 2.9333l-25.733 54.4h-8.8z"/>
   <path d="m421.63 383.57q9.6 0 16.933 2.5333 7.4667 2.4 13.467 7.0667l-4.8 7.3333q-6.5333-4.6667-12.4-6.4-5.8667-1.7333-13.2-1.7333-6.6667 0-11.867 2.5333-5.0667 2.4-8.5333 6.9333-3.4667 4.4-5.3333 10.667-1.7333 6.1333-1.7333 13.733v12.267q0 17.867 7.4667 26.533 7.6 8.6667 20.933 8.6667 9.0667 0 15.333-2.8 6.4-2.9333 11.067-7.0667l5.4667 7.3333q-5.3333 4.8-12.933 8.1333t-19.067 3.3333q-18.667 0-28.267-11.6-9.4667-11.6-9.4667-32.533v-11.867q0-20.533 9.6-31.733 9.7333-11.333 27.333-11.333z"/>
  </g>
 </g>
</svg>
